<?xml version="1.0" encoding="UTF-8"?>
<svg id="Layer_1" data-name="Layer 1" xmlns="http://www.w3.org/2000/svg" version="1.1" viewBox="0 0 126.86 373.14">
  <defs>
    <style>
      .cls-1 {
        fill: #c3a9d2;
      }

      .cls-1, .cls-2, .cls-3, .cls-4, .cls-5, .cls-6, .cls-7, .cls-8, .cls-9, .cls-10, .cls-11, .cls-12, .cls-13, .cls-14 {
        stroke-width: 0px;
      }

      .cls-2 {
        fill: #a477bb;
      }

      .cls-3 {
        fill: #ead3fb;
      }

      .cls-4 {
        fill: #722389;
      }

      .cls-5 {
        fill: #fbfafc;
      }

      .cls-6 {
        fill: #f7f4f9;
      }

      .cls-7 {
        fill: #72238a;
      }

      .cls-8 {
        fill: #a376ba;
      }

      .cls-9 {
        fill: #fdfcfd;
      }

      .cls-10 {
        fill: #712189;
      }

      .cls-11 {
        fill: #a476ba;
      }

      .cls-12 {
        fill: #a375ba;
      }

      .cls-13 {
        fill: #eee5f1;
      }

      .cls-14 {
        fill: #ede3f0;
      }
    </style>
  </defs>
  <path class="cls-3" d="M72.66,367.11c.28,0,.56.01.84.02.45,2.05-.49,3.99-.4,6.02-.14-2.02-.91-3.99-.45-6.04Z"/>
  <g>
    <path class="cls-10" d="M4.91,141.88c-1.21,4.29-3.69,13.66-4.55,25.91-.14,1.96-1.2,17,1.17,17.44,1.05.2,2.35-2.55,3.25-4.37,6.39-12.98,9.04-13.13,14.27-23.75,9.73-19.77,3.33-25,13.03-44.9,6.65-13.66,14.21-20.52,11.93-31.48-.18-.88-1.62-7.79-5.02-8.32-2.28-.36-5.69,2.11-18.53,30.14-11.26,24.58-14.4,35.28-15.54,39.33Z"/>
    <path class="cls-8" d="M96.83,143.79c2.69-2.89,4.67-6.31,7.02-9.45,5.69-7.61,11.32-15.27,16.99-22.9.98-1.32,1.55-1.23,2.17.42,1.43,3.82,2.22,7.81,2.67,11.84.94,8.37,1.4,16.79,1.09,25.22-.26,7.13-.69,14.25-1.31,21.37-.94,10.79-2.43,21.5-4.16,32.19-1.79,11.11-4.02,22.13-6.49,33.1-3.66,16.24-7.78,32.36-13.1,48.15-3.83,11.39-8.37,22.47-14.6,32.8-.33.55-.52,1.24-1.22,1.51-.14-.19-.33-.37-.41-.58-3.74-10.45-5.73-21.28-7.08-32.25.35-.57.56-1.19.68-1.86,1.12-6.24,2.11-12.5,3.43-18.69,3.49-16.36,7.26-32.65,11.89-48.74,4.41-15.34,8.85-30.67,13.49-45.94,1.32-4.35,2.65-8.69,3.98-13.04.04-.09.34-.11.09-.29-.02.1-.04.21-.06.31-.22.2-.52.35-.66.6-2.48,4.51-5.34,8.81-7.58,13.46-2.79,5.8-4.98,11.85-7.02,17.93-3.95,11.77-7.56,23.64-10.85,35.61-2.32,8.44-4.51,16.91-6.49,25.44-.5,2.18-.5,4.55-1.89,6.49-.32-.63-.19-1.31-.18-1.97.13-6.49.58-12.97,1.2-19.43,1.74-18.27,5.04-36.28,9.27-54.12,1.87-7.91,3.87-15.78,5.78-23.68,1.06-4.36,2.06-8.72,3.09-13.08.12-.14.24-.28.36-.42,0,0-.11.03-.11.03Z"/>
    <path class="cls-8" d="M57.26,73.89c-.88,5.43-2.58,10.64-4.22,15.87-.52,1.66-1.26,3.27-1.49,5.01-2.97-.8-5.64-.17-8.07,1.67-2.93,2.22-4.6,5.08-4.72,8.82-.06,1.77-.43,1.92-1.81.98-1.05-.72-1.68-.42-2.03.73-.63,1.08.03,1.89.68,2.57.72.76,1.28,1.44,1.39,2.59.13,1.37,2.31,2.65,3.53,1.92,1.9-1.14,2.24-.07,2.63,1.33.05.17.16.32.24.48-3.91,9.38-7.86,18.73-12.34,27.86-.28.58-.37,1.31-1.1,1.58-.43-2.66.15-5.37-.36-8.03.2-.63.12-1.23-.12-1.83-.07-.85-.15-1.69-.22-2.54.12-.39.05-.76-.14-1.11-.08-.6-.16-1.2-.23-1.81-.04-.25-.09-.5-.13-.75-.08-.48-.16-.96-.23-1.44-.05-.25-.1-.49-.15-.74-.16-.89-.26-1.8-.49-2.67-.79-2.98-1.62-5.95-2.44-8.92,4.35-9.68,8.13-19.59,12.01-29.46.17-.44.49-1.03-.04-1.32-.63-.34-.91.31-1.24.73-4.96,6.34-8.63,13.45-12.19,20.62-.33.67-.44,1.55-1.36,1.81-2.15-3.68-4.14-7.44-5.94-11.31,1.25-2.55,2.5-5.1,3.76-7.65,6.63-13.52,14.21-26.46,23.35-38.45.34.34.7.67,1.03,1.02,1.66,1.77,1.64,2.07-.19,3.56-4.95,4.01-5.78,8.21-2.75,13.81,1.2,2.22,1.02,2.53-1.61,2.78-1.47.14-1.86.92-1.1,2.19.85,1.4,2.72,1.81,4.9,1.08,1.29-.9,2.27-1.06,3.47.46,1.2,1.53,3.39,1.06,4.41-.69.5-.85.77-1.83,1.23-2.97,1.12,1.38,2.41,2.22,4.09,2.21Z"/>
    <path class="cls-6" d="M21.4,300.75c-2.88-12.38-5.93-24.73-7.32-37.4-1.27-11.63-1.68-23.22,1.25-34.71,1.12-4.38,3.06-8.42,4.99-12.46,1.15-1.39,2.26-2.82,3.47-4.17,6.38-7.12,15.29-8.37,23.34-3.31.35.22.67.54,1.14.49.13.2.22.45.39.6,4.06,3.65,6.31,8.19,6.65,13.65.05.78.57.97,1.08,1.27,4.64,2.68,6.68,7.74,4.89,12.71-.62,1.72-.05,2.01,1.4,1.97,1.54,1.2,1.38,1.94-.7,3.19-1.05.27-2.04.09-2.99-.41-.6-.32-1.2-.37-.92.54.52,1.66-.76,2.02-1.74,2.48-1.2.56-2.37.32-3.34-.66-.31-.31-.29-.97-1.03-.93-.49,1.31-1.52,2.1-2.81,2.59-2.17-.06-3.53-1.05-3.66-3.49-.45.28-.74.49-1.05.66-1.21.67-2.44.75-3.61-.04-1.06-.72-.91-1.74-.51-2.76.24-.61-.07-.89-.58-1.1-.5-.2-1.04-.37-1.48-.67-.83-.57-1.57-1.31-1.22-2.41.36-1.14,1.4-.94,2.31-.89.24.01.49.03.72.09.99.24,1.3-.2,1.26-1.14-.23-5.65,2.53-9.13,7.84-10.75,1.32,0,2.65-.08,3.96,0,.89.06,1.03-.3.91-1.04-.67-4.01-2.13-7.62-5.2-10.44-4.93-5.64-13.73-6.74-20.16-2.44-4.69,3.14-7.59,7.7-9.73,12.8-2.01,4.47-3.04,9.19-3.7,14.01-1.33,9.7-.66,19.37.56,29.02.55,4.36,1.21,8.71,2.14,13.01l.5-.02v-6.67c.33-.12.43-.39.49-.7,1.18-6.55,4.13-12.05,9.49-16.13,1.88-.84,3.77-1.67,5.65-2.51,3.06-.38,6.1-.64,9.17.12,1.9.47,3.51,1.58,5.37,2.07.08.16.12.37.25.48,3.03,2.54,4.76,5.77,5.26,9.68.07.52.2.91.77,1.09,1.67.54,2.84,1.81,4.13,2.89,1.26,2.25,2.16,4.6,1.84,7.23-.17,1.36.11,2.08,1.69,1.82.69-.11,1.55-.09,1.85.75.29.79-.34,1.35-.74,1.94-.44.63-1.09.7-1.78.64-.61-.06-1.05-.08-.95.81.23,1.95-.9,2.72-2.67,2.85-.63-.34-1.25-.67-2.06-1.11.27,1.8-.74,2.57-2.15,2.85-1.56.31-2.88-.13-3.55-1.96-.74,2.29-2.28,2.64-4.22,2.12-.65-.79-1.71-1.31-1.23-2.74.28-.82-.51-.54-.93-.36-1,.41-1.99.58-2.95-.06-.68-.46-1.19-1.06-1.11-1.95.08-.87.82-1.01,1.46-1.09,1.22-.13,1.04-.76.82-1.64-1.44-5.81.84-10.69,6.12-13.22,1.18-.18,2.36-.48,3.57-.36.77.07.99-.32.79-.98-.81-2.65-1.71-5.26-3.99-7.08-4.4-3.97-9.51-4.32-14.96-2.96-2.1.56-4.08,1.36-5.58,3.02-.76.18-1.21.79-1.71,1.3-4.28,4.39-5.97,9.87-6.6,15.8-.78,7.29.45,14.4,2.1,21.44,1.62,6.9,3.44,13.75,5.17,20.62-.2,0-.4,0-.6,0-1.09-2.77-2.03-5.59-2.92-8.43-.78-2.47-1.13-5.08-2.35-7.42Z"/>
    <path class="cls-12" d="M27.94,150.72c-.77.48-1.05,1.31-1.43,2.06-3.95,7.6-8.34,14.94-13.37,21.88-.39.54-.79,1.09-1.28,1.52-1.26,1.11-2.08,2.39-2.47,4.09-.57,2.45-2.02,3.58-4.56,3.6-1.51,0-2.17,1.37-3.29,1.86,4.66-19.57,10.73-38.51,18.34-56.95,1.2-2.91,2.42-5.82,3.64-8.73.23-.55.42-1.16,1.08-1.38,1.43,2.99,1.81,6.28,2.66,9.44.05.25.09.5.14.74.19,1.45.39,2.91.58,4.36-.14.39-.07.76.12,1.11.09,1.45.18,2.91.27,4.36-.21,2.08-.22,4.16,0,6.24-.14,1.93-.29,3.86-.43,5.79Z"/>
    <path class="cls-13" d="M78.41,285.2c1.35,10.97,3.34,21.8,7.08,32.25.08.22.27.39.41.58.93,3.38,2.1,6.67,3.91,9.7.37.61.67,1.27,1,1.9-.16.15-.31.31-.47.46-.34-.41-.69-.82-1.03-1.24-1.94-2.33-2.86-5.23-4.34-7.81-.14-.52-.23-1.06-.42-1.56-2.08-5.63-3.67-11.4-4.97-17.26-.58-2.65-.8-5.38-1.71-7.95-.78-8.58-2.03-17.13-2.11-25.77-.06-1.51-.17-3.02-.19-4.53-.17-19.23,1.82-38.27,5.18-57.18,1.27-7.18,1.58-14.34-.23-21.48-.29-1.14-.42-2.4-1.44-3.24-.65-3.43-4.21-6.48-7.89-6.6-5.18-.17-9.5,1.45-12.17,6.23-.64,0-1.33.18-1.8-.47.47-.08.9.19,1.3-.52,4.79-8.38,15.09-9.16,21.01-1.65.07.09.19.14.28.21,2,3.76,2.98,7.82,3.42,12.12.82-.4.74-1.03.84-1.5,2-9.42,4.4-18.74,6.68-28.09.69-2.83,1.03-5.71.55-8.63-.73-6.65-3.33-12.53-7.6-17.6-4.82-5.71-10.84-9.4-18.57-9.28-5.59.08-9.68,2.79-12.15,7.85-.46.94-.62,1.95-.78,2.97-.19,1.19.19,1.83,1.38,1.99-.75.51-1.47.02-2.21-.08-.64-1.43-.32-2.8.16-4.2,2.71-7.93,10.3-11.75,19.14-9.35,9.78,2.65,15.91,9.35,19.69,18.46.72,1.73,1.29,3.53,1.93,5.3.12.32.13.79.57.8.4.01.57-.37.73-.71.97-2.19,1.26-4.55,1.75-6.86,1.83-8.62,3.32-17.29,3.11-26.15-.27-11.72-3.39-22.5-10.71-31.85-1.84-2.35-3.99-4.39-6.5-6.06-4.86-3.22-13.22-3.87-18.64,2.01-3.97,4.3-6.61,9.24-7.99,14.89-.3,0-.61.01-.91.02,1.04-7.75,4.71-14.04,11.08-18.47,5.77-4.01,11.8-2.96,17.39.59,6.44,4.09,10.31,10.33,13.29,17.15,4.13,9.46,5.05,19.42,4.25,29.6-.47,5.99-1.48,11.91-2.72,17.79-.12.57-.44,1.15-.14,1.77,0,0,.11-.03.11-.03-.42-.12-.32.21-.36.42-1.03,4.36-2.03,8.73-3.09,13.08-1.92,7.89-3.91,15.77-5.78,23.68-4.22,17.84-7.52,35.85-9.27,54.12-.62,6.46-1.07,12.94-1.2,19.43-.01.66-.14,1.34.18,1.97-.07.97-.18,1.93-.19,2.9-.11,6.3-.09,12.59.41,18.87.18,2.33.29,4.67.78,6.97Z"/>
    <path class="cls-11" d="M48.27,209.19c-.47.05-.79-.27-1.14-.49-8.05-5.06-16.96-3.81-23.34,3.31-1.21,1.35-2.32,2.78-3.47,4.17-.49-1.78.21-3.48.52-5.16,2.41-12.9,5.81-25.5,11.93-37.21,1.57-3,3.23-5.98,5.61-8.45,1.63-1.7,2.65-1.51,3.37.68,1.81,5.53,3.3,11.13,3.84,16.95-1.42,2.37-2.91,4.69-3.14,7.58-.1,1.28-1.11,1.17-1.89.72-1.64-.93-2.03-.13-2.09,1.32-.23,2.8,1.18,4.7,3.88,5.15.66.11,1.31.07,1.49.98.47,2.34,2.2,2.99,4.31,3.06-.21,2.47.81,4.91.13,7.39Z"/>
    <path class="cls-9" d="M51.35,139.06c.73.1,1.45.59,2.21.08,5.87.3,9.93,4.97,9.77,11.24q-.06,2.26,2.22,1.91c1.51-.23,1.34.76,1.23,1.7-1.93,2.13-4.13,2.81-6.76,1.28-.56-.32-.77-.07-1.06.48-1.44,2.74-2.9,3.12-5.5,1.51-.39-.24-.56-.52-.97.05-1.94,2.71-2.8,2.81-5.03.57-.53-.53-.91-.76-1.5-.23-1.46,1.32-3.23,1.17-4.99,1.07-1.69-1.82-1.66-1.84.44-3.21,1.18-.77,1.93-1.6,1.03-3.28-1.56-2.91-.92-6.5,1.38-8.89,2.08-2.16,4.4-3.96,7.53-4.29Z"/>
    <path class="cls-9" d="M38.47,192.61c.06-1.45.45-2.25,2.09-1.32.78.45,1.79.56,1.89-.72.23-2.89,1.72-5.21,3.14-7.58,2.22-1.12,4.25-2.71,6.95-2.6,1.61.06,3.24-.11,4.67.86.47.65,1.16.47,1.8.47,1.3,1.63,2.95,2.95,4.07,4.75,1.69,2.73,1.63,6.48-.26,9.02-1.11,1.49-1.01,2.55.36,3.67,1.66,1.36,1.64,1.64-.21,2.94-1.89.1-3.61-.23-4.87-1.84-.25-.32-.42-.8-1.13-.36-3.09,1.95-4.62,1.35-5.43-2.01-2.9,1.75-4.54,1.14-5.64-2.13-.19-.56-.43-.88-1.02-.72-2.73.72-4.83-.16-6.42-2.44Z"/>
    <path class="cls-12" d="M21.95,111.3c-2.1,2.65-3.04,5.89-4.46,8.87-6.08,12.76-10.85,26.04-15.65,39.32-.03.09-.15.15-.42.41.28-2.69.55-5.18.79-7.68.32-3.26.35-6.57.98-9.76,1.78-9.08,3.43-18.2,6.74-26.92,1.78-4.7,3.05-9.59,5.01-14.23.25-.59.27-1.35,1.04-1.6,1.71,2.12,2.44,4.78,3.96,7.01.95,1.39,1.66,2.91,2,4.58Z"/>
    <path class="cls-5" d="M44.08,74.87c-2.18.73-4.05.31-4.9-1.08-.77-1.26-.37-2.05,1.1-2.19,2.63-.25,2.81-.56,1.61-2.78-3.03-5.59-2.19-9.8,2.75-13.81,1.84-1.49,1.86-1.78.19-3.56-.33-.35-.68-.68-1.03-1.02-1.23-1.26-2.46-2.53-4.06-3.36-.44-.7-1.04-.94-1.83-.65l-1.08-.21c-.32-.47-.69-.48-1.11-.13-.37,0-.74,0-1.11,0-.43-.35-.8-.34-1.11.16-3.36.67-6.09,2.52-8.7,4.61-.49-.03-.93-.14-1.1-.68,2.56-2.56,5.47-4.5,9.11-5.11.43.33.81.3,1.1-.19.96-.22,1.92-.26,2.87.04.19.35.44.41.74.14,3.13.3,5.39,2.2,7.63,4.15,1.35,2.01,2.26,4.67,5.61,3.62.36-.11.83.1,1.25.17,2.75.4,4.84,2.06,6.94,3.7.8,1.48,1.64,2.92,2.11,4.56.46,1.57.9,1.61,1.89.37.41-.5.75-1.18,1.56-.57.02,1.49-.12,2.86-2.08,2.97-.57.03-.76.49-1.01.92-1.23,2.15-1.97,2.33-4.04,1.08-.33-.2-.56-.68-1.16-.43-.24,1.14-.44,2.4-1.93,2.7-1.4.28-2.3-.79-3.35-1.41-.13.26-.22.36-.23.47-.4,3.84-.57,4.03-4.32,4.15-.6.02-.87.25-1.09.73-.4.88-.82,1.75-1.24,2.62Z"/>
    <path class="cls-5" d="M53.67,95.36c.3,0,.61-.01.91-.02-.05.62.27,1,.77,1.32,4.4,2.81,5.23,6.79,3.82,11.54-.65,2.19-.2,2.64,2.03,2.19.63-.13,1.32-.53,1.8.24.43.7.22,1.41-.14,2.07-.61,1.11-1.64,1.55-2.83,1.71-.21.05-.42.09-.63.14-.23-.01-.45-.03-.68-.04-.2-.78-1.08-.96-1.42-1.59-.61-1.11-1.25-1.47-2.58-.82-1.6.78-3.23-.18-4.05-1.98-.24-.52-.12-1.2-.74-1.6-.87.93-1.58,2.09-3.03,2.09-1.55,0-1.9-1.42-2.67-2.46-.19.27-.33.46-.46.64-1.63,2.21-2.84,2.25-4.52.16-.18-.22-.54-.6-.61-.56-1.85,1.1-2.51-.83-3.7-1.4.35-1.15.97-1.45,2.03-.73,1.38.94,1.75.79,1.81-.98.13-3.75,1.79-6.6,4.72-8.82,2.43-1.84,5.09-2.48,8.07-1.67.71.2,1.34.66,2.12.59Z"/>
    <path class="cls-5" d="M8.09,38.85c.07-.48.13-.97.2-1.45.46-.3.49-.67.18-1.1.06-.36.12-.72.17-1.09.36-.18.42-.43.15-.74.06-.36.11-.72.17-1.08.38-.17.46-.41.19-.74.07-.36.14-.72.2-1.08.36-.17.44-.41.19-.74.04-.24.09-.48.13-.72.38-.15.49-.39.23-.74.05-.24.09-.48.14-.72.38-.15.49-.38.24-.74,1.78-7.66,5.06-14.6,10.16-20.59,2.34-2.74,5.33-4.71,8.76-5.93.75.23,1.35-.01,1.81-.62.24-.05.48-.11.72-.16.33.26.57.18.74-.19.36-.05.73-.1,1.09-.15,1.2.45,2.41.45,3.61,0,.36.05.72.11,1.08.16.17.36.4.45.74.2.54-.03,1,.21,1.46.45.24.51.67.6,1.18.56,3.46,1.65,5.87,4.32,7.59,7.69-.02.51.13.92.64,1.13l.04.07c.36.72.88.7,1.48.33.66-.08,1.24.17,1.82.43.23.42.58.53,1.02.43,1.62.48,2.98,1.46,4,2.73,1.36,1.7,3.08,2.4,5.16,2.62,1.71.18,2.12,1.15,1.14,2.48-1.01-1.52-2.77-.95-4.14-1.47-.31-.12-.46.24-.64.5-1.09,1.59-2.52,2.09-4.34,1.39-.79-.31-1.4-.45-1.84.4-.85,1.65-2.33,1.83-3.88,1.55-.98-.18-1.6,0-2.16.83-.71,1.06-1.68,1.86-3.05,1.42-1.25-.41-1.83.2-2.54,1.1-1.17,1.49-2.53,2.81-4.69,2.63.02-1.52,1.48-1.92,2.25-2.85.45-.55,1-.91.85-1.83-.93-5.64,2.21-10.47,7.76-12.06.57-.11.76-.33.21-.75-.57-.93-1.14-1.86-1.72-2.79-.02-.44-.24-.72-.66-.84-1.81-1.86-3.74-3.55-6.19-4.53-.13-.39-.36-.52-.73-.28-.24-.06-.48-.13-.72-.19-.18-.35-.43-.42-.74-.16h-4.41c-.3-.25-.54-.18-.73.15-.97.31-1.94.61-2.92.92-.39-.23-.6-.07-.72.32-6.92,3.34-10.95,9.2-13.8,16.02-1.7,4.07-3.19,8.24-4.29,12.52-.35.18-.43.42-.17.74-.08.36-.15.72-.23,1.08-.32.19-.38.44-.14.74-.07.36-.13.72-.2,1.08-.35.19-.41.44-.14.74-.07.48-.15.96-.22,1.44-.46.31-.49.68-.17,1.1-.06.48-.12.97-.18,1.45-.48.31-.49.68-.15,1.11-.06.72-.13,1.45-.19,2.17-.67.55-.57,1.18-.19,1.83-.05,1.21-.11,2.42-.16,3.64-.65.31-.31,1.1-.75,1.6-.4-1.26.21-2.59-.44-3.75-.03-.98-.07-1.95.2-2.91.55-.44.52-.94.15-1.47.06-.6.11-1.21.17-1.81.6-.41.56-.92.21-1.47Z"/>
    <path class="cls-3" d="M37.26,27.87c2.15.18,3.52-1.14,4.69-2.63.7-.9,1.29-1.5,2.54-1.1,1.38.45,2.34-.35,3.05-1.42.55-.83,1.17-1.01,2.16-.83,1.55.29,3.03.1,3.88-1.55.44-.85,1.05-.71,1.84-.4,1.81.7,3.25.2,4.34-1.39.18-.26.32-.62.64-.5,1.37.53,3.13-.04,4.14,1.47-1.26,1.44-2.09,2.78-.06,4.4.73.58.25,1.72-.37,2.47-.55.67-1.27,1.26-2.09,1.37-1.72.23-2.62,1.18-3.43,2.67-1.15,2.1-2.49,2.29-5.09.9-1.19-.63-1.69-.59-2.39.69-1.48,2.71-3.74,2.68-5.48.02-.45-.69-.62-.91-1.46-.44-1.98,1.1-4.07.15-4.73-2.08-.15-.52-.38-.65-.84-.73-.57-.1-1.27-.07-1.31-.93Z"/>
    <path class="cls-12" d="M58.96,56.71c-2.09-1.64-4.18-3.29-6.94-3.7-.42-.06-.88-.28-1.25-.17-3.35,1.05-4.26-1.62-5.61-3.62,2.56-3.55,5.58-6.68,8.74-9.69,1.56-1.49,3.39-.82,3.92,1.38.67,2.77.91,5.61,1.17,8.45.17,1.87.22,3.75.31,5.62.03.6.13,1.22-.35,1.73Z"/>
    <path class="cls-2" d="M91.29,153.2c.48,2.92.15,5.8-.55,8.63-2.28,9.35-4.68,18.67-6.68,28.09-.1.47-.02,1.1-.84,1.5-.44-4.3-1.42-8.37-3.42-12.12,2.02-5.62,4.39-11.1,6.81-16.56,1.27-2.87,2.61-5.71,3.93-8.56.17-.37.31-.8.75-.98Z"/>
    <path class="cls-5" d="M21.95,111.3c-.34-1.67-1.06-3.19-2-4.58-1.52-2.23-2.25-4.9-3.96-7.01-1.05-3.04-2.09-6.09-3.14-9.13.15-1.13-.19-2.1-.99-2.91-.16-.61-.33-1.21-.49-1.82.25-.34.15-.58-.22-.73-.05-.24-.11-.48-.16-.72.26-.35.16-.58-.22-.73-.05-.24-.1-.48-.14-.72.26-.34.17-.57-.21-.74-.05-.24-.1-.48-.14-.73.25-.32.17-.56-.17-.73-.07-.36-.14-.72-.21-1.08.26-.32.18-.56-.18-.74-.06-.36-.12-.72-.18-1.09.26-.31.19-.56-.16-.74l-.18-1.09c.32-.44.27-.81-.22-1.09l-.15-1.09c.33-.36.66-.71,1.21-.69l.13,1.09c-.33.45-.29.82.22,1.1.05.36.1.72.15,1.09-.27.31-.2.56.16.74.06.36.13.73.19,1.09-.26.31-.18.55.16.74.07.36.14.72.21,1.09-.26.33-.18.57.18.74.05.24.1.49.15.73-.14,1.39.27,2.62.9,3.91.72-.93-.44-2.43,1.18-2.83.05.85.11,1.7.16,2.55-.35.42-.33.8.15,1.11.06.48.13.96.19,1.45-.33.45-.3.83.22,1.1.05.36.1.72.15,1.08-.27.33-.19.57.18.74.59,2,.86,4.1,1.96,5.93,1.79,3.87,3.78,7.63,5.93,11.31.65,2.64,1.89,5.07,2.82,7.61.82,2.97,1.65,5.94,2.44,8.92.23.87.33,1.78.49,2.67-.23.3-.15.54.15.74.08.48.16.96.23,1.44-.23.3-.17.54.13.75.08.6.16,1.2.23,1.81-.32.42-.29.79.14,1.11.07.85.15,1.69.22,2.54-.39.64-.44,1.25.12,1.83.5,2.66-.08,5.37.36,8.03-.09.35-.17.69-.26,1.04-.77.66-.61,1.41-.23,2.19-.06.85-.12,1.69-.18,2.54-1.77.44-.3,1.21-.19,1.84-.06.6-.12,1.2-.18,1.81-.73.02-.84-.63-1.17-1.05.06-.98.12-1.96.18-2.95.14-1.93.29-3.86.43-5.79.67-2.08.67-4.16,0-6.24-.09-1.45-.18-2.91-.27-4.36.34-.41.31-.78-.12-1.11-.19-1.45-.39-2.91-.58-4.36.23-.3.16-.54-.14-.74-.85-3.16-1.22-6.45-2.66-9.44-.03-.37-.07-.75-.1-1.12.27-.78.03-1.37-.64-1.82-.74-1.43-.96-3.08-1.9-4.43Z"/>
    <path class="cls-2" d="M21.4,300.75c1.22,2.33,1.57,4.94,2.35,7.42.89,2.84,1.83,5.66,2.92,8.43.6,2.11,1.25,4.2,2.16,6.2.93,1.28,1.12,2.8,1.42,4.29.5,2.46.98,4.92,1.47,7.38v7.49c-1.46-1.33-2.2-2.79-2.98-4.23-.59-1.09-.76-2.42-1.77-3.29.14-1.81-.66-3.43-1.05-5.12-1.46-6.32-2.08-12.77-3.21-19.14-.45-2.55-.95-5.1-1.43-7.65-.11-.6-.17-1.2.12-1.77Z"/>
    <path class="cls-3" d="M34.93,106.98c1.18.58,1.85,2.51,3.7,1.4.07-.04.43.34.61.56,1.68,2.09,2.9,2.04,4.52-.16.14-.19.27-.38.46-.64.77,1.04,1.12,2.46,2.67,2.46,1.45,0,2.16-1.16,3.03-2.09.62.4.51,1.08.74,1.6.82,1.8,2.46,2.76,4.05,1.98,1.33-.65,1.97-.29,2.58.82.35.63,1.22.81,1.42,1.59-.35-.06-.77-.02-1.04-.21-1.07-.76-1.42-.31-1.89.74-1.16,2.65-3.61,2.88-5.39.58-.47-.61-.8-1.32-1.21-2-2.62,3.38-3.42,3.69-5.79,2.25-.08-.16-.19-.31-.24-.48-.39-1.39-.73-2.47-2.63-1.33-1.22.73-3.41-.55-3.53-1.92-.11-1.15-.67-1.83-1.39-2.59-.65-.68-1.31-1.49-.68-2.57Z"/>
    <path class="cls-3" d="M44.08,74.87c.41-.87.84-1.74,1.24-2.62.22-.48.5-.71,1.09-.73,3.75-.12,3.92-.31,4.32-4.15.01-.11.1-.21.23-.47,1.05.63,1.96,1.7,3.35,1.41,1.49-.3,1.69-1.56,1.93-2.7.59-.25.83.23,1.16.43,2.07,1.25,2.82,1.07,4.04-1.08.25-.43.43-.89,1.01-.92,1.96-.11,2.1-1.48,2.08-2.97,1.62.91,1.22,2.24.55,3.43-.5.9-.91,1.6-.65,2.76.32,1.42-1.73,3-3.34,2.77-.53-.08-1.03-.3-1.68-.49.16,1.93-.09,3.61-2.14,4.34-1.68,0-2.97-.83-4.09-2.21-.46,1.14-.73,2.12-1.23,2.97-1.02,1.75-3.21,2.21-4.41.69-1.2-1.52-2.17-1.36-3.47-.46Z"/>
    <path class="cls-3" d="M40.97,158.72c1.76.1,3.53.25,4.99-1.07.58-.53.97-.3,1.5.23,2.23,2.24,3.1,2.13,5.03-.57.41-.57.58-.29.97-.05,2.6,1.61,4.05,1.23,5.5-1.51.29-.55.51-.81,1.06-.48,2.63,1.53,4.83.85,6.76-1.28-.25,2.9-2.03,4.56-4.83,4.44-.74-.03-1.3-.12-1.75.77-1.05,2.07-2.82,2.69-5.01,1.8-.96-.39-1.52-.38-2.31.43-1.55,1.6-3.95,1.34-5.58-.54-.61-.71-1.07-.85-1.96-.58-1.79.55-3.3.02-4.37-1.58Z"/>
    <path class="cls-1" d="M73.62,42.05c-.04.63-.32.84-.59.9-2.96.67-3.47,2.83-3.39,5.42.02.69.26,1.87-.48,1.93-.94.08-.83-1.13-.94-1.86-.48-3-1.51-4.05-4.55-4.49-.43-.06-.97-.09-1.07-.54-.14-.63.5-.52.87-.63,2.41-.71,3.12-1.63,3.32-4.12.14-1.72-.2-3.49.58-5.33.79.59.66,1.35.71,2,.08.97.15,1.93.44,2.87.79,2.5,2.26,4.13,5.09,3.85Z"/>
    <path class="cls-1" d="M67.81,172.2c-.87-2.49-1.32-5.19-4.78-5.17,2.77-1.24,3.56-3.41,3.74-5.94.03-.44.18-.88.72-.89.58-.01.62.46.66.89.01.12,0,.24.02.36.39,3.56.58,3.76,3.89,4.35-.22,1.58-2.22,1.23-2.73,2.61-.43,1.15-.51,2.47-1.52,3.78Z"/>
    <path class="cls-5" d="M27.38,156.95l.13-1.45c.55-.02.9.32,1.23.69-.06.48-.11.97-.17,1.45-.49.3-.51.68-.17,1.11-.06.48-.13.96-.19,1.44-.49.29-.51.67-.19,1.1-.05.36-.1.72-.15,1.09-.5.28-.54.66-.22,1.1-.06.36-.12.72-.18,1.08-.36.18-.43.42-.16.74-.06.36-.11.72-.17,1.08-.38.17-.46.41-.19.74-.06.36-.12.72-.18,1.08-.38.16-.46.41-.19.74l-.21,1.08c-.35.17-.43.42-.18.74-.04.24-.08.48-.12.72-.39.15-.48.39-.22.74-.22,1.75-.72,3.42-1.25,5.09-.38.15-.48.39-.23.74-.16.61-.31,1.21-.47,1.82-.39.14-.5.37-.25.73-.17.61-.34,1.21-.51,1.82-1.25,1.99-1.87,4.19-2.2,6.5-.16.4-.31.8-.47,1.2-1.01-.41-.39-1.1-.27-1.68.28-1.4,1.25-2.63,1.01-4.16.28-.97.57-1.94.85-2.91.39-.14.5-.37.26-.73.17-.61.33-1.21.5-1.82.37-.15.48-.39.23-.73.16-.61.31-1.21.47-1.82.39-.15.5-.38.23-.74.05-.24.09-.48.14-.72.39-.15.49-.39.23-.74.04-.24.09-.48.13-.72.39-.15.49-.39.23-.74.04-.24.08-.48.12-.72.39-.15.5-.39.22-.74l.21-1.08c.36-.17.44-.41.18-.74.08-.36.15-.72.23-1.08.32-.19.39-.43.15-.74.04-.24.08-.48.11-.72.52-.27.57-.64.25-1.1.07-.36.13-.72.2-1.08.34-.19.41-.43.14-.74l.16-1.08c.5-.28.54-.66.21-1.1.05-.36.09-.72.14-1.09.51-.28.54-.66.21-1.1.06-.48.12-.96.18-1.45.5-.3.52-.67.18-1.11Z"/>
    <path class="cls-1" d="M43.54,137.24c-1.33-2.2-.97-5.56-4.86-5.63,3.17-.98,3.48-3.63,3.99-6.27,1.04,2.3.66,5.64,4.76,5.25-2.58,1.57-3.95,3.65-3.9,6.64Z"/>
    <path class="cls-5" d="M12.8,72.01c.08-.48.16-.96.24-1.44.34-.19.41-.43.15-.74.09-1.26.45-2.46.89-3.64.6-.48.84-1.07.6-1.82.22-1.04.64-2,1.14-2.92,1.09-.82,1.48-2,1.69-3.28,1.22-2.46,2.81-4.66,4.79-6.57.46.08.81.31,1.04.73-2.75,3.19-5,6.69-6.7,10.55-.39.12-.54.34-.31.73-.4,1.21-.79,2.43-1.19,3.64-.39.15-.49.38-.24.74-.05.24-.1.48-.15.72-.38.16-.47.4-.21.74-.07.36-.13.72-.2,1.08-.36.18-.43.42-.16.74-.04.36-.08.73-.13,1.09-.42-.12-.84-.23-1.26-.35Z"/>
    <path class="cls-14" d="M7.36,46.5c.65,1.16.04,2.49.44,3.75.44-.5.09-1.29.75-1.6,0,2.93,0,5.85,0,8.78-.76-.42-.25-1.35-.75-1.96-.4,1.4.23,2.83-.44,4.12-.49-4.36-.5-8.73,0-13.09Z"/>
    <path class="cls-14" d="M13.67,82.58c-1.62.4-.45,1.9-1.18,2.83-.63-1.28-1.04-2.52-.9-3.91.74.18.4-.54.64-.77,1.26-.92,1.26-1.97,0-2.88-.16-1.11-.04-2.2.24-3.27.32.45.48,1.09,1.22,1.06,0,2.31-.01,4.63-.02,6.94Z"/>
    <path class="cls-5" d="M7.35,59.59c.67-1.29.04-2.72.44-4.12.5.61-.02,1.54.75,1.96.05,1.22.11,2.43.16,3.65-.39.48-.24,1.42-1.2,1.42-.05-.97-.09-1.94-.14-2.91Z"/>
    <path class="cls-5" d="M9.59,70.21c.06.48.13.97.19,1.45-.33.37-.67.71-1.22.69-.04-.36-.07-.73-.11-1.09.36-.56.39-1.06-.23-1.46l-.14-1.46c.33-.42.44-1.07,1.17-1.05.06.6.13,1.2.19,1.81-.34.42-.32.79.15,1.1Z"/>
    <path class="cls-14" d="M21.2,184.29c.24,1.53-.73,2.76-1.01,4.16-.12.58-.74,1.27.27,1.68,0,.53-.18,1-.51,1.41-.35-.12-.69-.23-1.04-.35.76-2.3,1.53-4.6,2.29-6.89Z"/>
    <path class="cls-14" d="M20.93,188.93c.32-2.3.94-4.51,2.2-6.5-.53,2.23-1.24,4.41-2.2,6.5Z"/>
    <path class="cls-14" d="M7.49,62.5c.96,0,.81-.94,1.2-1.42.21.84.34,1.68.22,2.55-.73-.02-.87.63-1.2,1.06-.2-.72-.36-1.44-.22-2.19Z"/>
    <path class="cls-14" d="M17.53,195.21c.37-1.1.75-2.19,1.12-3.29.33.12.66.23.99.35-.23,1.09-.86,2-1.39,2.95-.24,0-.48,0-.72-.01Z"/>
    <path class="cls-5" d="M7.71,64.7c.33-.43.47-1.08,1.2-1.06.05.73.11,1.46.16,2.18-.34.36-.68.72-1.24.7-.04-.61-.08-1.21-.13-1.82Z"/>
    <path class="cls-5" d="M12.22,77.85c1.26.91,1.26,1.97,0,2.88,0-.96,0-1.92,0-2.88Z"/>
    <path class="cls-5" d="M13.69,75.64c-.74.02-.9-.61-1.22-1.06.05-.48.1-.97.14-1.45.55-.02.87.34,1.2.69-.04.61-.08,1.22-.12,1.82Z"/>
    <path class="cls-14" d="M37.17.26c-1.2.45-2.41.45-3.61,0,1.2-.34,2.41-.35,3.61,0Z"/>
    <path class="cls-1" d="M17.53,195.21c.24,0,.48,0,.72.01-.35,1.15-.93,2.18-1.87,3.62.24-1.63.62-2.65,1.15-3.63Z"/>
    <path class="cls-14" d="M28.74,156.19c-.33-.37-.68-.72-1.23-.69-.1-.64.06-1.24.25-1.83.33.42.44,1.08,1.17,1.05.13.52.01,1-.19,1.47Z"/>
    <path class="cls-14" d="M7.84,66.52c.56.02.9-.33,1.24-.7.2.47.31.96.17,1.47-.73-.03-.84.63-1.17,1.05-.19-.59-.36-1.19-.24-1.83Z"/>
    <path class="cls-14" d="M23.34,52.33c-.23-.42-.58-.65-1.04-.73.32-.62.8-1.08,1.41-1.41.18.54.61.65,1.1.68-.37.61-.85,1.1-1.48,1.46Z"/>
    <path class="cls-1" d="M93.31,333.74c-.99-.64-1.62-1.58-2.22-2.56.15-.15.29-.3.44-.45.68.95,1.72,1.69,1.78,3.01Z"/>
    <path class="cls-14" d="M8.56,72.35c.55.02.89-.32,1.22-.69.21.47.34.94.25,1.46-.55-.03-.88.32-1.21.69-.2-.47-.35-.94-.26-1.46Z"/>
    <path class="cls-14" d="M17.51,58.17c-.2,1.28-.6,2.46-1.69,3.28.39-1.18.87-2.32,1.69-3.28Z"/>
    <path class="cls-14" d="M13.81,73.82c-.33-.35-.65-.72-1.2-.69-.13-.4-.03-.77.19-1.11.42.12.84.23,1.26.35.1.52-.05.99-.25,1.46Z"/>
    <path class="cls-14" d="M11.86,87.66c.8.81,1.14,1.78.99,2.91-.55-.9-.8-1.89-.99-2.91Z"/>
    <path class="cls-14" d="M29.11,152.91c-.11-.63-1.58-1.4.19-1.84.15.63.02,1.24-.19,1.84Z"/>
    <path class="cls-14" d="M29.47,148.54c-.38-.78-.54-1.54.23-2.19-.08.73-.15,1.46-.23,2.19Z"/>
    <path class="cls-14" d="M8.71,45.02c-.38-.66-.49-1.28.19-1.83.14.63,0,1.23-.19,1.83Z"/>
    <path class="cls-14" d="M31.01.77c-.47.61-1.06.85-1.81.62.54-.39,1.16-.56,1.81-.62Z"/>
    <path class="cls-5" d="M19.64,192.27c-.33-.12-.66-.23-.99-.35.09-.25.17-.49.26-.74.35.12.69.23,1.04.35-.1.25-.21.49-.31.74Z"/>
    <path class="cls-14" d="M14.68,64.37c.24.75,0,1.35-.6,1.82.06-.65.22-1.28.6-1.82Z"/>
    <path class="cls-3" d="M91.53,330.73c-.15.15-.29.3-.44.45-.25-.36-.51-.71-.76-1.07.16-.15.31-.31.47-.46.24.36.49.73.73,1.09Z"/>
    <path class="cls-14" d="M23.85,115.73c.67.45.91,1.04.64,1.82-.21-.61-.43-1.21-.64-1.82Z"/>
    <path class="cls-14" d="M8.09,38.85c.35.55.39,1.05-.21,1.47-.12-.52,0-1,.21-1.47Z"/>
    <path class="cls-14" d="M8.22,69.8c.62.4.59.9.23,1.46-.19-.47-.34-.94-.23-1.46Z"/>
    <path class="cls-14" d="M51.37,10.84c-.6.36-1.12.38-1.48-.33.49.11.99.22,1.48.33Z"/>
    <path class="cls-14" d="M7.71,42.13c.37.53.4,1.03-.15,1.47-.15-.51-.05-1,.15-1.47Z"/>
    <path class="cls-14" d="M25.95,165.7c.32.46.27.83-.25,1.1.08-.37.17-.73.25-1.1Z"/>
    <path class="cls-14" d="M27.64,163.48c-.32-.45-.29-.82.22-1.1.1.4-.02.76-.22,1.1Z"/>
    <path class="cls-14" d="M27.02,159.5c.34.44.31.82-.21,1.1-.1-.4,0-.76.21-1.1Z"/>
    <path class="cls-14" d="M33.92,44.89c-.29.49-.67.52-1.1.19.34-.22.7-.33,1.1-.19Z"/>
    <path class="cls-14" d="M9.09,41.01c-.34-.42-.33-.8.15-1.11.12.39.03.76-.15,1.11Z"/>
    <path class="cls-14" d="M10.39,75.31c-.52-.28-.56-.65-.22-1.1.2.34.31.7.22,1.1Z"/>
    <path class="cls-14" d="M9.42,38.45c-.32-.42-.29-.8.17-1.1.11.39.01.75-.17,1.1Z"/>
    <path class="cls-14" d="M26.67,161.69c.32.44.29.82-.21,1.1-.1-.4.02-.76.21-1.1Z"/>
    <path class="cls-14" d="M27.38,156.95c.34.43.32.81-.18,1.11-.11-.4,0-.76.18-1.11Z"/>
    <path class="cls-14" d="M9.59,70.21c-.47-.31-.49-.68-.15-1.1.18.35.28.71.15,1.1Z"/>
    <path class="cls-14" d="M28.01,161.3c-.32-.43-.29-.81.19-1.1.11.4,0,.76-.19,1.1Z"/>
    <path class="cls-14" d="M8.47,36.3c.31.43.28.8-.18,1.1-.11-.39,0-.75.18-1.1Z"/>
    <path class="cls-14" d="M8.98,74.9c.49.28.54.65.22,1.09-.07-.36-.14-.73-.22-1.09Z"/>
    <path class="cls-14" d="M28.4,158.75c-.34-.43-.32-.81.17-1.11.12.4.03.76-.17,1.11Z"/>
    <path class="cls-14" d="M41.62,1.62c-.5.05-.94-.05-1.18-.56.46.05.87.19,1.18.56Z"/>
    <path class="cls-14" d="M49.85,10.44c-.52-.2-.66-.62-.64-1.13.39.27.54.69.64,1.13Z"/>
    <path class="cls-14" d="M10.77,83.65c.38.15.48.39.22.73-.07-.24-.15-.49-.22-.73Z"/>
    <path class="cls-14" d="M10.42,82.19c.37.16.47.4.21.74-.07-.25-.14-.49-.21-.74Z"/>
    <path class="cls-14" d="M10.11,80.73c.34.18.42.42.17.73-.06-.24-.11-.49-.17-.73Z"/>
    <path class="cls-14" d="M11.44,80.78c-.36-.17-.45-.41-.18-.74.06.25.12.49.18.74Z"/>
    <path class="cls-14" d="M9.72,78.91c.36.17.44.41.18.74l-.18-.74Z"/>
    <path class="cls-14" d="M26.3,163.87c.26.31.2.55-.14.74.05-.25.1-.49.14-.74Z"/>
    <path class="cls-14" d="M11.05,78.95c-.34-.18-.42-.42-.16-.74.05.25.11.49.16.74Z"/>
    <path class="cls-14" d="M27.3,165.31c-.27-.32-.2-.56.16-.74-.05.25-.11.5-.16.74Z"/>
    <path class="cls-14" d="M26.95,167.13c-.27-.33-.19-.58.19-.74-.06.25-.13.5-.19.74Z"/>
    <path class="cls-14" d="M25.59,167.52c.24.31.17.55-.15.74.05-.25.1-.49.15-.74Z"/>
    <path class="cls-14" d="M26.58,168.95c-.27-.33-.19-.58.19-.74-.06.25-.13.49-.19.74Z"/>
    <path class="cls-14" d="M25.21,169.34c.26.33.17.57-.18.74.06-.25.12-.49.18-.74Z"/>
    <path class="cls-14" d="M26.18,170.77c-.25-.32-.17-.56.18-.74-.06.25-.12.49-.18.74Z"/>
    <path class="cls-14" d="M32.47.41c-.17.37-.41.46-.74.19.25-.06.49-.13.74-.19Z"/>
    <path class="cls-14" d="M25.84,172.23c-.26-.35-.17-.59.22-.74-.07.25-.15.49-.22.74Z"/>
    <path class="cls-14" d="M24.47,172.62c.27.35.16.59-.23.74.08-.25.15-.49.23-.74Z"/>
    <path class="cls-14" d="M24.11,174.08c.26.35.16.59-.23.74.08-.25.15-.49.23-.74Z"/>
    <path class="cls-14" d="M23.74,175.54c.27.35.16.59-.23.74.08-.25.15-.49.23-.74Z"/>
    <path class="cls-14" d="M9.38,77.08c.35.18.42.42.16.74-.05-.25-.11-.49-.16-.74Z"/>
    <path class="cls-14" d="M24.36,178.06c-.25-.35-.15-.58.23-.74-.08.25-.15.49-.23.74Z"/>
    <path class="cls-14" d="M23.04,178.09c.25.35.14.58-.23.73.08-.24.15-.49.23-.73Z"/>
    <path class="cls-14" d="M23.64,180.61c-.25-.36-.14-.59.25-.73-.08.24-.17.49-.25.73Z"/>
    <path class="cls-14" d="M22.31,180.65c.24.36.13.59-.26.73.09-.24.17-.49.26-.73Z"/>
    <path class="cls-14" d="M10.7,77.13c-.35-.18-.42-.43-.16-.74.05.25.11.49.16.74Z"/>
    <path class="cls-14" d="M38.99.62c-.33.25-.57.16-.74-.2.25.07.49.13.74.2Z"/>
    <path class="cls-14" d="M32.42,1.74c.19-.32.43-.39.73-.15l-.73.15Z"/>
    <path class="cls-14" d="M37.56,1.59c.31-.26.56-.18.74.16-.25-.05-.49-.11-.74-.16Z"/>
    <path class="cls-14" d="M39.02,1.94c.37-.24.6-.11.73.28-.24-.09-.49-.19-.73-.28Z"/>
    <path class="cls-14" d="M28.78,2.98c.12-.39.33-.55.72-.32-.24.11-.48.21-.72.32Z"/>
    <path class="cls-14" d="M45.94,6.75c.42.12.64.4.66.84-.35-.18-.56-.47-.66-.84Z"/>
    <path class="cls-14" d="M48.33,10.38c.55.42.37.64-.21.75.07-.25.14-.5.21-.75Z"/>
    <path class="cls-14" d="M54.22,11.7c-.44.1-.8-.01-1.02-.43.41-.01.74.15,1.02.43Z"/>
    <path class="cls-14" d="M10.28,27.91c.25.35.15.59-.24.74.08-.25.16-.49.24-.74Z"/>
    <path class="cls-14" d="M13.19,69.83c.26.31.19.55-.15.74.05-.25.1-.49.15-.74Z"/>
    <path class="cls-14" d="M9.9,29.37c.26.35.16.59-.23.74.08-.25.15-.49.23-.74Z"/>
    <path class="cls-14" d="M9.54,30.83c.26.33.17.57-.19.74.06-.25.13-.49.19-.74Z"/>
    <path class="cls-14" d="M24.81,171.16c.28.35.17.59-.22.74.07-.25.15-.49.22-.74Z"/>
    <path class="cls-14" d="M10.52,32.26c-.25-.32-.17-.56.17-.74-.06.25-.12.49-.17.74Z"/>
    <path class="cls-14" d="M10.15,34.08c-.24-.3-.18-.55.14-.74-.05.25-.1.49-.14.74Z"/>
    <path class="cls-14" d="M8.79,34.47c.27.31.2.56-.15.74.05-.25.1-.5.15-.74Z"/>
    <path class="cls-14" d="M9.81,35.91c-.27-.31-.21-.55.14-.74-.05.25-.09.5-.14.74Z"/>
    <path class="cls-14" d="M37.54,45.07c-.31.27-.55.21-.74-.14.25.05.5.09.74.14Z"/>
    <path class="cls-14" d="M9.15,32.64c.27.33.19.58-.19.74.06-.25.13-.5.19-.74Z"/>
    <path class="cls-14" d="M11.15,85.11c.37.16.47.39.22.73-.07-.24-.15-.49-.22-.73Z"/>
    <path class="cls-3" d="M59.4,114.55c.21-.05.42-.09.63-.14-.21.05-.42.09-.63.14Z"/>
    <path class="cls-1" d="M93.67,334.29c-.13-.19-.26-.39-.39-.58.4.01.48.24.39.58Z"/>
    <polygon class="cls-12" points=".73 186.45 .65 186.53 .75 186.48 .73 186.45"/>
    <polygon class="cls-12" points=".75 186.48 .8 186.37 .73 186.45 .75 186.48"/>
    <path class="cls-11" d="M79.09,182.09c1.02.84,1.15,2.1,1.44,3.24,1.8,7.13,1.5,14.3.23,21.48-3.36,18.91-5.35,37.95-5.18,57.18.01,1.51.12,3.02.19,4.53-.64.25-.6.85-.7,1.37-1.07,5.72-2.17,11.43-3.17,17.16-1.73,9.85-2.9,19.78-3.94,29.72-.32,3.06-.77,6.15-.7,9.21.06,2.84.18,5.69.2,8.54.17,2.86.3,5.69-1.04,8.38-.65,1.3-1.25,1.26-2.04.16-1.85-2.57-1.93-5.7-2.76-8.6-.19-1.98-.32-3.98-.58-5.95-.68-5.09-1.74-10.13-1.96-15.28.59-2.25,1.97-3.51,4.35-3.57.5-.01,1.21.18,1.29-.6.06-.6-.54-.72-.98-.89-1.76-.72-2.67-1.95-2.49-3.92.04-.47.29-1.08-.34-1.45-.86.59-1,1.84-2.09,2.19-.18-3.24-.56-6.47-.49-9.73.07-3.43,0-6.87-.02-10.31,1.77-.13,2.9-.9,2.67-2.85-.1-.89.34-.87.95-.81.69.07,1.34,0,1.78-.64.41-.58,1.03-1.15.74-1.94-.31-.84-1.16-.86-1.85-.75-1.57.25-1.85-.46-1.69-1.82.33-2.63-.58-4.99-1.84-7.23.06-4.7.86-9.33,1.31-14,.4-4.13,1.5-8.16,1.63-12.33,2.08-1.25,2.24-1.99.7-3.19.12-.47.27-.93.35-1.41,3.15-17.09,7.76-33.8,13.56-50.17.69-1.94.89-4.16,2.49-5.73Z"/>
    <path class="cls-8" d="M48.49,265.79c-5.28,2.53-7.56,7.41-6.12,13.22.22.89.4,1.51-.82,1.64-.64.07-1.38.22-1.46,1.09-.08.89.43,1.49,1.11,1.95.96.64,1.95.47,2.95.06.42-.18,1.21-.46.93.36-.48,1.43.57,1.95,1.23,2.74-.04,2.3-.48,4.56-.91,6.81-1.33-1.12-.69-3.19-2.13-4.57-.19,1.43.23,2.53.33,3.65.38,4.32-.03,8.39-3.7,11.39-.39.32-1.16.49-.9,1.16.24.6.95.35,1.47.39,2.03.14,3.82.69,4.72,2.75-.27,4.77-1.12,9.46-1.63,14.2-.42,3.93-1.77,7.8-.91,11.83.37,3.22.91,6.43.41,9.72-.58.18-.46-.8-1.1-.69-.17,1.09-.26,2.23-.55,3.3-.55,2.07-1.39,2.26-2.96.81-.18-.16-.38-.3-.56-.45-2.63-8.81-2.17-17.88-2.3-26.9-.05-3.46.22-6.93.02-10.38-.71-11.81-1.18-23.63-1.37-35.46-.11-6.67-.23-13.35-.34-20.02,5.45-1.36,10.56-1.02,14.96,2.96-.05,2.81-.61,5.6-.36,8.43Z"/>
    <path class="cls-7" d="M33.89,254.4c.11,6.67.23,13.35.34,20.02.19,11.83.66,23.65,1.37,35.46.21,3.45-.07,6.92-.02,10.38.13,9.02-.33,18.1,2.3,26.9-1.6-.18-2.54-1.16-3.21-2.54-1.31-2.7-1.6-5.65-2.2-8.53-.12-.59.14-1.4-.76-1.64-.49-2.46-.97-4.92-1.47-7.38-.3-1.48-.49-3.01-1.42-4.29.34-.96-.31-1.83-.26-2.77.49-1.24.25-2.52.16-3.77-.67-9.55-.87-19.12-.94-28.68-.05-6.12.28-12.23.25-18.35-.02-3.94.59-7.85.28-11.79,1.51-1.66,3.48-2.46,5.58-3.02Z"/>
    <path class="cls-2" d="M84.96,321.05c-1.09,3.83-2.86,7.4-4.19,11.14-.26.73-.72,1.41-.58,2.24-1.79,2.69-3.34,5.7-3.48,8.8-.3,6.51-1.87,12.8-2.55,19.23-.17,1.56-.43,3.11-.65,4.67-.28,0-.56-.01-.84-.02-.83-6.24-1.71-12.47-2.47-18.72-.33-2.71-.18-5.44-.07-8.17,1.01-.1.99-.99,1.12-1.63.82-4.1,1.52-8.21,2-12.36,1.18-10.21,2.36-20.42,3.94-30.59.08-.52-.02-1.14.68-1.35.91,2.58,1.13,5.31,1.71,7.95,1.29,5.86,2.88,11.63,4.97,17.26.19.5.28,1.04.42,1.56Z"/>
    <path class="cls-7" d="M77.86,294.28c-.69.21-.6.83-.68,1.35-1.58,10.16-2.76,20.37-3.94,30.59-.48,4.15-1.18,8.27-2,12.36-.13.64-.11,1.54-1.12,1.63,0-1.07-.04-2.14-.03-3.21q.02-2.64-2.67-2.49c-.03-2.85-.14-5.7-.2-8.54-.07-3.06.38-6.15.7-9.21,1.05-9.94,2.22-19.87,3.94-29.72,1.01-5.73,2.11-11.44,3.17-17.16.1-.52.06-1.13.7-1.37.08,8.64,1.33,17.19,2.11,25.77Z"/>
    <path class="cls-4" d="M78.41,285.2c-.49-2.3-.59-4.64-.78-6.97-.5-6.28-.51-12.58-.41-18.87.02-.97.13-1.93.19-2.9,1.39-1.94,1.38-4.31,1.89-6.49,1.97-8.53,4.16-17,6.49-25.44,3.29-11.97,6.91-23.84,10.85-35.61,2.04-6.09,4.22-12.13,7.02-17.93,2.24-4.65,5.1-8.94,7.58-13.46.13-.24.43-.4.66-.6,0,0-.02-.02-.02-.02-1.33,4.35-2.66,8.69-3.98,13.04-4.64,15.27-9.08,30.6-13.49,45.94-4.62,16.09-8.4,32.38-11.89,48.74-1.32,6.19-2.31,12.46-3.43,18.69-.12.67-.33,1.28-.68,1.86Z"/>
    <path class="cls-4" d="M111.9,156.95c.02-.1.04-.21.06-.31.25.18-.04.2-.09.29,0,0,.02.02.02.02Z"/>
    <path class="cls-10" d="M96.58,144.18c.04-.21-.07-.54.36-.42-.12.14-.24.28-.36.42Z"/>
    <path class="cls-7" d="M25.46,115.47c-.94-2.54-2.17-4.97-2.82-7.61.91-.25,1.02-1.14,1.36-1.81,3.55-7.18,7.22-14.28,12.19-20.62.33-.42.61-1.08,1.24-.73.53.29.21.88.04,1.32-3.87,9.87-7.66,19.78-12.01,29.46Z"/>
    <path class="cls-14" d="M29.6,137.27c-.56-.58-.51-1.19-.12-1.83.24.6.32,1.21.12,1.83Z"/>
    <path class="cls-14" d="M29.27,132.9c-.43-.32-.47-.69-.14-1.11.19.35.27.72.14,1.11Z"/>
    <path class="cls-14" d="M28.89,129.99c-.3-.2-.36-.45-.13-.75.04.25.09.5.13.75Z"/>
    <path class="cls-14" d="M28.53,127.8c-.3-.2-.37-.44-.15-.74.05.25.1.49.15.74Z"/>
    <path class="cls-11" d="M18.97,222.55c2.14-5.1,5.04-9.66,9.73-12.8,6.42-4.3,15.23-3.2,20.16,2.44-.2,3.83.58,7.64.33,11.48-5.3,1.62-8.07,5.1-7.84,10.75.04.94-.27,1.38-1.26,1.14-.23-.06-.48-.08-.72-.09-.9-.05-1.95-.25-2.31.89-.34,1.1.4,1.84,1.22,2.41.44.3.97.47,1.48.67.51.21.83.48.58,1.1-.41,1.02-.55,2.04.51,2.76,1.17.79,2.4.71,3.61.04.31-.17.6-.37,1.05-.66.13,2.45,1.49,3.43,3.66,3.49,0,2.87.27,5.75-.53,8.57-1.86-.49-3.47-1.6-5.37-2.07-3.07-.76-6.11-.5-9.17-.12-.05-.85-.16-1.69-.15-2.54.09-8.56.2-17.12.3-25.68.02-1.52.09-3.03.23-4.54.13-1.31.44-2.7-.21-4.01-.71.25-.7.8-.78,1.25-1.39,7.21-2.84,14.41-3.56,21.72-.53,5.43-.99,10.87-1.48,16.31-5.36,4.08-8.31,9.59-9.49,16.13-.06.31-.16.58-.49.7-.36-.78-.53-1.6-.56-2.46-.08-3.02-.2-6.04-.31-9.06-.38-11.2.2-22.38,1.22-33.54.13-1.41.66-2.84.15-4.29Z"/>
    <path class="cls-11" d="M28.31,257.42c.31,3.94-.3,7.85-.28,11.79.03,6.12-.29,12.23-.25,18.35.07,9.57.27,19.13.94,28.68.09,1.25.33,2.54-.16,3.77-.97-.94-.65-2.37-1.3-3.43-1.73-6.87-3.56-13.72-5.17-20.62-1.65-7.04-2.88-14.15-2.1-21.44.64-5.92,2.33-11.4,6.6-15.8.5-.51.94-1.12,1.71-1.3Z"/>
    <path class="cls-7" d="M28.44,255.07c.49-5.44.94-10.88,1.48-16.31.72-7.32,2.17-14.52,3.56-21.72.09-.45.07-1,.78-1.25.65,1.31.33,2.7.21,4.01-.15,1.52-.22,3.03-.23,4.54-.1,8.56-.21,17.12-.3,25.68,0,.85.1,1.69.15,2.54-1.88.84-3.77,1.67-5.65,2.51Z"/>
    <path class="cls-3" d="M27.27,316.59c.65,1.06.33,2.49,1.3,3.43-.05.94.6,1.81.26,2.77-.91-2-1.56-4.09-2.16-6.2.2,0,.4,0,.6,0Z"/>
    <path class="cls-14" d="M28.36,138.69c.68,2.08.67,4.16,0,6.24-.22-2.08-.22-4.16,0-6.24Z"/>
    <path class="cls-14" d="M27.97,133.22c.43.33.46.7.12,1.11-.2-.35-.26-.72-.12-1.11Z"/>
    <path class="cls-14" d="M27.25,128.11c.3.2.37.44.14.74-.05-.25-.09-.5-.14-.74Z"/>
    <path class="cls-3" d="M62.97,202.1c-1.43,1.39-3.08,1.71-4.74.81-.7-.38-1.14-.51-1.89.05-2.36,1.77-4.33,1.47-5.99-.93-.77-1.11-1.46-.31-2.21-.23-2.11-.08-3.84-.72-4.31-3.06-.18-.91-.83-.87-1.49-.98-2.7-.46-4.11-2.35-3.88-5.15,1.58,2.27,3.69,3.16,6.42,2.44.59-.16.83.16,1.02.72,1.11,3.27,2.75,3.87,5.64,2.13.81,3.36,2.33,3.96,5.43,2.01.71-.45.87.04,1.13.36,1.26,1.6,2.98,1.94,4.87,1.84Z"/>
    <path class="cls-14" d="M39.75,47.09c-.61-.22-1.22-.44-1.83-.65.79-.28,1.39-.04,1.83.65Z"/>
    <path class="cls-14" d="M34.62,46.1c-.37.05-.74.11-1.11.16.31-.5.68-.51,1.11-.16Z"/>
    <path class="cls-14" d="M36.84,46.23c-.37-.04-.74-.09-1.11-.13.42-.35.79-.34,1.11.13Z"/>
    <path class="cls-14" d="M14.17,87.69c.07.37.15.73.22,1.1-.52-.28-.56-.65-.22-1.1Z"/>
    <path class="cls-14" d="M13.83,85.13c.19.35.28.72.15,1.11-.48-.31-.5-.69-.15-1.11Z"/>
    <path class="cls-14" d="M14.55,89.87c.06.25.12.5.18.74-.37-.17-.45-.41-.18-.74Z"/>
    <path class="cls-14" d="M15.14,67.25c-.08.25-.16.49-.24.74-.26-.35-.15-.59.24-.74Z"/>
    <path class="cls-14" d="M14.35,70.52c-.05.25-.11.5-.16.74-.27-.32-.2-.56.16-.74Z"/>
    <path class="cls-14" d="M14.76,68.7c-.07.25-.14.49-.21.74-.27-.34-.18-.58.21-.74Z"/>
    <path class="cls-14" d="M16.64,62.88c-.1.24-.21.49-.31.73-.23-.39-.08-.61.31-.73Z"/>
    <path class="cls-1" d="M59.05,313.22c-.31.28-.61.55-1.18,1.07-.12-3.26.22-6.72-4.32-7.24,1.8-.98,4.25.29,5.25-2.07,1.08-.34,1.22-1.6,2.09-2.19.63.37.39.98.34,1.45-.18,1.97.73,3.2,2.49,3.92.44.18,1.04.3.98.89-.08.78-.79.59-1.29.6-2.39.06-3.77,1.32-4.35,3.57Z"/>
    <path class="cls-1" d="M45.39,293.66c-.31,3.92,3.16,7.99,7.15,8.38.46.04,1.07-.1,1.18.54.07.41-.42.54-.74.69-3.72,1.81-5.14,4.78-4.38,9.17.18,1.03.35,2.06.33,3.14-1.4-2.34-2-5.04-3.75-7.15-.9-2.07-2.69-2.62-4.72-2.75-.52-.04-1.24.21-1.47-.39-.26-.67.51-.84.9-1.16,3.67-3.01,4.08-7.08,3.7-11.39-.1-1.12-.53-2.22-.33-3.65,1.44,1.38.8,3.45,2.13,4.57Z"/>
  </g>
</svg>