<?xml version="1.0" encoding="UTF-8"?>
<svg id="Layer_1" data-name="Layer 1" xmlns="http://www.w3.org/2000/svg" version="1.1" viewBox="0 0 120.48 75.84">
  <defs>
    <style>
      .cls-1 {
        fill: #d7921d;
      }

      .cls-1, .cls-2, .cls-3, .cls-4, .cls-5, .cls-6, .cls-7, .cls-8, .cls-9, .cls-10, .cls-11, .cls-12, .cls-13, .cls-14, .cls-15 {
        stroke-width: 0px;
      }

      .cls-2 {
        fill: #722185;
      }

      .cls-3 {
        fill: #e2a61f;
      }

      .cls-4 {
        fill: #7b2d7d;
      }

      .cls-5 {
        fill: #702086;
      }

      .cls-6 {
        fill: #843774;
      }

      .cls-7 {
        fill: #ce8918;
      }

      .cls-8 {
        fill: #772983;
      }

      .cls-9 {
        fill: #dd9814;
      }

      .cls-10 {
        fill: #712086;
      }

      .cls-11 {
        fill: #833c8d;
      }

      .cls-12 {
        fill: #d08b17;
      }

      .cls-13 {
        fill: #782b89;
      }

      .cls-14 {
        fill: #fcc303;
      }

      .cls-15 {
        fill: #742584;
      }
    </style>
  </defs>
  <path class="cls-14" d="M40.52,56.93c-.23,0-.45,0-.68,0,0-.16,0-.32-.01-.47.73-1.56,1.62-3.05,2.02-4.75.11-.47.26-.9.1-1.35-.57-.29-1.09-.56-1.62-.83,0-.68.04-1.36-.02-2.03-.05-.64.25-1.36-.39-2.14-.06,1.52-.44,2.75-.77,4-.06.27-.11.54-.17.81-.5,2.24-1.11,4.46-1.05,6.78-1.72,2.17-4.5,3.01-7.08,2.12-1.14-.39-2.18-.97-3.16-1.68-.68-.49-1.37-.95-2.07-1.43-.56.38-.86.9-1.23,1.36-.32.39-.61.95-1.23.73-.61-.21-.56-.8-.56-1.32,0-.16-.02-.32-.04-.48.44-.68.22-1.38.14-2.1-.87.26-1.05.96-.6,2.14-.44.45-.88.91-1.33,1.36-.24.24-.54.35-.87.23-.35-.13-.44-.43-.44-.77,0-.56,0-1.11,0-1.67,0-.47,0-.95-.02-1.42,0-.22-.11-.39-.35-.39-.23,0-.36.16-.36.38,0,.51.01,1.03.02,1.54-.5.57-1.18.94-1.62,1.58-.22.32-.49.68-.97.57-.58-.13-.5-.63-.54-1.06.27-1.69,1.12-3.04,2.41-4.16.44-.38.91-.76,1.2-1.28,1.03-.27,1.99-.88,3.13-.72,1.24-.04,2.41.18,3.56.68.52.23,1.02.63,1.66.55.7.78,1.66,1.15,2.75,1.74-.22-1.39-.41-2.61-.61-3.87-1.06.19-2.03.29-3.02.22-.29-.14-.33-.47-.51-.7,1.13-.13,2.31.05,3.39-.45.09-.58.04-3.72-.08-4.13-1.7.49-3.46.5-5.22.47-.34-.14-.53-.38-.5-.76,1.93.08,3.84,0,5.67-.56.28-.47.03-.91.12-1.33.24-1.57.76-3.1.92-4.9-.71.38-.8.84-.98,1.27-.21.5-.18,1.11-.68,1.47-.11-.21-.25-.41-.34-.63-.23-.55-.6-.72-1.12-.42-1.49.86-3.14,1.02-4.81,1.05-.21-.22-.84-.24-.38-.78,1.65.16,3.21-.39,4.79-.72.37-.08.8-.47.56-1.01-.41-.92-.86-1.83-1.33-2.81-1.55.8-3.09,1.37-4.79,1.27-.1-.16-.3-.29-.22-.53,1.48-.02,2.85-.44,4.16-1.13.34-.18.7-.35.61-.76-.23-1.06-.42-2.14-1.04-2.99-1.65.53-3.07,1.49-4.81,1.31-.21-.24-.25-.54-.29-.84.48-.02.99.06,1.43-.08,1.26-.38,2.97-.02,3.37-1.91,0-.02.07-.04.1-.06.52-.28.44-.68.25-1.13-.18-.44-.34-.89-.53-1.4.68-.18,1.12-.58,1.07-1.33.37,0,.64.02.92,0,.68-.05,1.36-.11,1.98-.41,1.12-.53,1.21-1.31.26-2.09-.52-.43-1.07-.83-1.59-1.26-.4-.33-.77-.7-1.15-1.04-.16-.14-.37-.21-.54-.07-.24.18-.19.44-.02.63.38.41.79.79,1.17,1.2.54.58,1.31.9,1.81,1.57-1.46,1.08-2.99.27-4.45.19-.06.57.4.83.33,1.29-.24.19-.64-.03-.88.32-.18.91.53,1.66.65,2.52-1.06.72-2.01.03-2.92-.17-.32.3-.09.81-.54.95q-1.61-.59-2.29.45c-1.87.78-1.94.77-2.72-1.08-.21-.48-.48-.79-1.01-.89-.86-.16-1.71-.4-2.57-.56-2.33-.43-4.4-1.41-6.25-2.86-.35-.27-.7-.48-1.17-.54-1.82-.21-2.24-.59-2.69-2.34-.06-.23-.07-.47-.11-.7,1.38-.24,2.6-.1,3.8.85,1.47,1.16,3.17,2,5.01,2.47.8.21,1.61.47,2.46.28.91-.21,1.01-.4.77-1.43-.15-.06-.33-.1-.45.02-.76.74-1.65.48-2.48.26-1.24-.33-2.4-.86-3.5-1.52-.75-.45-1.48-.95-2.23-1.39-1.28-.74-2.88-.68-3.76.11-.59.29-.93-.16-1.33-.43v-1.68c.47-.36.36-.93.45-1.4.1-.51.23-1,.38-1.5.21-.71.64-1.2,1.27-1.63,1.73-1.18,3.4-2.46,5.17-3.59.24-.16.44-.35.84-.15.48,1-1.08,1.69-.57,2.8.92.47,1.93.84,2.93,1.2.58.21,1.05.11,1.57-.2,1.44-.87,2.99-1.47,4.57-2.05.55-.21,1.19,0,1.67-.42.29.28.66.18,1,.26,1.07.24,2.21.07,3.24.55,0,.17-.03.31-.2.39-.81.43-1,1.15-.98,2.01.03,1.19.68,2.04,1.56,2.67,1.06.76,2.25,1.24,3.52.34.38-.27.8-.32,1.24-.09.3.16.62.08.94.06.41.81.57,1.69.66,2.59.15,1.45.39,2.85,1.18,4.15.49.8,1.16,1.5,1.51,2.38-.35.14-.45.47-.51.76-.5,2.45-.47,4.87.49,7.22.06.15.18.26.44.31-.16-.87-.37-1.7-.45-2.54-.16-1.63.34-3.11,1.19-4.48.68-.27,1.26-.79,2.02-.86,2.15.1,4.29.27,6.17,1.48-.88.15-1.71.01-2.4-.45-.24.15-.24.32-.3.46-.45,1.1-.87,1.22-1.9.62-.28-.17-.41-.61-.87-.47-.25.5-.03.86.35,1.14.39.3.82.46,1.33.43.68-.04,1.29.03,1.86.55.42.37,1.08.47,1.7.39.87-.11,1.02-.41.69-1.35-1.27.68-1.94.57-2.63-.47.55-.01,1.03.19,1.53.17.61-.03.87-.3.84-.89.54.28,1.08.56,1.63.83.49.34.99.68,1.48,1.02-.51.54-.95.08-1.38-.13-.32-.16-.56-.52-1.02-.43.42,1.09,1.08,1.54,2.04,1.52.59-.01.64-.34.61-.77.39.11.76.35,1.19.31,0,.21.09.35.28.47.79.49,1.7.6,2.58.68,1.45.13,1.77-.17,2.15-1.7.55-.81.21-1.7.24-2.56-.4-1.4-.56-2.85-.89-4.26-.8-3.45-2.01-6.73-3.57-9.88-1.46-2.95-3.31-5.66-5.78-7.89-.37-1.08-1.31-1.36-2.27-1.45-1.4-.13-2.53.48-3.48,1.53-.48-.88.02-1.6.52-2.25.59-.76,1.46-1.18,2.41-1.14,1.07.05,2.03-.2,3.01-.54,1.55-.54,3.19-.73,4.81-.9,2.98-.31,5.98-.39,8.98-.28,10.33.38,20.24,2.5,29.56,7.06,1.9.93,3.66,2.12,5.45,3.24,3.99,2.5,7.97,5.03,11.7,7.9,1.52,1.17,2.98,2.42,4.35,3.76,2.76,2.72,5.51,5.45,8.22,8.22,1.56,1.6,2.84,3.44,4.18,5.23.23.31.36.69.59,1.13-.54.07-.89-.22-1.28-.29.04-.21,0-.36-.26-.37h.01c-.19-.59-.73-.87-1.18-1.23-.36-.37-.69-.77-1.07-1.12-1.69-1.53-3.4-3.02-5.08-4.56-3.32-3.06-6.74-5.99-10.36-8.7-8.98-6.73-18.7-12.04-29.52-15.21-3.67-1.08-7.4-1.98-11.24-2.17-3-.15-6-.08-9-.03-.48,0-.95.03-1.36.4.33.06.65.09.95.17,7.01,1.9,13.88,4.22,20.5,7.22,8.13,3.67,15.54,8.49,22.39,14.18,3.9,3.24,7.31,6.9,10.04,11.18-.02.21.13.48-.23.56-.34-.06-.5-.5-.9-.45l-.29.02h.02c.03-.19-.05-.28-.26-.24h.01c.05-.33-.25-.46-.44-.65-.93-.93-1.86-1.86-2.81-2.77-4.28-4.08-8.72-7.97-13.57-11.38-9.41-6.62-19.85-11-30.79-14.3-.34-.1-.66-.17-1.02,0,.39.25.76.47,1.12.71,3,1.94,5.75,4.18,8.36,6.6,3.3,3.08,6.53,6.23,9.28,9.83,2.06,2.69,3.69,5.66,5.47,8.54-.1.11-.2.21-.31.32-.76-.63-1.44-1.34-2.08-2.11-4.54-5.41-9.15-10.75-14.43-15.48-3.43-3.07-7.1-5.8-11.14-8.02-.35-.19-.68-.52-1.23-.4.16.27.28.48.4.68,1.79,2.83,3.45,5.72,4.61,8.88,1.56,4.25,2.36,8.65,2.69,13.15.07.95.15,1.92-.19,2.84-.25.68-.07,1.22.37,1.75.68.83,1.32,1.7,1.98,2.55,1.15,1.49,2.38,2.89,3.7,4.23.37.38.74.74,1.29.4.12-.27.09-.51.03-.74-.38-1.3-.63-2.63-.76-3.98-.21-2.22-.34-4.45.38-6.62.25,0,.49-.01.74-.02.73.3,1.49.54,2.19.9,4.33,2.22,7.81,5.42,10.78,9.22,1.04,1.33,1.85,2.84,2.3,4.42.86,3.04,1.56,6.13,1.87,9.3.41,4.14-.14,8.09-2.05,11.81-1.13,2.21-2.7,4.02-5.05,5.03-.2-.56-.94-.58-1.19-1.17.38-.63.9-.52,1.45-.33.71.25.92-.19,1.23-.73-.56-.11-.91.32-1.3-.06-.35-.34.02-.88-.37-1.19q-.67.43-.89,1.27c-.51.12-1.21.17-1.27.82-.06.67.5,1.02,1.1,1.2.3.09.28.35.36.56-.29.28-.65.38-1.04.36-.33-.37-.43-.14-.49.18-.79.26-1.56.64-2.42.5-1.68-.26-3.37-.43-5.03-.87-2.02-.54-4.03-1.14-6.1-1.52-.29-.36-.72-.14-1.07-.24-.56-.43-1.11-.86-1.84-.95-.13-.23-.37-.18-.57-.22-.16-.79-.79-.33-1.2-.46-.4-.1-.76-.31-1.19-.29-.16-.08-.33-.17-.49-.25-.19-.32-.45-.48-.83-.33-.55-.03-1.06-.19-1.58-.36-.11-.21-.3-.21-.5-.19-1.9-.48-3.76-1.15-5.74-1.29-.07-.11-.15-.13-.24-.03-1.31.09-2.54.42-3.77.89-1.02.39-1.92.99-2.91,1.41-.39-.17-.26-.51-.27-.81.33.16.57-.03.87-.15.79-.32,1.33-1.12,2.26-1.16.6-.02,1.12-.29,1.64-.55.18-.09.35-.17.53-.26.91.3,1.69-.05,2.47-.46.02-.01-.02-.14-.04-.22.15-.01.3-.02.45-.03.16.22.3.48.64.47.71-.02,1.42.11,2.17-.04-.23-.72-.51-1.37-.61-2.07.22.02.45.05.67.07,0,.61.27,1.14.46,1.69.1.31.28.6.61.66,1,.19,1.94.63,2.97.67.33.51.75.6,1.24.23,1.15,1.03,2.66,1.05,4.04,1.43.43.62.85-.1,1.27-.01.39.3.82.46,1.31.51.99.09,1.97.2,2.96.3.48.48.57-.31.91-.27.45.23.89.34,1.44.31,1.06-.07,2.1-.2,3.15-.32.34.05.55-.21.82-.33,1.51.11,2.74-.63,3.97-1.35.36-.13.21-.44.25-.69.4,0,.74-.1,1.03-.43.59-.67,1.2-1.32,1.41-2.23.78-.67.81-1,.16-1.73.66-.27.89-.82.94-1.48.09-1.13.06-2.27-.01-3.4.09-.41.02-.66-.47-.42-.24.12-.37,0-.47-.2,1.02-1.35.05-2.49-.41-3.72-.46,1.71-1.58,2.95-2.67,4.2-1.26.55-2.48,1.21-3.77,1.72-1.54.61-3.1.51-4.69.38-1.88-.15-3.61-.86-5.42-1.31-.44-.59-.88-1.19-1.42-1.92v1.94c-.26-.01-.52-.02-.79-.04.04-1.72-.02-3.42-.63-5.06-.12-.33-.12-.7-.18-1.06-.41-2.41.03-4.82.08-7.19-.71-.2-.81.26-.89.55-.26.9-.54,1.81-.54,2.77,0,1.31-.02,2.62-.02,3.93-.6.13-1.26-.1-1.85.21.36,2.03.3,4.01.12,5.99-.28.08-.55.08-.83.01,0-.06-.02-.11-.05-.16.38-1.97.3-3.92-.13-5.9-.93-.1-1.77,0-2.69.24.12,1.93-.2,3.8-.57,5.66-.04.06-.07.12-.08.19-.31.04-.61.06-.9-.07.5-1.92.95-3.83.68-5.84-1-.32-1.96-.21-2.99-.3.03.65-.41,1.01-.59,1.55-.52,1.59-1.25,3.12-1.9,4.67ZM33.6,45.47c.66.07,1.3.02,1.69-.61.25-.4.54-.57,1.04-.62.73-.07.9-.52.66-1.34-.4-.01-.59.6-1.12.31-.34-.59.11-1.36-.26-2.01-.58-.11-.81.34-1.11.62-.41.39-.84.34-1.26.21-.18-.38-.1-.7-.12-1.01-.02-.32.04-.62.17-.93.11-.26-.09-.47-.33-.54-.22-.06-.37.1-.48.28-.5.81-.43,2.13.2,2.9.26.32.5.62.44,1.05-.1.64.2,1.16.49,1.68-.39-.13-.73.27-1.1.13-.25-.42.07-.92-.27-1.26-.22-.09-.42-.07-.56.09-.44.49-.24,1.79.31,2.14.41.25,1.08.11,1.34-.33.14-.23.3-.47.27-.77ZM61.38,42.65c-1.18-.7-2.01-1.47-2.85-2.23-1.84-1.65-3.77-3.18-5.73-4.68-.33-.26-.71-.41-1.12-.27-1.52.5-3,.09-4.48-.18-1.93-.35-3.72-1.14-5.58-1.72-.76-.24-1.5-.52-2.31-.6-.56-.05-1.02.12-1.43.46-.61.52-1.01,3.31-.57,3.97.11.16.28.28.44.4.73.62,1.44,1.26,2.2,1.84,1.46,1.11,2.97,2.15,4.65,2.91.47.21,1,.55,1.51.03-.76-1.31-.4-1.92,1.05-1.95,1.22-.02,2.37.34,3.51.66,3.04.85,6.14,1.34,9.3,1.5.38.02.77.07,1.41-.15ZM56.95,46.01c-.21-.06-.43-.05-.5.18-.33,1.01.83,3.08,1.85,3.07.94-.01,1.57.3,2.09,1,.07.09.18.15.29.21.88.52,1.69.09,1.74-.92.02-.43,0-.86,0-1.28.3-.04.41.15.55.28.18.16.33.35.52.5.68.53,1.77.29,2.02-.43.27-.76-.08-1.55-.88-2-.17.62.15,1.32-.25,2-.81-.66-1.56-1.17-1.52-2.33.02-.53-.31-1.13-1.15-1.28,0,.72.48,1.36.1,2.06-1.36.45-1.21-1.3-2.1-1.57-.32.93-.86,1.73-.66,2.83-1.72,0-1.61-1.43-2.1-2.32ZM17.06,19.75c-1.1.19-1.56-.75-2.31-1.27.06.7.06.71.18.83,1.02,1.02,2.25,1.62,3.66,1.87,1.68.29,2.25-.31,1.83-1.96-.02-.08-.02-.16-.04-.24-.73-2.38-3.68-3.45-5.61-2.03-.24.18-.46.35-.11.78.85-.27,1.76-.77,2.82-.41-.59.76-.39,1.62-.43,2.43ZM73.06,41.92c1.15.17,1.49,0,1.6-.72.14-.9-.02-1.26-.6-1.36-.3.37.08.95-.33,1.29-.68-.21-.88-.98-1.77-1.07.63,1.1.77,2.25.71,3.4-.57.24-.79-.17-1.07-.43-.28-.26-.53-.62-.99-.25.22.82.73,1.34,1.46,1.64.41.16.89.24,1.22-.15.31-.37.54-.81.33-1.32-.14-.32-.34-.63-.56-1.03ZM22.5,21.08c-.71,1.21-.71,1.22-1.84.81-.6-.22-.96.04-1.29.51-.52.74-.65.75-1.38.19-.17-.13-.3-.41-.6-.22.12,1.25.72,1.54,2.41,1.15,1.08.91,1.42,1.03,2.09.74.41-.18.82-.37.57-.95-2.08.38-2.45.24-2.45-.94.35.18.68.45,1.05.53.53.11,1.18.3,1.57-.2.36-.45.29-1.03-.13-1.63ZM3.64,14.97c.97.28,1.9.67,2.81,1.11.36.17.73.2.92-.21.2-.41-.11-.68-.42-.87-.81-.49-1.74-.48-2.64-.53-.22-.01-.56.09-.67.5ZM77.11,44.32c-.67.13-.4.75-.61,1.02-.98-.09-.91-1.04-1.36-1.54-.62.77-.57,1.21.15,1.94.52.53,1.07.62,1.58.27.7-.48.75-.8.24-1.68ZM66.65,71.51c-.24-.54-.96-.53-1.07-1.18-.03-.22.53-.23.26-.71-.12-.21-.44-.2-.76-.2-.3,0-.56.09-.68.37-.13.3-.13.64.14.88.59.51,1.2.99,2.11.85ZM32.53,35.04s-.08.05-.08.07c.01.07.04.13.07.2.03-.02.09-.05.08-.07-.01-.07-.04-.13-.07-.2Z"/>
  <path class="cls-5" d="M102.71,36.5c-2.73-4.28-6.14-7.94-10.04-11.18-6.85-5.69-14.26-10.51-22.39-14.18-6.63-2.99-13.49-5.32-20.5-7.22-.3-.08-.62-.11-.95-.17.4-.37.88-.39,1.36-.4,3-.05,6-.12,9,.03,3.84.19,7.56,1.09,11.24,2.17,10.82,3.17,20.54,8.47,29.52,15.21,3.61,2.71,7.04,5.64,10.36,8.7,1.67,1.54,3.39,3.04,5.08,4.56.38.35.72.74,1.07,1.12-.09.17-.17.33-.26.5-1.28-.52-2.49-1.22-3.8-1.67-.57-.2-1.14-.33-1.75-.22-1.44-.85-2.95-.64-4.44-.26-.96.24-1.63.89-2.03,1.81-.37.52-.4,1.1-.31,1.71.05.3.22.63-.18.84-.54-.3-.32-1.15-.98-1.36Z"/>
  <path class="cls-10" d="M76.64,32.95c-1.77-2.88-3.41-5.85-5.47-8.54-2.75-3.6-5.98-6.75-9.28-9.83-2.6-2.42-5.36-4.66-8.36-6.6-.36-.23-.73-.46-1.12-.71.36-.17.69-.1,1.02,0,10.95,3.31,21.39,7.69,30.79,14.3,4.85,3.41,9.29,7.3,13.57,11.38.95.91,1.88,1.84,2.81,2.77.18.18.48.32.44.66-.62.22-.88-.51-1.41-.53-1.3-1.11-2.78-1.97-4.24-2.85-3.1-1.88-6.29-3.58-9.79-4.6-1.3-.38-2.61-.74-3.98-.63-2.28.17-3.57,1.09-4.04,3.03-.12.49-.06,1.03-.1,1.54-.03.55-.27.82-.85.6Z"/>
  <path class="cls-13" d="M56.77,70.08c2.06.38,4.07.98,6.1,1.52,1.65.44,3.35.61,5.03.87.85.13,1.63-.24,2.42-.5.22.08.38.03.49-.18.39.02.75-.09,1.04-.36.31-.09.71.02.87-.39,2.35-1.01,3.92-2.82,5.05-5.03,1.91-3.72,2.46-7.66,2.05-11.81-.31-3.17-1.02-6.26-1.87-9.3-.45-1.58-1.25-3.09-2.3-4.42-2.97-3.8-6.45-7-10.78-9.22-.7-.36-1.46-.6-2.19-.9-.03-.45.31-.73.54-1.04.86-1.16,1.46-1.09,2.11.19.03.06.12.09.14.11,1.26.22,2.91-.63,3.31,1.45.29.03.57.02.84.08.31.07.62.18.9.32,1.02.52,1.12.98.46,1.93,1.53.19,1.94.38,2.67,1.27-.05.19-.1.38-.16.62,1.13.7,3.03.7,2.74,2.86.64.3,1.39.46,1.97.97.72.63.79,1.05.27,1.94.28.36.75.44,1.1.7.63.46,1.25.9.96,1.84-.08.28.04.54.31.71.16.11.31.25.44.4.82,1.01,1.28,1.64-.02,3.29.16.44.49.78.74,1.18.58.93.86,1.92.04,2.86-.39.45-.18.77.02,1.18.46.94.7,1.88-.14,2.76-.3.32-.15.7-.05,1.02.35,1.07.15,1.96-.78,2.67.14.44.3.84.39,1.26.18.83.07,1.65-.64,2.16-.47.34-.54.75-.6,1.21-.12.87-.26,1.72-.93,2.4-.32.32-.29.81-.38,1.24-.21.99-.59,1.84-1.72,2.04-.33.06-.45.29-.59.53-.16.28-.35.59-.65.68-1.56.44-2.81,1.7-4.41,1.9-1.92.25-3.89.77-5.83-.03-.31-.13-.71-.04-1.06-.04-.44,0-.89.02-1.28-.19-.43-.24-.83-.42-1.35-.18-.19.09-.52.07-.7-.04-1.39-.87-3.2-.73-4.46-1.89-.3-.3-.86-.38-1.43-.18-.35.06-.66-.12-.85-.35-.42-.5-.97-.64-1.56-.73-.28-.48-.61-.38-.96-.08-.6.02-.86-.44-1.2-.81,0-.22,0-.44,0-.67.43-.02.79.19,1.19.29,0,.15.1.22.23.27-.04.14-.16.27-.06.41h1.6c.73.08,1.29.52,1.84.95.26.51.7.21,1.07.24Z"/>
  <path class="cls-7" d="M73.65,34.69c-.73-.89-1.14-1.08-2.67-1.27.65-.96.55-1.42-.46-1.93-.28-.14-.59-.25-.9-.32-.27-.06-.55-.06-.84-.08-.4-2.08-2.05-1.24-3.31-1.45-.02-.01-.11-.04-.14-.11-.66-1.29-1.25-1.35-2.11-.19-.23.3-.57.58-.54,1.04-.25,0-.49.01-.74.02.83-2.56,2.35-2.83,4.02-2.6.54.08,1.08.26,1.59.47,2.11.86,3.97,2.13,5.77,3.51.75.57,1.41,1.29,2.34,1.6.25.08.52.31.68-.11.1-.11.2-.21.31-.32.58.22.82-.05.85-.6.03-.51-.02-1.05.1-1.54.48-1.94,1.76-2.86,4.04-3.03,1.36-.1,2.68.25,3.98.63,3.51,1.02,6.69,2.72,9.79,4.6,1.46.88,2.94,1.74,4.24,2.85-.62,1.26-1.06,2.54-.82,3.99.11.64.16,1.34-.24,1.95-.5-.22-.73-.65-.97-1.06-1.04-1.78-2.39-3.34-4.05-4.49-2.55-1.77-5.27-3.29-8.48-3.63-2.23-.24-3.86.67-4.98,2.55-.32.53-.28,1.15-.39,1.73-.09.46-.07.95-.42,1.48-1.7-1.52-3.65-2.63-5.63-3.69Z"/>
  <path class="cls-12" d="M41.11,5.51c2.47,2.24,4.31,4.95,5.78,7.89,1.56,3.15,2.78,6.43,3.57,9.88.33,1.42.49,2.87.89,4.26-.54-.23-.8.43-1.28.4-.48-.98-.76-1.1-1.72-.71-.25.1-.5.21-.76.32-.87-5.64-2.8-10.92-5.59-15.89-.51-.9-1.08-1.77-1.63-2.65-.94-1.5-2.96-1.57-4.05-.14-.05.06-.13.09-.2.13-.35.02-.54-.18-.52-.5.14-1.96,2.49-3.67,4.4-3.22.24.06.43.18.62.34.19.17.36.07.48-.13Z"/>
  <path class="cls-1" d="M19.23,51.2c-.29.53-.76.9-1.2,1.28-1.29,1.12-2.13,2.47-2.41,4.16-.97.09-1.43-.49-1.72-1.3-.19-.71.39-1.4.09-2.19-.59.26-.69.74-.75,1.19-.07.54-.03,1.1-.04,1.65-.13.39-.45.63-.74.89-.32.28-.68.55-1.16.39-.56-.18-.61-.65-.58-1.14.09-.95.18-1.9.27-2.86-.92.79-1.11,1.79-1.12,2.86-.6.65-1.24,1.24-2.18,1.29-.93.05-1.35-.46-1.04-1.34.77-2.24,2.17-4.03,4.1-5.4.81-.58,1.74-.72,2.72-.69,2,.06,3.93.41,5.76,1.22Z"/>
  <path class="cls-12" d="M104.17,35.31c.39-.92,1.07-1.57,2.03-1.81,1.49-.38,3.01-.59,4.44.26,2.49,2.18,4.64,4.67,6.52,7.39.47.69.44.71.39,1.58-.61,0-1-.42-1.41-.75-1.93-1.53-3.83-3.12-6-4.32-1.88-1.05-3.91-1.74-5.97-2.35Z"/>
  <path class="cls-13" d="M31.98,26.31c-.35-.89-1.02-1.58-1.51-2.38-.8-1.3-1.04-2.7-1.18-4.15-.09-.9-.25-1.77-.66-2.59.04-.59-.55-1-.48-1.6.13-.02.26-.04.39-.06.18,0,.41.05.45-.21.03-.18-.14-.24-.29-.27-.79-1.32-1.11-2.76-1.15-4.27,0-.08.02-.17.03-.25.31,0,.62,0,.92,0-.03.15-.05.31-.08.46-.16.04-.33.1-.27.3.02.08.17.14.26.2.08,1.28.71,2.39,1.15,3.56-.01.14.06.22.19.27.83.25,1.46.79,1.98,1.45.64.82.46,1.33-.55,1.64-.08.02-.16.02-.23.05-.07.03-.12.08-.27.18.44.4.88.77,1.29,1.18.92.94.91,1.57-.04,2.46.69.81,2.25,1.17,1.46,2.77.67.48,1.53.77,1.78,1.67-.77.07-1.34.59-2.02.86-.33-.47-.66-.94-1.16-1.27Z"/>
  <path class="cls-1" d="M26.18,49.11c.18.23.22.56.51.7-.13.83.72,1.21.89,1.9-.64.08-1.14-.33-1.66-.55-1.15-.5-2.32-.72-3.56-.68.11-.51-.17-.93-.33-1.37-.92-2.57-1.48-5.2-1.34-7.94.06-1.1.08-2.25,1.05-3.05.14.43.29.86.43,1.29-.46.54.16.56.38.78.08,1.45.81,2.7,1.22,4.05-.03.38.15.62.5.76.33,1.51.9,2.91,1.91,4.1Z"/>
  <path class="cls-4" d="M18.24,29.37q.68-1.05,2.29-.45c.45-.14.22-.65.54-.95.91.2,1.86.89,2.92.17-.12-.86-.83-1.61-.65-2.52.24-.35.64-.13.88-.32.07-.45-.39-.72-.33-1.29,1.45.09,2.99.89,4.45-.19-.5-.68-1.27-1-1.81-1.57-.38-.41-.79-.79-1.17-1.2-.17-.19-.22-.45.02-.63.18-.14.38-.07.54.07.39.34.76.71,1.15,1.04.52.43,1.07.83,1.59,1.26.95.78.85,1.56-.26,2.09-.62.3-1.3.35-1.98.41-.28.02-.55,0-.92,0,.04.75-.39,1.15-1.07,1.33.19.52.35.97.53,1.4.19.44.26.85-.25,1.13-.04.02-.1.03-.1.06-.41,1.89-2.12,1.52-3.37,1.91-.44.14-.95.06-1.43.08-.44-.26-.59-.74-.76-1.14-.17-.42-.83-.16-.8-.7Z"/>
  <path class="cls-15" d="M40.52,56.93c.65-1.55,1.38-3.08,1.9-4.67.17-.53.62-.9.59-1.55,1.03.09,1.98-.02,2.99.3.28,2.01-.18,3.92-.68,5.84-1.6.16-3.2.12-4.8.08Z"/>
  <path class="cls-15" d="M50.57,56.87c.18-1.98.25-3.96-.12-5.99.6-.31,1.25-.07,1.85-.21.46.12.9-.32,1.37-.06.06.35.06.73.18,1.06.61,1.64.67,3.34.63,5.06-1.31.01-2.61.22-3.92.14Z"/>
  <path class="cls-15" d="M47.59,27.57c.25-.11.5-.22.76-.32.96-.39,1.24-.28,1.72.71.47.02.74-.64,1.28-.4-.03.86.31,1.75-.24,2.56-1.52-.06-3.01.32-4.52.3-.2,0-.4.03-.49.25-.43.04-.8-.19-1.19-.31-.02-.14-.12-.19-.25-.18-.49-.34-.99-.68-1.48-1.02.39-.59,1-.9,1.57-1.26.8-.5,1.6-.71,2.26.15.31-.11.47-.28.6-.48Z"/>
  <path class="cls-15" d="M37.94,56.95c-.07-2.32.55-4.54,1.05-6.78.06-.27.11-.54.17-.81.43-.21.79.09,1.18.17.53.27,1.06.54,1.62.83.15.45,0,.88-.1,1.35-.41,1.7-1.29,3.19-2.02,4.75-.21.09-.25.29-.32.47-.52.1-1.05.04-1.57.02Z"/>
  <path class="cls-13" d="M22.53,11.81c-1.03-.48-2.17-.31-3.24-.55-.34-.08-.71.02-1-.26.13-.32.25-.65.4-.97.15-.33.33-.66.76-.66.45,0,.57.36.67.71.04.14,0,.3.21.42.28-.47.46-1.01.89-1.38.39-.34.75-.75,1.34-.58.61.18.42.78.57,1.21.4.18.61-.35.98-.24.27.47.69.58,1.2.56.64-.02,1.04.29,1.13.95-.56.28-1.12.56-1.74.87.11,1.58.9,2.87,1.75,4.13-.02.31-.12.56-.51.47-.96-1.07-1.5-2.36-1.85-3.72-.12-.48-.24-.82-.8-.8-.2-.33-.48-.2-.76-.15Z"/>
  <path class="cls-15" d="M20.09,32.05c1.75.18,3.16-.79,4.81-1.31.62.85.81,1.94,1.04,2.99.09.41-.27.58-.61.76-1.31.68-2.68,1.1-4.16,1.13-.36-1.19-.72-2.38-1.09-3.56Z"/>
  <path class="cls-15" d="M22.17,39.42c-.14-.43-.29-.86-.43-1.29.17-.71-.42-1.29-.34-1.98,1.7.1,3.24-.46,4.79-1.27.47.98.92,1.89,1.33,2.81.24.54-.19.93-.56,1.01-1.58.32-3.13.88-4.79.72Z"/>
  <path class="cls-15" d="M46.3,56.73c.37-1.86.69-3.73.57-5.66.92-.24,1.77-.34,2.69-.24.43,1.98.51,3.93.13,5.9-.08.06-.15.11-.23.17-.97.08-1.94.08-2.9.02-.04-.12-.13-.18-.26-.19Z"/>
  <path class="cls-11" d="M50.9,67.92c0,.22,0,.44,0,.67-.79.07-1.6.24-2.2-.51-.06-.08-.23-.14-.32-.12-1.17.29-2.01-.48-2.95-.91-.28-.13-.51-.14-.79-.09-.44.09-.82-.11-1.23-.22-.79-.2-1.63-.43-2.48-.22-.15.04-.31.17-.45.14-1.75-.35-3.1.65-4.52,1.36-.39.19-.76.19-1.15.22,0-.16.02-.31.03-.47.99-.43,1.89-1.02,2.91-1.41,1.23-.47,2.46-.8,3.77-.89l.24.03c1.98.15,3.84.82,5.74,1.29.11.2.29.24.5.19.51.17,1.03.33,1.58.36.22.24.47.43.83.33.16.08.33.17.49.25Z"/>
  <path class="cls-6" d="M1.33,20.06c.88-.79,2.48-.85,3.76-.11.76.44,1.48.94,2.23,1.39,1.1.66,2.26,1.2,3.5,1.52.83.22,1.72.48,2.48-.26.12-.12.3-.08.45-.02.24,1.03.14,1.22-.77,1.43-.85.2-1.66-.07-2.46-.28-1.84-.47-3.55-1.32-5.01-2.47-1.2-.95-2.41-1.09-3.8-.85-.13-.12-.25-.24-.38-.36Z"/>
  <path class="cls-14" d="M28.42,11c.03-.15.05-.31.08-.46.02-.15.04-.3.06-.45,1.44-.13,2.59.47,3.58,1.45-.98,1.03-1,2.31-.92,3.62-.5-.01-.99-.02-1.49-.04-.05-.03-.11-.05-.18-.05-.44-1.17-1.07-2.28-1.15-3.56.11-.16.11-.33.01-.5Z"/>
  <path class="cls-8" d="M74.59,56.1c.07,1.13.1,2.27.01,3.4-.05.67-.28,1.21-.94,1.48-.85.16-1.71.32-2.56.47.07-.93.15-1.86.22-2.78,1.07-.53,1.92-1.31,2.63-2.27.16-.22.3-.48.65-.31Z"/>
  <path class="cls-8" d="M73.5,62.72c-.22.9-.82,1.55-1.41,2.23-.29.33-.63.43-1.03.43-.9-.2-1.81-.4-2.71-.61,1-.71,1.86-1.55,2.49-2.61.86,0,1.73-.37,2.59-.05.03.24.05.43.08.62Z"/>
  <path class="cls-4" d="M39.35,65.1c-.52.26-1.05.53-1.64.55-.94.04-1.47.84-2.26,1.16-.3.12-.54.31-.87.15-.27-.32-.53-.64-.8-.96,1.34-1.36,2.93-2.28,4.77-2.79.07.71.57,1.24.81,1.88Z"/>
  <path class="cls-8" d="M70.57,55.96c1.1-1.25,2.22-2.49,2.67-4.2.47,1.24,1.43,2.37.41,3.72-.84.77-1.41,1.84-2.52,2.32-.32-.57-.37-1.23-.57-1.84Z"/>
  <path class="cls-3" d="M33.78,66c.27.32.53.64.8.96.02.29-.12.64.27.81,0,.16-.02.31-.03.47-.07.18-.23.23-.4.27-1.27.55-2.14,1.54-2.92,2.63-.69,1-1.48,1.94-1.81,3.12-.39-.52-.65-1.36-.37-2.22.16-.5.03-1.03.29-1.48.49.15,1.07.7,1.35-.23-.17-.38-.6-.4-.8-.69.16-.16.32-.33.47-.49q.97.67,1.71-.09c-.29-.31-.55-.65-.93-.86.07-.31.35-.25.55-.33.96.83,1.1.81,2.3-.35-.38-.33-.77-.65-1.15-.97.12-.3.36-.45.65-.54Z"/>
  <path class="cls-8" d="M66.02,67.74c-1.05.12-2.09.26-3.15.32-.55.04-.99-.08-1.44-.31-.49-.77-1.38-1.21-1.77-2.07,1.3-.02,2.6-.03,3.9-.05.32.29.63.57.95.85.49.43,1.15.65,1.5,1.25Z"/>
  <path class="cls-8" d="M54.96,67.23c-1.38-.38-2.89-.4-4.04-1.43-.35-.79-1.13-1.37-1.11-2.34,1.28.19,2.52.5,3.74.93.15.75.62,1.32,1.07,1.91.22.29.42.56.35.94Z"/>
  <path class="cls-8" d="M60.51,68.03c-.99-.1-1.97-.21-2.96-.3-.49-.05-.93-.21-1.31-.51-.5-.87-1.36-1.53-1.59-2.57,1.31.27,2.63.52,3.92.92.25.35.5.7.75,1.05.36.5,1,.77,1.19,1.41Z"/>
  <path class="cls-9" d="M41.53,28.32c.03.59-.23.86-.84.89-.5.03-.98-.18-1.53-.17.69,1.04,1.37,1.14,2.63.47.33.95.19,1.24-.69,1.35-.62.08-1.28-.02-1.7-.39-.58-.52-1.18-.59-1.86-.55-.51.03-.94-.13-1.33-.43-.37-.29-.59-.64-.35-1.14.46-.14.59.31.87.47,1.03.61,1.45.48,1.9-.62.06-.14.06-.31.3-.46.69.47,1.52.6,2.4.45.07.04.13.08.2.12Z"/>
  <path class="cls-8" d="M70.81,66.06c-1.23.72-2.46,1.45-3.97,1.35-.71-.69-1.72-1.01-2.33-1.82,1.06-.17,2.12-.35,3.18-.52,1.04.33,2.08.67,3.12,1Z"/>
  <path class="cls-8" d="M49.68,65.57c-1.03-.04-1.97-.48-2.97-.67-.34-.06-.51-.34-.61-.66-.18-.56-.47-1.08-.46-1.69,1.09.06,2.13.32,3.16.67.02.89.84,1.48.88,2.35Z"/>
  <path class="cls-14" d="M32.91,12.11c.4.23.8.45,1.19.68.2.31.58.48.71.85-.58.79-.8,1.67-.67,2.64-.72-.05-1.33-.37-1.93-.73-.1-1.21-.3-2.45.7-3.44Z"/>
  <path class="cls-4" d="M44.97,62.48c.09.71.38,1.36.61,2.07-.76.15-1.47.03-2.17.04-.33,0-.47-.24-.64-.47-.04-.56-.38-1.06-.27-1.65.82-.3,1.65-.27,2.47,0Z"/>
  <path class="cls-8" d="M42.31,64.16c.01.08.06.21.04.22-.77.41-1.56.76-2.47.46-.14-.64-.64-1.17-.59-1.87.79-.29,1.6-.45,2.44-.44.04.59.16,1.16.57,1.62Z"/>
  <path class="cls-14" d="M37.34,16.72c-.74.07-1.49.17-2.19-.2-.28-.87-.07-1.65.4-2.39.38-.03.68.33,1.08.23.01.45.49.45.69.72-.12.55-.13,1.09.02,1.64Z"/>
  <path class="cls-1" d="M26.44,11.02c-.08-.66-.49-.97-1.13-.95-.51.02-.93-.09-1.2-.56.44-.74,1.06-1.17,1.95-1.16.1.09.21.19.31.28h0c0,.2.06.38.27.46.25.18.18.56.47.71.02.32.16.57.46.72,0,.08-.02.17-.03.25-.39-.01-.7.31-1.1.23Z"/>
  <path class="cls-6" d="M32.91,12.11c-1,.99-.79,2.22-.7,3.44-.38-.01-.68-.2-.98-.4-.08-1.3-.06-2.58.92-3.62.34.09.61.27.77.58Z"/>
  <path class="cls-3" d="M71.14,57.8c1.11-.48,1.67-1.55,2.52-2.32.1.2.22.32.47.2.49-.24.56.01.47.42-.35-.17-.48.09-.65.31-.71.95-1.56,1.74-2.63,2.27-.14-.28-.27-.55-.18-.88Z"/>
  <path class="cls-14" d="M38.2,15.36h2.63c-.35.91-1.14,1.31-2.5,1.28-.12-.42-.21-.84-.13-1.28Z"/>
  <path class="cls-3" d="M54.65,64.65c.23,1.04,1.09,1.7,1.59,2.57-.43-.09-.84.64-1.27.01.07-.38-.13-.65-.35-.94-.44-.58-.92-1.15-1.07-1.91.4-.07.74.14,1.1.26Z"/>
  <path class="cls-3" d="M73.5,62.72c-.02-.19-.05-.38-.08-.62-.86-.32-1.73.06-2.59.05-.02-.27.03-.52.26-.69.85-.16,1.71-.32,2.56-.47.66.73.63,1.06-.16,1.73Z"/>
  <path class="cls-1" d="M36.66,12.58c.8-.29,1.37-1.13,2.42-1.05-.15.97-.59,1.6-1.38,1.99-.51-.13-.69-.62-1.04-.93Z"/>
  <path class="cls-6" d="M35.56,14.13c-.47.74-.68,1.53-.4,2.39-.36.02-.73.04-1.02-.24-.13-.97.09-1.85.67-2.64.37-.01.6.17.75.49Z"/>
  <path class="cls-3" d="M60.51,68.03c-.19-.64-.83-.91-1.19-1.41-.25-.35-.5-.7-.75-1.05.37-.02.74-.02,1.09.11.39.86,1.27,1.3,1.77,2.07-.34-.03-.44.76-.91.27Z"/>
  <path class="cls-4" d="M33.12,66.55c.38.32.76.65,1.15.97-1.2,1.16-1.34,1.18-2.3.35.08-.71.67-.97,1.16-1.33Z"/>
  <path class="cls-3" d="M49.68,65.57c-.05-.88-.86-1.47-.88-2.35.36-.03.71.02,1.02.24-.02.96.76,1.55,1.11,2.34-.5.37-.91.29-1.24-.23Z"/>
  <path class="cls-6" d="M9.87,56.13c0-1.07.19-2.07,1.12-2.86-.09.95-.18,1.9-.27,2.86-.29-.82-.56.1-.85,0Z"/>
  <path class="cls-1" d="M35.56,14.13c-.15-.32-.39-.51-.75-.49-.13-.37-.51-.54-.71-.85.55-.02,1.11-.03,1.66-.05.18.63.7.98,1.15,1.39-.04.14-.14.2-.27.23-.4.1-.7-.26-1.08-.23Z"/>
  <path class="cls-3" d="M64.5,65.58c.61.81,1.62,1.13,2.33,1.82-.27.12-.48.38-.82.33-.35-.6-1.01-.82-1.5-1.25-.32-.28-.64-.57-.95-.85.31-.02.63-.03.94-.05Z"/>
  <path class="cls-11" d="M31.5,71.14c.78-1.09,1.64-2.09,2.92-2.63-.71,1.02-1.62,1.85-2.58,2.63-.07.06-.22,0-.34,0Z"/>
  <path class="cls-3" d="M102.71,36.5c.66.22.44,1.06.98,1.36.03.25-.02.47-.36.63-.46-.58-1.12-.96-1.73-1.41,0-.16-.01-.32-.02-.47.4-.04.56.39.9.45.36-.08.21-.36.23-.56Z"/>
  <path class="cls-6" d="M55.28,56.77v-1.94c.54.73.98,1.33,1.42,1.92-.47.21-.94.21-1.42.02Z"/>
  <path class="cls-6" d="M13.2,55.99c0-.55-.03-1.11.04-1.65.06-.44.17-.92.75-1.19.3.79-.28,1.49-.09,2.19-.23.21-.47.43-.7.64Z"/>
  <path class="cls-9" d="M22.1,56.29c-.45-1.18-.27-1.87.6-2.14.08.72.3,1.42-.14,2.1-.15.01-.31.02-.46.04Z"/>
  <path class="cls-3" d="M70.81,66.06c-1.04-.33-2.08-.67-3.12-1,.16-.24.42-.24.67-.29.9.2,1.81.4,2.71.61-.05.24.11.56-.25.69Z"/>
  <path class="cls-6" d="M38.2,15.36c-.09.44,0,.86.13,1.28-.32.12-.65.12-.99.08-.14-.54-.14-1.09-.02-1.64.32,0,.63.03.87.28Z"/>
  <path class="cls-4" d="M31.41,68.2c.39.21.64.55.93.86q-.74.76-1.71.09c.14-.41.43-.7.78-.95Z"/>
  <path class="cls-6" d="M36.91,14.13c-.45-.41-.97-.76-1.15-1.39.3-.06.6-.11.89-.17.35.31.53.8,1.04.93-.22.26-.46.49-.78.62Z"/>
  <path class="cls-3" d="M39.3,62.97c-.05.7.44,1.23.59,1.87-.18.09-.35.17-.53.26-.24-.64-.74-1.17-.81-1.88.21-.19.46-.28.75-.24Z"/>
  <path class="cls-9" d="M18.75,55.56c0-.51-.02-1.03-.02-1.54,0-.22.12-.38.36-.38.24,0,.34.17.35.39.01.47.01.95.02,1.42-.24.04-.47.08-.71.11Z"/>
  <path class="cls-6" d="M30.16,69.64c.21.29.63.31.8.69-.29.93-.86.38-1.35.23.05-.39.12-.76.55-.92Z"/>
  <path class="cls-6" d="M27.57,10.54c-.3-.15-.44-.4-.46-.72.54.02.5-.35.49-.71.41.24.49.8.96.97-.02.15-.04.3-.06.45h-.92Z"/>
  <path class="cls-3" d="M42.31,64.16c-.41-.47-.53-1.03-.57-1.62.25-.1.5-.1.76-.05-.11.58.23,1.09.27,1.65-.15.01-.3.02-.45.03Z"/>
  <path class="cls-13" d="M27.6,9.11c.02.36.05.73-.49.71-.29-.15-.22-.53-.47-.71,0-.21.01-.42-.27-.46,0,0,0,0,0,0l.03-.28c.55,0,.9.33,1.19.75Z"/>
  <path class="cls-11" d="M116.19,35.64c.09-.17.17-.33.26-.5.45.36.98.65,1.18,1.25-.61,0-1.04-.35-1.44-.75Z"/>
  <path class="cls-11" d="M55.47,70.56c.57-.19,1.14-.12,1.43.18-.49.07-.99.15-1.43-.18Z"/>
  <path class="cls-11" d="M52.09,69.4c.35-.3.68-.4.96.08-.34.16-.66.18-.96-.08Z"/>
  <path class="cls-3" d="M39.51,56.93c.07-.18.11-.38.32-.47,0,.16,0,.32.01.47-.11,0-.22,0-.33,0Z"/>
  <path class="cls-10" d="M101.58,36.6c0,.16.01.32.02.47-.29-.03-.4-.18-.31-.46l.29-.02Z"/>
  <path class="cls-10" d="M101.04,36.38c.2-.04.28.05.26.25-.22.06-.33,0-.26-.25Z"/>
  <path class="cls-6" d="M49.46,56.9c.08-.06.15-.11.23-.17.03.05.05.1.05.16-.09,0-.19,0-.28,0Z"/>
  <path class="cls-6" d="M46.3,56.73c.13,0,.22.07.26.19-.11,0-.23,0-.34,0,.01-.07.04-.13.08-.19Z"/>
  <path class="cls-6" d="M29.55,15.06c.06,0,.12.02.18.05,0,.07,0,.14,0,.21-.12-.05-.2-.12-.19-.27Z"/>
  <path class="cls-6" d="M26.4,8.36l-.03.28c-.1-.09-.21-.19-.31-.28.11,0,.23,0,.34,0Z"/>
  <path class="cls-11" d="M117.61,36.38c.25,0,.3.16.26.37-.13-.09-.3-.16-.26-.37Z"/>
  <path class="cls-10" d="M76.34,33.27c-.16.42-.43.2-.68.11-.93-.31-1.59-1.03-2.34-1.6-1.8-1.37-3.66-2.65-5.77-3.51-.51-.21-1.05-.4-1.59-.47-1.67-.23-3.19.04-4.02,2.6-.72,2.17-.59,4.4-.38,6.62.13,1.35.39,2.68.76,3.98.07.23.09.47-.03.74-.56.35-.92-.02-1.29-.4-1.32-1.34-2.55-2.75-3.7-4.23-.66-.85-1.29-1.72-1.98-2.55-.44-.54-.62-1.08-.37-1.75.34-.92.26-1.89.19-2.84-.32-4.5-1.12-8.9-2.69-13.15-1.16-3.16-2.82-6.05-4.61-8.88-.13-.2-.24-.4-.4-.68.55-.12.88.21,1.23.4,4.04,2.22,7.71,4.95,11.14,8.02,5.28,4.73,9.89,10.07,14.43,15.48.64.76,1.32,1.47,2.08,2.11Z"/>
  <path class="cls-2" d="M61.38,42.65c-.64.21-1.03.17-1.41.15-3.15-.17-6.25-.65-9.3-1.5-1.15-.32-2.29-.68-3.51-.66-1.45.02-1.81.64-1.05,1.95-.51.53-1.03.19-1.51-.03-1.68-.76-3.19-1.8-4.65-2.91-.76-.58-1.47-1.22-2.2-1.84-.15-.13-.33-.24-.44-.4-.44-.66-.04-3.45.57-3.97.41-.34.87-.52,1.43-.46.81.07,1.55.36,2.31.6,1.86.58,3.65,1.38,5.58,1.72,1.48.26,2.96.68,4.48.18.41-.14.78.02,1.12.27,1.96,1.5,3.9,3.04,5.73,4.68.84.76,1.67,1.53,2.85,2.23Z"/>
  <path class="cls-2" d="M23.77,44.25c-.41-1.35-1.14-2.6-1.22-4.05,1.67-.03,3.31-.19,4.81-1.05.52-.3.89-.12,1.12.42.09.22.22.42.34.63.25.72.5,1.44.75,2.16-.09.42.16.86-.12,1.33-1.83.55-3.74.64-5.67.56Z"/>
  <path class="cls-15" d="M26.18,49.11c-1.01-1.2-1.58-2.59-1.91-4.1,1.76.03,3.51.02,5.22-.47.12.41.18,3.55.08,4.13-1.07.5-2.25.31-3.39.45Z"/>
  <path class="cls-9" d="M56.95,46.01c.49.89.38,2.32,2.1,2.32-.2-1.1.34-1.9.66-2.83.88.27.73,2.02,2.1,1.57.38-.7-.1-1.34-.1-2.06.84.15,1.16.75,1.15,1.28-.04,1.16.71,1.67,1.52,2.33.4-.68.08-1.38.25-2,.8.45,1.15,1.23.88,2-.25.72-1.34.95-2.02.43-.19-.15-.34-.34-.52-.5-.14-.13-.25-.32-.55-.28,0,.42.02.85,0,1.28-.05,1.01-.86,1.44-1.74.92-.1-.06-.22-.12-.29-.21-.52-.71-1.15-1.01-2.09-1-1.02.01-2.18-2.06-1.85-3.07.07-.23.29-.24.5-.18ZM60.05,47.49c.01,1.45.43,2.03,1.5,2.21q.24-1.21-1.5-2.21Z"/>
  <path class="cls-4" d="M17.06,19.75c.04-.81-.16-1.67.43-2.43-1.07-.37-1.97.14-2.82.41-.35-.44-.13-.6.11-.78,1.93-1.42,4.88-.35,5.61,2.03.02.08.02.16.04.24.41,1.66-.15,2.26-1.83,1.96-1.41-.25-2.65-.85-3.66-1.87-.13-.13-.12-.13-.18-.83.75.53,1.21,1.47,2.31,1.27ZM18.72,20.28c.41.12.67.16.94-.09.03-.6-.12-1.16-.61-1.77-.07.71.02,1.31-.33,1.87Z"/>
  <path class="cls-9" d="M33.61,45.48c-.29-.53-.58-1.05-.49-1.68.07-.44-.17-.73-.44-1.05-.63-.77-.7-2.09-.2-2.9.11-.18.26-.34.48-.28.24.07.44.28.33.54-.13.31-.18.61-.17.93.02.31-.06.64.12,1.01.43.13.85.18,1.26-.21.3-.28.53-.73,1.11-.62.37.65-.08,1.42.26,2.01.53.29.72-.33,1.12-.31.24.82.07,1.27-.66,1.34-.5.05-.79.22-1.04.62-.39.63-1.03.68-1.69.61h0ZM34.23,44.5c.43-.11.61-.36.78-.65-.14-.31-.14-.68-.39-.95-.96.46-1,.61-.4,1.6Z"/>
  <path class="cls-1" d="M22.53,11.81c.27-.06.56-.19.76.15.05.5-.4.54-.68.7-.26.14-.45.29-.52.59-.35,1.62,1.59,4.08,3.36,3.75.35-.07.48-.21.5-.52.4.09.49-.15.51-.47.64.17,1.16-.13,1.69-.42-.07.6.52,1.01.48,1.6-.32.03-.64.1-.94-.06-.44-.23-.86-.18-1.24.09-1.28.9-2.46.43-3.52-.34-.87-.63-1.53-1.49-1.56-2.67-.02-.85.17-1.57.98-2.01.16-.09.2-.23.2-.39Z"/>
  <path class="cls-1" d="M53.68,50.61c-.47-.25-.91.18-1.37.06,0-1.31.03-2.62.02-3.93,0-.96.28-1.86.54-2.77.08-.29.18-.75.89-.55-.05,2.36-.49,4.78-.08,7.19Z"/>
  <path class="cls-8" d="M27.57,51.71c-.16-.69-1.02-1.07-.89-1.9.98.07,1.96-.03,3.02-.22.2,1.26.39,2.47.61,3.87-1.09-.59-2.04-.97-2.75-1.74Z"/>
  <path class="cls-9" d="M73.06,41.92c.22.41.42.71.56,1.03.22.51-.02.95-.33,1.32-.33.39-.8.31-1.22.15-.74-.29-1.25-.82-1.46-1.64.46-.37.71-.01.99.25.28.26.5.67,1.07.43.07-1.16-.08-2.3-.71-3.4.89.09,1.1.86,1.77,1.07.41-.34.03-.92.33-1.29.58.1.74.46.6,1.36-.11.72-.45.89-1.6.72Z"/>
  <path class="cls-1" d="M31.98,26.31c.49.32.82.8,1.16,1.27-.85,1.38-1.35,2.85-1.19,4.48.08.84.29,1.68.45,2.54-.26-.05-.38-.16-.44-.31-.95-2.35-.99-4.77-.49-7.22.06-.29.16-.62.51-.76Z"/>
  <path class="cls-9" d="M22.5,21.08c.41.6.49,1.18.13,1.63-.39.5-1.04.31-1.57.2-.37-.08-.7-.34-1.05-.53,0,1.18.37,1.32,2.45.94.25.58-.16.77-.57.95-.67.3-1.01.17-2.09-.74-1.69.39-2.29.1-2.41-1.15.3-.18.42.09.6.22.73.55.86.55,1.38-.19.33-.47.69-.73,1.29-.51,1.13.41,1.14.4,1.84-.81Z"/>
  <path class="cls-1" d="M46.09,30.66c.1-.22.29-.25.49-.25,1.52.02,3-.36,4.52-.3-.38,1.53-.7,1.83-2.15,1.7-.89-.08-1.79-.19-2.58-.68-.19-.12-.28-.26-.28-.47Z"/>
  <path class="cls-9" d="M72.72,71.04c-.17.41-.57.29-.87.39-.08-.21-.06-.47-.36-.56-.6-.19-1.16-.53-1.1-1.2.06-.66.76-.7,1.27-.82q.22-.84.89-1.27c.39.31.01.84.37,1.19.39.38.74-.05,1.3.06-.31.54-.52.98-1.23.73-.54-.19-1.07-.3-1.45.33.25.58.99.6,1.19,1.17Z"/>
  <path class="cls-6" d="M3.64,14.97c.11-.41.45-.52.67-.5.9.06,1.83.04,2.64.53.31.19.62.45.42.87-.19.41-.56.38-.92.21-.91-.43-1.84-.82-2.81-1.11Z"/>
  <path class="cls-9" d="M77.11,44.32c.51.89.46,1.2-.24,1.68-.51.35-1.06.26-1.58-.27-.73-.74-.78-1.18-.15-1.94.45.5.38,1.45,1.36,1.54.22-.27-.06-.89.61-1.02Z"/>
  <path class="cls-9" d="M29.56,42.37c-.25-.72-.5-1.44-.75-2.16.5-.36.48-.97.68-1.47.18-.43.27-.89.98-1.27-.15,1.81-.68,3.33-.92,4.9Z"/>
  <path class="cls-9" d="M33.6,45.47c.03.3-.13.54-.27.77-.27.44-.93.58-1.34.33-.55-.34-.75-1.64-.31-2.14.14-.16.35-.17.56-.09.34.34.02.84.27,1.26.37.14.71-.26,1.1-.13h0Z"/>
  <path class="cls-9" d="M66.65,71.51c-.92.14-1.53-.33-2.11-.85-.27-.23-.26-.57-.14-.88.12-.28.38-.37.68-.37.32,0,.64-.01.76.2.27.49-.29.5-.26.71.11.65.83.64,1.07,1.18Z"/>
  <path class="cls-1" d="M40.34,49.53c-.39-.08-.75-.38-1.18-.17.33-1.25.71-2.48.77-4,.64.78.33,1.5.39,2.14.06.67.02,1.35.02,2.03Z"/>
  <path class="cls-9" d="M44.64,30.17c.13,0,.23.04.25.18.03.44-.02.76-.61.77-.96.02-1.62-.43-2.04-1.52.46-.09.69.27,1.02.43.43.21.87.67,1.38.13Z"/>
  <path class="cls-11" d="M53.86,68.89h-1.6c-.1-.14.02-.27.06-.41.31.12.62.28.97.18.2.04.44,0,.57.22Z"/>
  <path class="cls-3" d="M53.29,68.67c-.36.1-.66-.06-.97-.18-.13-.05-.22-.12-.23-.27.41.13,1.05-.34,1.2.46Z"/>
  <path class="cls-3" d="M50.41,67.67c-.36.1-.6-.1-.83-.33.38-.14.63.02.83.33Z"/>
  <path class="cls-11" d="M56.77,70.08c-.37-.03-.81.27-1.07-.24.35.1.78-.12,1.07.24Z"/>
  <path class="cls-9" d="M70.81,71.79c-.11.21-.28.26-.49.18.07-.32.17-.55.49-.18Z"/>
  <path class="cls-1" d="M32.53,35.04c.02.07.06.13.07.2,0,.02-.05.05-.08.07-.02-.07-.06-.13-.07-.2,0-.02.05-.05.08-.07Z"/>
  <path class="cls-3" d="M48.01,66.97c-.21.05-.38.02-.5-.19.2-.02.39-.02.5.19Z"/>
  <path class="cls-3" d="M41.77,65.49l-.24-.03c.09-.1.17-.09.24.03Z"/>
  <path class="cls-14" d="M28.14,15.6c-.52.29-1.05.59-1.69.42-.85-1.26-1.64-2.54-1.75-4.13.63-.31,1.18-.59,1.74-.87.4.08.71-.24,1.1-.23.03,1.52.35,2.96,1.15,4.27-.05.16-.11.32-.16.47-.13.02-.26.04-.39.06Z"/>
  <path class="cls-6" d="M28.42,11c.09.17.09.34-.01.5-.09-.07-.23-.12-.26-.2-.06-.2.11-.26.27-.3Z"/>
  <path class="cls-6" d="M28.53,15.54c.05-.16.11-.32.16-.47.15.03.31.09.29.27-.04.26-.26.21-.45.21Z"/>
  <path class="cls-14" d="M25.94,16.48c-.02.32-.15.46-.5.52-1.77.33-3.71-2.13-3.36-3.75.07-.31.26-.45.52-.59.29-.16.73-.2.68-.7.56-.02.68.32.8.8.35,1.36.89,2.65,1.85,3.72Z"/>
  <path class="cls-6" d="M26.37,8.64c.29.04.27.26.27.46-.21-.08-.27-.26-.27-.46Z"/>
  <path class="cls-14" d="M60.05,47.49q1.74,1,1.5,2.21c-1.07-.18-1.49-.77-1.5-2.21Z"/>
  <path class="cls-3" d="M18.72,20.28c.35-.56.26-1.15.33-1.87.48.61.64,1.17.61,1.77-.26.26-.52.22-.94.09Z"/>
  <path class="cls-14" d="M34.23,44.5c-.6-.99-.56-1.14.4-1.6.24.27.25.64.39.95-.17.29-.35.55-.78.65Z"/>
</svg>