<?xml version="1.0" encoding="UTF-8"?>
<svg id="Layer_1" data-name="Layer 1" xmlns="http://www.w3.org/2000/svg" version="1.1" viewBox="0 0 380.9 172.91">
  <defs>
    <style>
      .cls-1 {
        fill: #77338c;
        stroke-width: 0px;
      }
    </style>
  </defs>
  <path class="cls-1" d="M0,112c9.83-4.3,19.44-9.13,30.38-10.27,5.85-.61,11.66-1.13,17.34.49,2.69.77,3.34-.13,3.89-2.38,1.39-5.71,4.88-10.64,5.04-16.94.13-4.84,3.77-8.91,7.18-12.28,14.73-14.56,32.47-22.49,53.31-22.3,13.17.12,22.89,6.25,30.17,17.62,9.28,14.49,17.58,29.8,30.43,41.75,9.82,9.14,21.63,13.74,34.76,14.39,16.72.83,20.52-5.48,25.17-19.96.57-1.77-.27-2.88-1.57-3.8-1.29-.92-1.63.33-2.24,1.02-6.09,6.76-14.31,5.95-18.93-2.55-2.07-3.8-3.79-4.71-8.09-4.27-5.74.6-10.95-2.35-15.78-5.41-6.4-4.05-11.69-9.32-16.44-15.17-2.55-3.13-2.06-4.63,2.38-5.35,8.27-1.34,16.62-1.45,24.82.42,3.46.79,4.88.24,4.56-3.54-.15-1.78.29-3.65.66-5.43,1.77-8.54,5.42-10.18,14.77-6.45.94-6.47.77-14.62,9.39-15.16,8.38-.52,9.31,7.51,11.41,13.51,1.61.38,1.93-1.06,2.67-1.76,4.48-4.28,8.77-5.03,13-2.21,4.27,2.85,6.21,8.7,4.19,13.71-1.12,2.78-2.38,4.5,1.09,7.22,4.44,3.49,1.37,13.15-4.54,15.75-1.86.82-2.91,1.18-2.56,3.74.94,6.91-1.51,11.53-8.25,14.15-3.84,1.49-5.96,3.42-6.78,7.33-.35,1.69-1.47,3.22-2.74,5.87,8.43-3.39,11.8-11.55,18.71-15.46-3.53,17.04-18.83,30.82-39.34,35.38-24.89,5.54-50.72-4.89-62.48-31.75-6.36,2.69-6.76,8.47-7.36,14.18-.17,1.6,1.01,2.36,1.74,3.42,4.78,6.94,4.95,14.27,1.75,21.82-.51,1.2-1.26,3.01-2.18,3.2-6.22,1.32-5.06,6.59-6.2,10.72-1.4,5.04-3.83,9.55-7.75,13.16-1.43,1.32-2.97,2.58-3.69,4.5h-2c-2.3-5.05-5.4-9.87-5.05-15.73.13-2.19-1.25-1.77-2.47-1.96-4.56-.73-7.62-3.28-8.56-7.82-.52-2.47-1.23-2.62-3.19-1.28-8.23,5.68-17.56,3.98-26.63,3.65-2.36-.09-3.19-1.48-1.51-3.66,2.73-3.56,5.05-7.43,8.43-10.47.96-.86,2.39-1.58,1.87-3.21-1.44-4.51.81-8.07,2.98-11.59.83-1.36.93-1.96-.38-3.21-6.12-5.82-5.52-14.96,1.69-18.88,3.38-1.84,3.3-3.11,2.27-6.22-2.5-7.54.61-10.74,8.54-9.28,5.43,1,9.65,4.2,13.57,7.87,4.96-7.7,9.74-8.93,15.97-4.23,3.27,2.47,5.42,5.82,7.18,9.44.97,1.99,1.82,4.03,2.92,6.5,4.16-3.99,6.6-7.66,4.42-13.16-1.65-4.16-2.55-8.61-4.14-12.8-1.75-4.61-3.68-9.24-6.9-13.03-6.24-7.35-14.49-8.07-23.25-6.29-7.73,1.57-14.67,5.29-21.83,8.37-9.52,4.09-17.19,10.64-24.16,18.11-1.97,2.12-3,4.85-3.41,7.65-.58,3.93-1.33,8.1,2.36,11.1,3.93,3.19,8.35,3.94,13.11,1.98,1.89-.78,3.73-1.67,6.23-2.8-3.31,5.98-7.16,8.75-12.08,8.85-10.49.21-16.87-5.47-20.63-15.97-1.86,3.51-4,5.86-4.29,8.42-.71,6.22-4.79,9.55-9.36,12.53-13.07,8.54-29.73,7.78-43.56-1.82v-2ZM138.07,114.89c2.09-.74,6.88,1.87,6.33-3.18-.89-8.17-3.41-16.06-10.27-21.44-3.95-3.1-7.76-1.21-7.76,3.82,0,4.13.38,8.36,1.34,12.36,1.46,6.1,4.72,8.52,10.36,8.44ZM102.71,134.83c6.87-1.03,12.9-4.05,17.46-9.81,1.13-1.43.98-2.42-.15-3.86-2.73-3.46-8.81-3.88-15.99-.86-4.44,1.87-7.67,6.62-6.97,10.36.55,2.93,2.56,4.05,5.65,4.18ZM132.2,134.48c-.01-1.99-1.03-4.6-1.79-7.31-1.28-4.56-2.84-3.21-5.05-.76-3.88,4.31-5.3,9.81-7.56,14.92-1.35,3.06-.11,7.88,2.71,8.96,3.52,1.34,6.57.43,8.45-3.05,2-3.7,3.14-7.66,3.24-12.76ZM216.58,86.49c-.02,4.96,1.6,9.14,6.02,11.76,2.67,1.59,5.46,1.89,7.29-1.3,2.27-3.97,3.24-8.5,2.96-12.9-.19-2.99-3.32-5.69-5.67-6.83-3.83-1.86-10.6,4.56-10.59,9.26ZM217.64,75.12c3.38-.1,6.15-1.43,8.62-3.55,1.54-1.31,2.6-3.05,1.45-4.77-2.85-4.24-5.37-8.81-9.68-11.87-2.17-1.54-4.41-2.03-5.77.9-2.06,4.45-3.16,9.08-1.56,13.97,1.11,3.38,3.46,5.13,6.94,5.31ZM134,119.9c1.94,4,2.54,7.9,3.18,11.83.52,3.14,2.23,5.91,4.49,8.21,2.93,2.98,4.6,2.63,6.2-1.18,4.68-11.08-.69-18.89-13.87-18.86ZM237.89,54.84c.16-4.71-.59-7.77-2.05-10.62-.98-1.93-2.14-4.09-4.73-3.72-2.41.35-3.57,2.46-4.08,4.6-1.51,6.35.35,12.19,3.27,17.75,1.2,2.29,3.65.82,5.45,1.43,1.14.38,1.11-.7,1.2-1.54.33-3.12.74-6.24.94-7.89ZM252.19,88.96c-.01-4.11-5.78-9.28-10.24-9.18-2.79.06-5.27,5.15-5.14,10.57.07,3.25,4.05,6.95,7.32,6.8,3.59-.16,8.08-4.72,8.07-8.2ZM240.35,67.72c5.19-1.91,9.6-3.38,13.87-5.19,1.62-.68,2.94-2.09,3.73-3.83,1.6-3.52.8-6.59-2.17-8.79-3.15-2.33-5.68-.4-7.64,2.04-3.53,4.38-5.55,9.53-7.78,15.77ZM103.62,115.16c2.91-.67,6.67-1.3,10.51-1.3.85,0,1.72-.12,1.79-1.22.08-1.17.03-2.25-1.2-3.01-3.24-2.01-6.29-4.37-9.65-6.13-2.05-1.07-4.51-2.47-6.81.07-2.19,2.43-3.19,5.33-2.07,8.26,1.02,2.66,3.76,3.43,7.42,3.33ZM106.18,87.75c-2.77-.53-3.2.57-2.61,3.29,1.66,7.66,8.39,10.26,13.88,13.92,1.46.98,4.18.12,3.82-3.28-.65-6.25-8.17-13.44-15.09-13.93ZM255.05,68.51c-4.47-.29-7.76,1.51-11.29,2.28-.87.19-2.21-.25-2.25,1.21-.03,1.27-.07,2.63,1.52,3.31,3.18,1.35,6.21,3.28,9.52,4.05,2.44.57,5.25-.45,6.95-2.74,1.33-1.79,1.92-4.06.98-6.09-1.19-2.56-3.98-1.72-5.43-2.03ZM210.99,82.9c-7.27-5.6-15.07-6.12-22.63-7.44,6.31,5.19,13.4,8.04,22.63,7.44ZM42.32,109.93c-7.01,1.33-14.03,2.65-21.04,3.98,7.71,2.51,14.55.35,21.04-3.98ZM106.43,139.29c-5.59-.46-10.14-.25-13.31,4.73,5.07.15,8.9-1.85,13.31-4.73ZM135.43,143.62c-1.69,5.79-1.33,10.92-2.18,16.81,2.43-5.66,4.84-10.38,2.18-16.81Z"/>
  <path class="cls-1" d="M380.69,4.17c-2.79,1.23-2.89,4.24-4.11,6.45-7.93,14.3-19.07,21.01-32.53,16.86-8.4-2.59-13.87,1.18-20.32,3.93.43,2,1.86,1.61,2.88,1.89,13.92,3.87,20.67,16.76,15.74,30.46-.78,2.17-1.04,3.07,1.44,4.37,10.4,5.46,18.49,22.98,16.35,34.64-2.81,15.33-18.79,22.1-32.83,13.92-5.3-3.09-10.61-3.35-16.45-1.04-8.53,3.36-16.02.48-22.5-5.33-4.02-3.6-6.56-8.29-8.91-13.12-1.34-2.75-.3-3.7,2.21-3.92,4.74-.41,9.27.7,13.62,2.42,7.41,2.93,13.94,7.19,18.39,13.95,1.79,2.72,4.28,2.32,6.64,2.11,2.52-.23.79-1.95.53-2.93-1.43-5.45-1.7-10.66,2.02-15.47,1.76-2.28,3.85-2.67,6.56-2.11-6.89,4.67-7.41,9.51-1.41,15.39,6.56,6.43,14.85,10.88,22.69,6.36,4.72-2.73,6.58-6,4.98-11.14-3-9.63-8.63-17.11-18.25-21.14-6.57-2.75-8.48-6.19-7.89-13.24.28-3.34.94-6.56,1.96-9.75,2.79-8.77-2.59-15.61-11.65-14.34-18.87,2.63-33.62,11.76-43.45,28.38-2.78,4.71-5.82,9.27-8.79,13.86-.75,1.16-1.29,2.81-3.7,2.19,6.95-13.5,12.62-27.48,22.57-39.03,7.76-9.01,17.18-15.12,29.29-16.39,1.53-.16,2.79-.56,3.95-1.72,3.5-3.53,7.93-5.49,12.72-6.4,1.98-.38,3.29-1.08,4.25-2.75,6.52-11.29,17.2-16.52,29.12-19.96,1.03-.3,2.45.13,2.91-1.4,2.66,0,5.37.28,7.98-.07,3.46-.47,4.76.65,4.01,4.06ZM361.45,10.52c-7.47,2.06-13.72,6.02-18.7,12,7.03-2.74,13.15-6.92,18.7-12ZM309.27,111.26c.16-.42.33-.84.49-1.25-5.75-2.05-11.5-4.09-17.26-6.14,5.09,3.79,10.07,7.84,16.77,7.39Z"/>
</svg>