<?xml version="1.0" encoding="UTF-8"?>
<svg id="Layer_1" data-name="Layer 1" xmlns="http://www.w3.org/2000/svg" version="1.1" viewBox="0 0 283.74 210.1">
  <defs>
    <style>
      .cls-1 {
        fill: #75318b;
        stroke-width: 0px;
      }
    </style>
  </defs>
  <path class="cls-1" d="M283.74,17.29c-1.15.24-1,1.34-1.33,2.08-2.4,5.47-5.7,10.25-10.57,13.82-.72.53-1.34.97-1.58,1.97-1.16,4.71-4.23,7.99-8.35,10.25-1.66.91-1.55,1.42-.6,2.9,3.58,5.59,1.53,10.12-5.01,11.21-1.12.19-1.27.54-1.09,1.43.27,1.32.31,2.63.04,3.96-.57,2.78-1.8,5.11-4.76,5.8-3.01.7-5.08-.87-6.64-3.3-.24-.37-.5-.71-.87-1.24-1.04,1.1-1.95,2.16-2.96,3.1-1.53,1.43-3.37,1.66-5.26.92-1.79-.7-2.82-2.09-3.02-4.04-.31-3.06,1.31-5.95,1.25-8.75-.05-2.51-2.98-4.73-2.39-7.85.04-.21,0-.44.01-.66.13-4.96-.44-5.73-5.44-5.7-4.69.03-9.18,1.24-13.34,3.51-.88.48-1.52,1.18-2.08,2.07-6.91,11.14-17.91,16.3-29.7,20.37-13.49,4.65-25.61-.3-37.84-5.05-15.98-6.21-31.96-12.55-48.86-15.79-8.23-1.58-16.65-2.47-25.11-2.09-.64.03-1.27.24-2.23.44,1.74,2.23,3.32,4.24,5.2,6.65,1.04-3.55,2.75-5.75,6.46-5.21,4.05.59,5.5,2.22,6.72,7.83.51-.25,1-.5,1.49-.71,3.71-1.64,6.53-1.1,8.28,1.56,2.03,3.1,1.53,6.82-1.67,9.12-1.99,1.43-2.42,2.13-.38,3.99,1.74,1.59,2.42,3.99,1.38,6.43-1.04,2.45-3.19,3.22-5.62,3.47-2.16.22-4.13-.46-6.16-1.57-.49,2.89-1.07,5.5-3.28,7.31-2.12,1.74-4.45,2.52-7.08,1.3-2.55-1.19-3.57-3.41-3.12-6.02.54-3.11-.92-3.48-3.24-2.73-3.01.98-5.48-.09-7.5-2.05-1.25-1.22-2.53-1.48-4.1-1.63-4.79-.44-8.99-2.12-12.19-5.95-.81-.97-1.11-1.4.05-2.3,4.3-3.38,8.59-6.73,14.43-6.74,1.17,0,1.46-.6,1.77-1.52.95-2.8,2.82-4.28,5.91-4.05.69.05,1.7.48,2.08-.41.46-1.06-.56-1.53-1.24-2.06-5.2-4.01-6.43-4.49-14.15,1.34-8.85,6.69-14.96,15.46-16.66,26.86-.99,6.63,1.01,12.68,2.81,18.82.3,1.03,1.17,1.93.6,3.26-1.96-.95-2.65-2.88-3.63-4.55-8.45-14.36-6.31-31.75,5.01-43.96,12.13-13.08,27.08-17.09,44.16-14.15,7.95,1.37,15.19,1.26,21.57-4.61,1.96-1.81,4.45-3.47,7.54-3.55-3.25,3.55-7.9,5.62-10.33,10.19,5.5,1.75,11.1,2.29,16.62,3.21,8.39,1.4,16.46,4.23,24.93,5.37,15.06,2.02,29.92,1.04,44.45-3.01,12.21-3.41,20.66-11.64,25.99-23.09.23-.49.47-.96.73-1.5,2.19,2.53,2.14,3.38-1.09,20.48,6.43-1.72,12.8-3.21,19.48-2.34,1.97.26,4.35-4.19,3.52-5.96-4.97-10.61-5.16-21.33-.55-32.12.8-1.87,1.86-1.7,2.94-.34,6.04,7.66,9.95,15.96,7.8,26.07-.18.86-.25,1.76-.29,2.64-.04.96.74,1.38,1.46,1.57,1,.27.88-.77,1.06-1.27.85-2.41,1.76-4.78,3.15-6.94,1.51-2.34,3.62-3.84,6.33-4.52.88-.22,2.1-.52,2.54.14,2.18,3.32,3.86.78,5.65-.34,3.69-2.3,7.59-4.05,11.81-5.18,2.64-.71,4.7-.48,6.11,2.07v1.33ZM74.49,59.45c1.53,0,3.24.45,4.54-.09,1.62-.68,1.69-2.71,1.84-4.32.24-2.48-1.31-3.54-3.54-3.87-2.33-.35-2.82,1.35-3.06,3.01-.23,1.62-.12,3.28-.16,4.93-.11.13-.34.34-.31.38.21.32.46.23.68-.02ZM198.65,47.14c-.17-.27-.33-.54-.5-.81-1.69.94-3.39,1.86-5.07,2.82-3.38,1.96-6.99,3.25-10.83,4.05-12.69,2.65-25.33,1.48-37.97-.34-3.25-.47-6.51-.79-9.77-1.18,7.81,3.54,15.9,5.67,24.05,7.56,8.86,2.05,17.63,1.8,25.96-2.04,5.29-2.44,10.23-5.61,14.13-10.06ZM233.46,49.93c.17,1.1-.35,2.97,1.27,3.8,1.38.71,2.45-.75,3.49-1.42,4.79-3.1,5.59-8.77,8.09-13.31.75-1.36.1-3.65-1.59-4.69-1.64-1.01-2.99.28-4.13,1.24-4.31,3.65-7.16,8.11-7.13,14.38ZM66.39,66.99c-2.61-.07-5.05,1.21-7.35,3.42-2.09,2.01-1.51,3.25.3,4.72,2.47,2,9.47.21,10.96-2.81.63-1.28-1.98-5.44-3.92-5.33ZM258.84,24.2s.47-1.04-.43-1.57c-1.02-.59-1.92.22-2.66.79-.77.6-1.45,1.37-1.99,2.19-2.31,3.49-3.11,7.5-3.82,11.53-.14.8.06,1.22.85,1.46.75.24,1.58.63,2.08-.21,2.51-4.21,6.28-7.86,5.97-14.2ZM234.63,64.4c-.01,1.55.27,2.71,1.66,3.16,1.32.42,2.03-.55,2.71-1.41,2.33-2.93,3.4-6.36,3.99-9.99.14-.87-.12-1.49-.79-2.01-.87-.67-1.38.22-2.05.44-5.04,1.61-4.79,6.11-5.53,9.81ZM259.89,53.37c-.03-3.43-3.34-6.26-7.07-6.43-.43-.02-3.62,4.63-3.55,5.18.11.92,6.05,4.47,7.52,4.39,2.17-.12,2.95-1.57,3.1-3.14ZM267.19,35.08c-.09-2.13-1.33-1.47-2.11-1.12-4.32,1.9-7.75,5.09-11.38,7.97-.69.55-.78,1.46-.52,2.14.42,1.09,1.34.28,1.99.18,1.41-.23,2.89-.42,4.19-.98,3.84-1.64,6.53-4.44,7.84-8.18ZM78.56,76.88c-.2-1.02.45-2.84-.96-3.32-1.17-.39-3.02-.65-4.02.61-1.69,2.13-2.42,4.71-2.4,7.44,0,1.27.52,2.4,1.88,2.85,1.44.47,2.55-.04,3.53-1.15,1.59-1.79,1.83-3.96,1.97-6.43ZM246.79,55.24c-.42,1.82-.7,3.45-1.19,5.02-.61,1.96-.07,3.71.78,5.4.63,1.24,1.58,2.24,3.08,2.12,1.53-.12,2.16-1.34,2.61-2.66,1.25-3.7-.73-7.5-5.28-9.89ZM63.2,56.53c-1.54-.4-2.63.62-3.38,2.05-.9,1.71.85,2.28,1.63,3.15,2.35,2.61,5.42,2.08,8.3,1.35,1.2-.3,1.81-1.5.71-2.87-1.81-2.26-3.94-3.78-7.26-3.68ZM84.88,65.86c2.47-.35,4.89-1.09,6.6-3.18,1.11-1.35,1.07-2.89.07-4.29-1.02-1.43-2.42-1.29-3.85-.65-1.88.83-3.28,2.27-4.45,3.86-1.11,1.52-.04,4.23,1.63,4.26ZM86.64,76.68c1.8,0,3.35-.08,4.01-1.64.64-1.52-.29-2.79-1.23-3.89-2-2.35-6.25-3.28-7.39-1.59-.55.82-1.88,1.69-.95,2.88,1.52,1.96,2.77,4.44,5.56,4.24ZM238.75,15.3c-.65,5.21-.01,9.65-.12,14.1-.02.95-.83,2.54.77,2.64,1.24.08,2.02-1.24,1.91-2.62-.36-4.54-.81-9.07-2.56-14.12ZM269.62,24.91c-3.55,1.81-7.7,2.89-9.4,7.85,4.49-1.6,6.87-4.81,9.4-7.85ZM44.78,67.44c3.22,1.11,7.32.52,11.32-1.53-4.08-1.67-7.54.11-11.32,1.53Z"/>
  <path class="cls-1" d="M199.27,0c2.26,1.05,4.65,1.9,6.75,3.2,3.51,2.19,5.44,5.48,6.15,10.39-1.97-2.26-3.38-3.9-4.82-5.52-1.8-2.02-4.15-2.55-6.66-2.07-9.2,1.74-18.57,8.56-20.3,17.37-.69,3.52-.31,6.51,1.75,9.59-1.88.51-2.82-.69-3.73-1.63-5.66-5.82-6.53-13.44-2.24-20.34,2.9-4.68,7.05-7.86,12.28-9.67.97-.34,2.28-.08,2.85-1.32C193.95,0,196.61,0,199.27,0Z"/>
  <path class="cls-1" d="M41.24,177.8c3.79-2.21,7.78-3.78,12.28-3.3,4.28.45,5.43,2.19,4.06,6.22-1.26,3.72-3.56,6.68-7.28,8.15-1.54.61-2.4,1.21-2.14,3.01.2,1.35-.19,2.72-1.21,3.67-.99.93-1.04,1.79-.47,2.92.62,1.22.61,2.57.48,3.91-.18,1.88-.93,3.49-2.77,4.2-1.71.67-3.29.05-4.61-1.09-.99-.86-1.87-1.85-2.99-2.98-1.48,3.23-3.14,6.17-6.78,7.18-2.22.61-4.39.59-6.5-.3-2.94-1.24-3.43-2.8-2.3-7.22-3.22-.38-7.04.02-7.67-4.53-.47-3.45,1.77-6.14,6.18-7.78-5.74-5.95-6.81-8.99-4.22-11.93,2.57-2.92,7.81-2.35,13.46,1.55.73-1.31.93-2.92,2.18-3.91,1.87-1.48,4.15-1.94,5.78-.35,2.16,2.12,2.55.2,2.64-.99.17-2.16-.21-4.37-.33-6.2,3.01,2.22,1.86,5.76,1.58,9.11-.48-.06-.93.13-.85.61.05.35.49.65.75.96l.72-.92ZM20.72,178.81c-1.39-.09-2.8-.02-3.53,1.31-.76,1.39-.33,2.8.54,4.05,1.73,2.51,4.28,3.82,7.11,4.52.9.22,1.84,1.91,3.04.08.93-1.43,1.8-2.56.88-4.4-1.69-3.38-4.37-5.15-8.04-5.57ZM26.98,207.04c4.13.01,7.04-3.6,6.8-8.48-.04-.73.22-1.63-.71-2.02-.8-.34-1.35.1-2.04.57-2.32,1.59-3.94,3.85-5.94,5.75-.84.8-2.12,1.67-1.4,3.04.64,1.2,2.08,1.05,3.29,1.13ZM23.4,192.81c-1.75-.17-3.2-.35-4.56.25-1.95.87-2.95,2.51-2.49,4.54.47,2.08,2.42,1.57,3.86,1.39,1.28-.16,2.59-.59,3.74-1.18,1.7-.88,4.63-1.56,4.32-3.43-.37-2.28-3.31-1.31-4.87-1.57ZM31.49,181.86c.05,3.67,1.66,6.31,3.74,5.77,2.31-.6,2.66-3.03,2.79-5.13.16-2.75-1.82-5.65-3.79-5.45-3.21.33-2.55,3.01-2.74,4.81ZM45.13,191.02c-1.12-1.41.29-4.87-2.72-4.87-2.36,0-4.66,2.65-4.5,4.59.18,2.1,3.48,2.34,5.52,2.96,1.78.55,1.59-1.25,1.71-2.68ZM44.35,201.26c-.08-3.04-2.04-4.42-4.63-5.25-.67-.21-1.77-1.02-1.92.02-.3,2.02.75,3.83,1.88,5.48.31.45.67.88,1.08,1.24.73.65,1.52,1.44,2.6.83.85-.48.97-1.41.99-2.32ZM50.02,180.54c-2.43.17-4.62.87-6.7,3.46,3.16-.45,4.87-2.06,6.7-3.46Z"/>
  <path class="cls-1" d="M38.07,107.95c2.79,2.96,3.59,6.36,2.6,10.07-2.1,7.9-11.18,15.2-19.24,15.55-9.23.4-17.95-5.27-21.06-13.71-.18-.49-.66-1-.15-1.51.67-.66,1.25.01,1.76.29,3.5,1.9,7.01,3.76,10.79,5.06.84.29,1.69.53,2.52.83,13.64,4.96,20.94-3.89,22.56-15.38.06-.41.14-.81.21-1.21Z"/>
  <path class="cls-1" d="M114.31,28.82c.9-.25,1.19-1.44,1.64-2.44,4.31-9.41,20.05-18.78,30.18-17.99,1.71.13,1.48,1.12.91,2.01-5.29,8.3-10.89,16.26-21.25,18.89-4.05,1.03-8.04,1.35-11.49-.48ZM137.9,15.26c-7.39.63-20.27,9.13-20.78,13.5,7.07-4.59,13.92-9.04,20.78-13.5Z"/>
  <path class="cls-1" d="M37,165.47c-4.6-4.92-6.43-10.36-6.87-16.56-.68-9.61,4.81-15.98,10.84-22.19.44-.45.98-.56,1.5-.32.66.31.47.92.29,1.44-.61,1.78-1.12,3.61-1.89,5.31-4.49,9.86-5.82,20.1-3.89,30.76.08.42,0,.86,0,1.56Z"/>
</svg>