<?xml version="1.0" encoding="UTF-8"?>
<svg id="Layer_1" data-name="Layer 1" xmlns="http://www.w3.org/2000/svg" version="1.1" viewBox="0 0 118.65 114.4">
  <defs>
    <style>
      .cls-1 {
        fill: #dc9714;
      }

      .cls-1, .cls-2, .cls-3, .cls-4, .cls-5, .cls-6, .cls-7, .cls-8, .cls-9, .cls-10, .cls-11, .cls-12, .cls-13, .cls-14, .cls-15, .cls-16 {
        stroke-width: 0px;
      }

      .cls-2 {
        fill: #d7921d;
      }

      .cls-3 {
        fill: #722185;
      }

      .cls-4 {
        fill: #7f3178;
      }

      .cls-5 {
        fill: #823b8f;
      }

      .cls-6 {
        fill: #702086;
      }

      .cls-7 {
        fill: #7c2d7d;
      }

      .cls-8 {
        fill: #ce8918;
      }

      .cls-9 {
        fill: #762885;
      }

      .cls-10 {
        fill: #712086;
      }

      .cls-11 {
        fill: #853978;
      }

      .cls-12 {
        fill: #d08b17;
      }

      .cls-13 {
        fill: #772a8a;
      }

      .cls-14 {
        fill: #fcc303;
      }

      .cls-15 {
        fill: #742584;
      }

      .cls-16 {
        fill: #fefefe;
      }
    </style>
  </defs>
  <path class="cls-14" d="M70.16,82.46c-.05-.28.07-.49.25-.68,2.26,1.92,3.55.96,4.8-1.8-.9-.19-1.66-.67-2.44-1.11-.13-.32.21-.44.3-.67,2.42,1.71,3.45,1.16,4.38-2.36-.86-.15-1.74-.23-2.54-.6.13-.29.26-.58.39-.87,2.05,1.07,2.59.82,3.04-1.39.02-.12.06-.23.09-.35q.36-1.85-1.53-1.91c-.32,0-.64-.05-.95-.07,0-.29.02-.57.03-.86q2.81.21,2.81-2.53c0-.08,0-.16,0-.24q0-2.01-1.83-1.32c-.18.07-.38.09-.57.13-.27-.12-.31-.34-.26-.6.3-.07.67-.07.9-.24.62-.45,1.66-.57,1.59-1.64-.1-1.57-.29-3.14-.7-4.75-.89.54-1.71,1.04-2.53,1.54-.18-.16-.24-.37-.24-.61.53-.33,1.07-.64,1.57-1,.74-.53,1.11-1.18.7-2.14-.37-.87-.64-1.78-.97-2.67-.09-.25-.15-.6-.47-.62-.31-.02-.41.3-.55.54-.51.88-.98,1.79-1.71,2.53-.23-.13-.53-.21-.31-.57.3-.45.6-.9.89-1.36,1.35-2.1,1.22-3.39-.54-4.78-.42,1.61-1.11,3.08-1.95,4.49-3.94,3.84-8.52,4.43-13.58,2.71-.56-.19-1.13-.34-1.7-.51-.43-.57-.87-1.13-1.4-1.83v1.86c-.27-.01-.54-.02-.8-.04.2-2.1-.38-4.09-.81-6.1-.14-1.85-.28-3.7.04-5.56.09-.53.44-1.53-.32-1.63-.65-.09-.65.95-.8,1.52-.48,1.87-.19,3.8-.28,5.7-.24.02-.48.07-.71.04-.98-.13-1.16.24-1.01,1.19.27,1.65.18,3.32-.03,4.98-.27,0-.54.01-.8.02,0-.06-.02-.12-.06-.16.35-1.7.26-3.4.05-5.11-.08-.66-.33-.92-1-.81-.39.07-.79.11-1.19.11-.54,0-.69.26-.66.74.09,1.73-.29,3.4-.59,5.08-.05.05-.09.12-.09.19-.29-.03-.59-.05-.88-.08.46-1.65.8-3.32.76-5.04,0-.3.11-.76-.27-.83-.81-.15-1.67-.32-2.47-.19-.51.08-.66.81-.86,1.37-.59,1.61-1.28,3.18-1.94,4.77-.23,0-.46,0-.69,0,0-.16,0-.31,0-.47.53-1.26,1.3-2.41,1.7-3.74.64-2.13.69-2.12-1.19-3.19v-3.9c-.13,0-.25,0-.38-.01-.11,1.29-.46,2.52-.79,3.75-.51,2.51-1.28,4.98-1.22,7.59-1.79,2.25-4.61,3.03-7.28,2.04-1.56-.57-2.88-1.52-4.18-2.5-.68-.52-1.18-.56-1.61.24-.04.07-.09.13-.14.19-.44.47-.7,1.36-1.51,1.11-.84-.25-.47-1.15-.61-1.78.4-.65.29-1.33.1-2-.04-.14-.3-.17-.4-.04-.45.65-.57,1.35-.16,2.07-.41.43-.82.86-1.24,1.28-.26.26-.57.46-.96.3-.41-.16-.43-.53-.43-.9,0-.52,0-1.03,0-1.55-.15-.56.3-1.66-.33-1.61-.76.06-.31,1.11-.37,1.74-.55.54-1.12,1.08-1.66,1.63-.27.28-.5.65-.96.52-.55-.16-.46-.65-.51-1.06.3-1.29.7-2.51,1.71-3.45.67-.62,1.26-1.32,1.89-1.98,1.04-.29,2-.89,3.14-.73,1.06-.02,2.09.12,3.09.51.68.27,1.32.7,2.08.73.73.74,1.63,1.2,2.74,1.68-.21-1.3-.15-2.6-.69-3.55-.31-.55-1.59.09-2.45,0-.16-.02-.32-.02-.47-.03-.17-.24-.35-.47-.52-.71.35-.02.71-.05,1.06-.06q2.4-.07,2.35-2.4c0-.47.03-.95.07-1.42.04-.5-.06-.73-.66-.58-1.55.38-3.14.39-4.72.35-.33-.15-.51-.39-.5-.76,1.64.07,3.25-.05,4.87-.33.84-.15,1-.53.91-1.3-.14-1.18-.65-2.19-1.19-3.22-.25-.49-.64-.46-.99-.25-1.5.86-3.15,1-4.82,1.05-.25-.21-.78-.28-.37-.79,1.61.15,3.13-.33,4.66-.68.57-.13.94-.56.58-1.26-.34-.67-.66-1.35-.93-2.05-.2-.51-.43-.52-.88-.27-1.3.72-2.7,1.06-4.19.99-.12-.16-.3-.29-.22-.53.54-.06,1.08-.14,1.62-.18,2.76-.23,3.49-1.35,2.53-3.87-.04-.11-.11-.22-.14-.33-.12-.55-.43-.51-.85-.33-1.37.57-2.69,1.3-4.25,1.14-.11-.28-.21-.56-.32-.83,1.16-.01,2.29-.09,3.39-.54,1.62-.66,2.13-1.66,1.54-3.29-.1-.27-.42-.55-.08-.86.75-.67,1.37-1.55,2.61-1.35.36.06.79-.13,1.14-.29,1.13-.52,1.22-1.29.28-2.07-.8-.66-1.6-1.32-2.39-1.98-.26-.21-.5-.7-.87-.37-.45.4.04.72.3.96.86.81,1.75,1.59,2.66,2.41-1.48,1.01-2.98.34-4.39.19-.2.57.54,1.18.18,1.26-1.72.41-.61,1.41-.38,1.98.42,1.01-.04,1.15-.82,1.21-.33.03-.62-.07-.92-.19-.5-.2-1.09-.73-1.25.39-.06.43-.52.28-.77.07-.82-.67-1.28-.22-1.66.51-1.87.96-2.03.94-2.8-.95-.32-.79-.93-.91-1.59-1.03-2.36-.43-4.69-.93-6.76-2.24-1.16-.73-2.2-1.56-3.69-1.78-1.38-.2-1.58-1.61-1.75-2.82,1.38-.27,2.57-.08,3.78.83,1.92,1.42,4.05,2.51,6.5,2.78.57.06,1.13.07,1.6-.27.31-.23.4-.6.25-.97-.11-.28-.38-.32-.59-.15-1.1.9-2.2.33-3.26-.02-1.71-.56-3.21-1.55-4.72-2.51-1.35-.86-2.96-.85-3.96-.05-.59.33-.91-.17-1.31-.42v-1.68c.06-.04.18-.09.18-.13-.05-3.71,2.89-5.09,5.33-6.86.57-.42,1.21-.75,1.78-1.17.25-.18.51-.32.75-.16.28.18.19.53.07.76-.33.63-.87,1.45-.54,1.94.35.54,1.28.69,1.96,1.01,1.07.51,2.03.48,3.12-.19,1.71-1.07,3.63-1.69,5.6-2.15.29.26.65.2,1,.26,1.08.18,2.2.13,3.25.51.06.41-.34.58-.47.89-.33.17-.58.41-.69.78-.56,1.94,2.11,4.83,4.02,4.16,1.09-.38,2.09-.58,3.19-.42.25.4.35.85.44,1.31.41,1.98.33,4.09,1.65,5.83.47.62.84,1.32,1.26,1.98-.46.28-.56.78-.63,1.23-.25,1.53-.25,3.07.02,4.6.15.85.16,1.77,1,2.38-.68-2.43-.66-4.77.77-6.94.67-.31,1.34-.63,2.01-.94,2.12.24,4.28.33,6.16,1.55-.63.26-1.23.23-1.79-.17-.3-.21-.55-.43-.87.06-.84,1.32-.87,1.31-2.2.49-.19-.12-.37-.38-.59-.11-.16.2-.11.47.03.67.4.56.96.82,1.64.79.69-.03,1.28.08,1.87.54.56.43,1.31.56,2.05.31.45-.15.66-.49.53-.93-.21-.68-.52-.09-.79-.02-.78.18-1.52.19-2.01-.67.85-.29,2.08.81,2.35-.83.54.28,1.08.56,1.62.84.49.33.98.67,1.48,1-.97.71-1.48-.6-2.49-.56.41.91.98,1.4,1.87,1.51.57.07.95-.1.87-.77.4.11.79.21,1.19.32.57,1.14,1.75.96,2.69,1.13,1.46.27,1.92-.15,2.31-1.68.56-.81.21-1.7.24-2.56-.38-1.37-.53-2.79-.88-4.17-1.67-6.72-4.25-12.95-9.33-17.87-1.03-1.86-3.71-2-5.41-.28-.1.1-.18.22-.29.35-.43-1.51.49-3.1,2.26-3.25,3.22-.27,6.22-1.54,9.46-1.68,3.63-.16,7.23-.1,10.86.07,9.1.41,17.81,2.47,25.86,6.6,8.02,4.11,15.65,8.98,22.21,15.25,4.2,4.02,8.52,7.96,11.87,12.78.34.48,1.15,1.08.69,1.54-.5.5-.99-.44-1.5-.71-.03-.02-.06-.05-.1-.07-.01-.25-.14-.43-.32-.61-2.19-2.19-4.57-4.18-6.85-6.29-6.02-5.58-12.42-10.65-19.5-14.8-12.2-7.15-25.05-12.05-39.54-11.08-.66.04-1.37-.13-1.94.37,14.85,3.88,26.12,8.83,36.78,16.35,6.04,4.27,11.83,8.85,16,15.12.46.69,1.02,1.33,1.23,2.16-.27,0-.53.02-.8.03-.07-.07-.15-.14-.22-.2-.02-.46-.25-.74-.73-.77-.08,0-.17,0-.25,0,0,0,.01,0,.01,0,.06-.34-.22-.49-.41-.68-3.15-3.11-6.35-6.16-9.73-9.03-10.97-9.33-23.65-15.37-37.36-19.41-.26-.08-.51-.22-.83-.02,1.62,1.18,3.27,2.28,4.81,3.51,7.76,6.2,14.46,13.33,19.17,22.17-.1.11-.21.21-.31.32-.59-.58-1.24-1.11-1.77-1.75-2.71-3.24-5.44-6.47-8.33-9.55-5.15-5.49-10.64-10.56-17.3-14.21-.41-.22-.78-.63-1.4-.51.12.23.18.37.27.5,3.25,4.86,5.59,10.1,6.57,15.88.54,3.16,1.28,6.34.53,9.59-.1.46.09.86.37,1.21,1.77,2.2,3.39,4.54,5.41,6.54.41.4.78,1.16,1.43.83.73-.37.13-1.08.03-1.6-.67-3.26-1.13-6.52-.16-9.81l.74-.02c5.09,1.82,9.01,5.22,12.3,9.38,4.19,5.3,6.98,11.28,8.28,17.93.85,4.36,1.21,8.74.43,13.13-.26,1.46-.27,3.01-1.05,4.36-2.01,3.49-4.47,6.62-7.49,9.29-1.75,1.55-3.37,3.23-4.88,5.02-3.43,3.29-4.97,7.44-5.41,12.06-.25,2.61-.2,5.22,1.09,7.63.41,1.27.83,2.54,1.24,3.81-.56.22-.8-.75-1.4-.39-.13-.18-.25-.37-.38-.55.71-.26.48-.71.17-1.08-.31-.36-.81-.17-1.21-.25-.17-.28-.34-.55-.51-.83.38-.14,1.04.4,1.14-.33.07-.48-.12-1.03-.82-1.09-.39-.03-.77-.15-1.16-.23-.05-.3-.09-.6-.14-.9.11.04.23.11.34.11.42-.01.91.57,1.24-.04.27-.48-.42-1.48-1.03-1.61-.35-.08-.69-.18-1.03-.27-.22-.34-.25-.73-.22-1.12.55.31,1.19.84,1.73.49.42-.26.08-1.04.13-1.58.05-.45-.19-.59-.62-.66-.5-.08-.98-.29-1.47-.44,0-.34-.01-.67-.02-1.01.14.08.27.16.41.23,1.44.72,1.54.61,1.76-.93.14-.96-.07-1.45-1.03-1.65-.33-.07-.62-.33-.93-.5-.04-.33-.08-.66.09-.97.58.52,1.21,1.37,2,.83.75-.51.81-1.6.99-2.48.16-.74-.71-.38-1-.72-.25-.29-.59-.52-.89-.77-.05-.3-.09-.59.26-.74.09.08.19.14.26.23.49.59,1.32,1.16,1.81.66.67-.69.93-1.79,1.36-2.72.01-.03-.14-.18-.24-.21-.69-.22-.93-.96-1.53-1.27.03-.29.23-.41.47-.49,1.63,1.44,1.66,1.45,2.74-.39.29-.5,1.07-.95.66-1.6-.31-.49-.97-.75-1.48-1.12-.07-.29.05-.51.26-.69.26.23.52.48.8.7.52.39,1.15.49,1.61.04.8-.78,1.48-1.68,2.27-2.59-.98-.06-1.68-.47-2.29-1.05ZM33.52,44.91c1.5.19,2.18-1.33,3.42-1.69.19-.06.21-.42.13-.66-.06-.18-.21-.25-.37-.15-1.37.87-.96-.31-1.03-.9-.04-.32,0-.67-.37-.81-.27-.1-.45.12-.61.28-.37.39-.79.79-1.34.51-.59-.3-.25-.92-.3-1.41-.02-.15.07-.31.11-.46.08-.26.02-.49-.24-.59-.28-.11-.45.09-.55.32-.27.63-.58,1.45-.21,1.95.81,1.1.73,2.48,1.35,3.61-.63.08-1.42.41-1.24-.8.03-.21-.13-.37-.38-.36-.28.02-.46.2-.49.44-.1.73-.13,1.55.69,1.84.93.33,1.27-.34,1.41-1.14ZM61.23,42.28c-.99-.81-1.74-1.34-2.38-1.97-1.8-1.76-3.86-3.2-5.78-4.82-.42-.36-.89-.77-1.5-.57-1.52.49-3.01.11-4.48-.17-2.39-.46-4.61-1.5-6.95-2.15-1.08-.3-2.09-.36-2.72.76-.62,1.09-.46,3.29.24,3.92,1.87,1.69,3.89,3.18,6.11,4.37.49.26,1.01.48,1.55.6.45.1.79.03.48-.64-.45-.99-.11-1.48.96-1.53,1.59-.07,3.07.45,4.56.85,3.13.85,6.31,1.22,9.9,1.34ZM62.36,47.75c1.63,1.14,2.43,1.31,2.81.52.42-.87.2-1.66-.7-2.32-.03.27-.04.42-.07.57-.1.47.28,1.31-.28,1.34-.61.02-1.09-.71-1.36-1.35-.09-.21,0-.48-.06-.71-.14-.58-.33-1.13-1-1.3-.28.38.01.65.03.95.02.37.24.85-.23,1.07-.49.22-.81-.14-1.09-.51-.25-.33-.26-1.02-.75-.96-.5.06-.3.81-.64,1.17-.17.19-.09.61-.12.92-.09.85-.57.79-1.05.38-.49-.42-.73-1.03-.86-1.67-.04-.21-.11-.41-.35-.4-.32,0-.34.26-.37.51-.14,1.01.89,2.67,1.92,2.71.95.04,1.51.45,2.11,1.06.33.34.76.55,1.3.31.59-.26.68-.7.68-1.26,0-.34-.12-.7.09-1.03ZM17.4,16.74c-.5.76-.38,1.61-.39,2.48-.74-.07-1.35-.23-1.76-.87-.11-.18-.28-.48-.55-.24-.24.21-.03.43.14.6,1.29,1.23,2.79,1.97,4.6,1.94.52,0,.9-.21,1.03-.8.25-1.19-.59-2.82-1.9-3.61-1.17-.7-2.95-.63-3.84.14-.18.16-.41.33-.23.58.17.24.42.12.65.02.71-.31,1.42-.5,2.25-.24ZM72.89,41.41c1.35.11,1.71-.27,1.58-1.53-.03-.27.01-.63-.36-.64-.4-.01-.36.35-.36.62,0,.8-.29.83-.8.32-.14-.14-.27-.29-.42-.42-.17-.14-.33-.41-.59-.19-.18.15-.11.4.01.54.47.55.47,1.17.46,1.84,0,.33.32.73-.08.96-.4.23-.63-.19-.89-.41-.26-.22-.52-.68-.87-.32-.29.31.1.64.3.92.14.19.32.36.51.49.52.33,1.1.62,1.64.16.54-.46.61-1.09.23-1.72-.1-.17-.2-.34-.37-.62ZM22.49,20.54c-.51.55-.63,1.53-1.59.94-.74-.45-1.28-.22-1.66.51-.23.46-.57.5-.99.3-.22-.1-.46-.52-.68-.15-.23.39.14.69.45.84.27.13.65.21.91.13.61-.2,1.01-.03,1.48.38.57.5,1.24.47,1.85-.04.16-.13.26-.31.18-.53-.1-.26-.3-.14-.49-.12-.43.05-.87.11-1.3.07-.65-.06-.68-.15-.59-1.06.75.58,1.61.93,2.42.38.5-.34.34-.98.01-1.65ZM80.97,65.92c.24,1.18.65,2.3.54,3.5-.02.22.35.52.6.69.45.32.91.12,1.11-.28.22-.45-.25-.45-.55-.52-.37-.08-.52-.33-.54-.68-.01-.33-.01-.64.42-.73.79-.17.48-.75.47-1.34-1.19,1.24-1.46.07-2.06-.65ZM3.49,14.44c1.21.18,2.08.76,3.05,1.1.33.12.65.1.81-.26.14-.3-.05-.52-.27-.72-.66-.59-2.61-.73-3.58-.12ZM74.48,44.1c.23.8.71,1.39,1.61,1.64.57.16.79-.25,1.05-.56.29-.35.2-.74-.01-1.11-.19-.33-.39-.35-.63-.05-.69.83-.7.83-1.26-.21-.1-.19-.09-.54-.42-.45-.31.08-.35.39-.34.75ZM79.72,74c0,.35,0,.66.22.92.28.33.63.48,1.05.33.27-.09.55-.29.53-.57-.02-.49-.48-.25-.74-.34-.21-.07-.3-.22-.34-.43-.05-.28.08-.74-.42-.67-.42.06-.26.5-.31.75Z"/>
  <path class="cls-6" d="M102.78,36.77c-.21-.84-.77-1.47-1.23-2.16-4.17-6.27-9.95-10.85-16-15.12-10.66-7.53-21.93-12.48-36.78-16.35.57-.5,1.28-.32,1.94-.37,14.49-.97,27.34,3.93,39.54,11.08,7.08,4.15,13.48,9.23,19.5,14.8,2.27,2.11,4.65,4.09,6.85,6.29.18.18.31.36.32.61-.92.07-1.42-.74-2.18-1.02-1.44-.53-2.74-1.49-4.39-1.33-2.17-1.33-5.34-.57-6.45,1.55-.72.74.07,1.77-.48,2.55-.21-.17-.42-.35-.63-.52Z"/>
  <path class="cls-10" d="M76.45,32.39c-4.72-8.84-11.41-15.97-19.17-22.17-1.54-1.23-3.19-2.34-4.81-3.51.32-.21.58-.06.83.02,13.72,4.04,26.4,10.08,37.36,19.41,3.37,2.87,6.58,5.92,9.73,9.03.18.18.47.33.41.68-.63.25-.87-.51-1.39-.54-1.31-1.11-2.79-1.98-4.25-2.86-3.8-2.27-7.68-4.39-12.13-5.13-3.52-.58-5.39.83-5.73,4.34-.05.53-.12.99-.84.74Z"/>
  <path class="cls-13" d="M70.12,88.93c1.51-1.79,3.13-3.47,4.88-5.02,3.02-2.67,5.48-5.8,7.49-9.29.78-1.35.79-2.9,1.05-4.36.78-4.4.42-8.77-.43-13.13-1.3-6.66-4.09-12.63-8.28-17.93-3.29-4.16-7.21-7.56-12.3-9.38.07-.55.42-.94.79-1.3.62-.62,1.28-.99,1.7.17.26.7.77.38,1.2.4.83.03,1.83-.12,2.17.83.22.62.52.63,1,.72,1.56.29,2.01.93,1.64,2.22.92.21,1.9.33,2.43,1.28-.02.25-.33.67-.02.73.78.16,1.36.88,2.22.74h-.01c.3,1.12.35,2.33,1.89,2.73.76.2,1.51.91.87,1.94-.27.44.09.45.29.58.84.55,1.96.88,1.61,2.3-.08.34.35.37.57.52.46.31.95.59,1.38.94.32.26.63.77.37,1.04-1.07,1.07.08,1.4.57,1.96.53.6.98,1.23.31,1.99-.45.51.06.69.27.96.48.61.99,1.21.34,2.01-.34.41.07.66.22.94.35.65.7,1.28.12,1.98-.36.44.11.63.29.89.59.84,1.2,1.65.33,2.67-.07.08-.13.25-.09.32.75,1.25.41,2.71.76,4.03.27,1.03.54,1.88-.06,3.04-.39.75-.51,1.89-.66,2.85-.42,2.72-1.41,5.14-2.74,7.54-.52.95-1.4,1.78-1.54,2.96-.1.81-.95,1.09-1.42,1.46-1,.79-1.42,2.26-2.88,2.49-.32.05-.36.4-.49.63-.32.54-.49,1.23-1.34,1.15-.07,0-.19.05-.2.09-.19,1.21-1.75,1.28-2.02,2.43-.18.78-1.19.56-1.51,1.19-.29-.02-.6.02-.77-.29Z"/>
  <path class="cls-8" d="M73.45,34.13c-.53-.96-1.51-1.07-2.43-1.28.38-1.29-.08-1.93-1.64-2.22-.48-.09-.79-.1-1-.72-.34-.95-1.34-.8-2.17-.83-.43-.02-.94.3-1.2-.4-.43-1.16-1.09-.79-1.7-.17-.36.36-.72.75-.79,1.3-.25,0-.49.01-.74.02.91-2.38,2.13-3.05,4.5-2.46.42.1.85.23,1.25.4,2.49,1.04,4.59,2.67,6.71,4.3.54.41,1.05,1.1,1.91.64.1-.11.21-.21.31-.32.72.26.79-.2.84-.74.33-3.51,2.21-4.93,5.73-4.34,4.45.74,8.33,2.86,12.13,5.13,1.47.87,2.94,1.75,4.25,2.86-.63,1.22-1.06,2.47-.85,3.88.1.66.16,1.35-.2,2.05-.5-.14-.71-.57-.95-.96-2.31-3.84-5.83-6.1-9.93-7.62-1.54-.58-3.11-.64-4.71-.44-1.15.14-2.83,1.92-3.13,3.15-.19.79.12,1.89-.62,2.27-.3.16-1.16-.89-1.83-1.29-.49-.29-.87-.84-1.55-.75,0,0,.01,0,.01,0-.52-.81-1.47-.97-2.2-1.46Z"/>
  <path class="cls-12" d="M41,4.95c5.09,4.93,7.67,11.15,9.33,17.87.34,1.39.49,2.8.88,4.17-.52-.25-1.08.64-1.25.31-.75-1.48-1.64-.55-2.5-.29-1.05-6.74-3.53-12.93-7.24-18.64-.83-1.28-2.81-1.48-3.78-.36-.21.24-.33.6-.73.35-.28-.18-.2-.46-.12-.75.68-2.49,2.64-3.47,5.01-2.5.18.07.3-.03.39-.17Z"/>
  <path class="cls-2" d="M19.19,50.65c-.63.66-1.22,1.36-1.89,1.98-1.02.94-1.42,2.17-1.71,3.45-.97.08-1.42-.53-1.73-1.31.06-.68.12-1.36.21-2.34-1.07,1.01-.88,2.03-.88,3-.22.27-.41.57-.66.81-.37.35-.81.66-1.36.41-.51-.24-.53-.72-.48-1.2-.09-.9.39-1.78.17-2.88-.83.98-.94,1.98-.98,3-.58.69-1.27,1.22-2.2,1.29-.88.06-1.26-.35-1.07-1.25.87-4.08,4.88-6.78,8.94-6,1.25.24,2.5.45,3.65,1.04Z"/>
  <path class="cls-12" d="M103.9,34.75c1.11-2.11,4.28-2.88,6.45-1.55,2.49,2.18,4.61,4.67,6.49,7.39.16.23.29.47.4.73.11.26.21.6-.02.78-.24.2-.53-.04-.73-.19-1.59-1.19-3.16-2.4-4.74-3.6-2.35-1.77-5.08-2.71-7.86-3.56Z"/>
  <path class="cls-13" d="M35.06,26.08c-.67.31-1.34.63-2.01.94-.31-.49-.68-.94-1.16-1.28-.42-.66-.79-1.36-1.26-1.98-1.32-1.73-1.24-3.85-1.65-5.83-.09-.46-.19-.91-.44-1.31-.05-.53-.33-.96-.58-1.41.16-.08.33-.16.49-.24.14-.05.34-.06.39-.16.1-.17-.07-.27-.22-.31-.8-1.31-1.12-2.75-1.15-4.27,0-.09.02-.17.02-.26.31,0,.62,0,.93,0-.03.15-.06.3-.09.46-.36.16-.37.33-.01.5.13,1.27.69,2.4,1.16,3.56.06.09.12.18.19.27.56.14.99.48,1.41.86,1.32,1.19,1.21,1.82-.48,2.48.51.47,1.04.88,1.46,1.38.5.6.9,1.29.03,1.93-.6.44-.02.53.19.73.66.58,1.62,1.01,1.05,2.19-.16.33.22.35.39.46.55.33,1.07.69,1.33,1.31Z"/>
  <path class="cls-2" d="M23.71,43.69c-.01.37.17.61.5.76.35,1.5.89,2.91,1.91,4.11.17.24.35.47.52.71-.13.82.73,1.19.87,1.89-.77-.04-1.4-.46-2.08-.73-1-.39-2.03-.53-3.09-.51-.56-2.19-1.41-4.3-1.61-6.58-.14-1.55-.21-3.1.21-4.62.13-.46.33-.9.75-1.19.15.44.29.88.44,1.32-.41.51.12.58.37.79.11,1.44.78,2.71,1.22,4.05Z"/>
  <path class="cls-7" d="M18.29,28.69c.38-.73.83-1.18,1.66-.51.26.21.71.36.77-.07.16-1.12.75-.6,1.25-.39.3.12.59.22.92.19.78-.07,1.24-.2.82-1.21-.23-.57-1.34-1.57.38-1.98.35-.08-.39-.69-.18-1.26,1.41.15,2.91.82,4.39-.19-.91-.82-1.8-1.6-2.66-2.41-.26-.25-.76-.56-.3-.96.37-.32.61.16.87.37.8.66,1.6,1.32,2.39,1.98.95.79.86,1.55-.28,2.07-.35.16-.78.35-1.14.29-1.24-.19-1.86.69-2.61,1.35-.34.3-.02.59.08.86.58,1.63.08,2.63-1.54,3.29-1.1.45-2.23.52-3.39.54-.48-.65-.95-1.31-1.43-1.96Z"/>
  <path class="cls-15" d="M40.41,56.37c.65-1.59,1.35-3.16,1.94-4.77.2-.55.36-1.28.86-1.37.79-.13,1.65.04,2.47.19.38.07.26.53.27.83.04,1.72-.3,3.39-.76,5.04-1.59.16-3.19.13-4.78.08Z"/>
  <path class="cls-15" d="M50.43,56.32c.22-1.66.31-3.33.03-4.98-.16-.95.03-1.32,1.01-1.19.23.03.47-.02.71-.04.46.11.9-.28,1.36-.03.44,2.01,1.02,4,.81,6.1-1.31.05-2.62.09-3.92.14Z"/>
  <path class="cls-15" d="M47.47,27.02c.86-.27,1.75-1.19,2.5.29.17.33.72-.56,1.25-.31-.03.86.33,1.75-.24,2.56-1.68.11-3.37.05-5,.55-.4-.11-.79-.21-1.19-.32-.08-.06-.17-.12-.25-.18-.49-.33-.98-.67-1.48-1,.51-.76,1.3-1.15,2.09-1.53.47-.23,1.01-.34,1.42.15.46.55.65.04.91-.21Z"/>
  <path class="cls-15" d="M37.84,56.4c-.06-2.6.71-5.07,1.22-7.59.43-.24.78.12,1.17.16,1.88,1.07,1.83,1.06,1.19,3.19-.4,1.33-1.18,2.48-1.7,3.74-.11.16-.22.31-.33.47l-1.55.02Z"/>
  <path class="cls-13" d="M22.49,11.22c-1.05-.38-2.17-.33-3.25-.51-.34-.06-.71,0-1-.26.09-.22.17-.43.26-.65.19-.43.32-.98.91-.97.64.02.6.64.77,1.19.45-.69.74-1.41,1.4-1.81.53-.32,1.23-.5,1.32.27.12,1.13.66.58,1.14.46.27.47.69.58,1.2.57.62,0,1.05.27,1.14.94-.21.1-.42.24-.64.3-1.18.33-1.28,1.07-.81,2.04.44.91.82,1.86,1.46,2.66-.02.33-.13.55-.52.47-.99-1.09-1.51-2.43-1.9-3.81-.13-.46-.28-.7-.74-.71-.19-.3-.48-.19-.74-.19Z"/>
  <path class="cls-15" d="M20.04,31.48c1.56.16,2.89-.57,4.25-1.14.42-.17.74-.22.85.33.02.11.09.22.14.33.96,2.52.23,3.63-2.53,3.87-.54.05-1.08.12-1.62.18-.36-1.19-.73-2.38-1.09-3.57Z"/>
  <path class="cls-15" d="M46.17,56.17c.31-1.68.69-3.35.59-5.08-.03-.48.12-.75.66-.74.4,0,.8-.04,1.19-.11.66-.11.92.15,1,.81.2,1.71.3,3.41-.05,5.11-.08.06-.15.12-.23.17-.97,0-1.93.01-2.9.02-.09-.06-.17-.13-.26-.19Z"/>
  <path class="cls-15" d="M22.12,38.85c-.15-.44-.29-.88-.44-1.32.15-.69-.39-1.27-.34-1.95,1.49.07,2.89-.27,4.19-.99.46-.25.68-.24.88.27.28.7.59,1.38.93,2.05.36.7,0,1.13-.58,1.26-1.53.35-3.05.83-4.66.68Z"/>
  <path class="cls-5" d="M70.12,88.93c.18.31.49.27.77.29-.46.3-.88.59-.95,1.22-.11,1.05-1.14,1.47-1.62,2.34-1.2,2.22-2.53,4.33-2.75,6.93-.16,1.86-.87,3.7-.29,5.59.34,1.09.62,2.17.51,3.32-1.29-2.41-1.34-5.02-1.09-7.63.44-4.61,1.99-8.77,5.41-12.06Z"/>
  <path class="cls-9" d="M75.38,60.16c.82-.5,1.64-1,2.53-1.54.41,1.61.6,3.18.7,4.75.07,1.07-.97,1.19-1.59,1.64-.23.17-.6.16-.9.24-.24-1.7-.49-3.39-.73-5.08Z"/>
  <path class="cls-9" d="M73.72,56.2c.72-.74,1.2-1.65,1.71-2.53.14-.25.24-.56.55-.54.32.02.38.37.47.62.33.89.6,1.8.97,2.67.41.95.04,1.61-.7,2.14-.5.36-1.05.67-1.57,1-.5-1.1-1.1-2.17-1.42-3.35Z"/>
  <path class="cls-11" d="M1.31,19.49c1-.81,2.61-.81,3.96.05,1.51.96,3.01,1.94,4.72,2.51,1.06.35,2.16.92,3.26.02.2-.17.48-.12.59.15.14.37.05.74-.25.97-.47.35-1.03.34-1.6.27-2.45-.27-4.58-1.35-6.5-2.78-1.21-.9-2.4-1.09-3.78-.83-.13-.12-.26-.25-.4-.37Z"/>
  <path class="cls-14" d="M28.33,10.43c.03-.15.06-.3.09-.46.02-.15.04-.3.06-.46,1.43-.1,2.59.48,3.58,1.45-.96,1.04-1.03,2.31-.92,3.63-.5-.01-1-.03-1.5-.04-.05-.04-.11-.06-.17-.06-.47-1.16-1.03-2.29-1.16-3.56,0-.17,0-.34.01-.5Z"/>
  <path class="cls-15" d="M76.37,65.84c.19-.04.39-.06.57-.13q1.82-.69,1.83,1.32c0,.08,0,.16,0,.24q0,2.73-2.81,2.53c.09-1.32-.08-2.67.41-3.95Z"/>
  <path class="cls-15" d="M72.76,78.86c.78.44,1.55.92,2.44,1.11-1.25,2.76-2.53,3.72-4.8,1.8.79-.97,1.24-2.21,2.35-2.91Z"/>
  <path class="cls-15" d="M71.83,53.98c.84-1.41,1.52-2.88,1.95-4.49,1.75,1.38,1.89,2.68.54,4.78-.29.46-.6.9-.89,1.36-.81-.28-.85-1.3-1.59-1.64Z"/>
  <path class="cls-15" d="M75.93,70.65c.32.02.64.06.95.07q1.9.06,1.53,1.91c-.02.12-.06.23-.09.35-.45,2.22-.98,2.46-3.04,1.39.21-1.24.42-2.48.64-3.72Z"/>
  <path class="cls-15" d="M74.9,75.24c.81.37,1.68.45,2.54.6-.93,3.52-1.96,4.07-4.38,2.36.61-.99,1.23-1.97,1.84-2.96Z"/>
  <path class="cls-15" d="M70.16,82.46c.62.58,1.31.98,2.29,1.05-.79.91-1.48,1.8-2.27,2.59-.46.45-1.09.36-1.61-.04-.28-.21-.53-.46-.8-.7.77-.98,1.28-2.19,2.38-2.9Z"/>
  <path class="cls-9" d="M65.13,89.65c.6.31.85,1.05,1.53,1.27.1.03.25.18.24.21-.42.93-.68,2.03-1.36,2.72-.49.5-1.32-.07-1.81-.66-.07-.09-.18-.16-.26-.23.22-1.27,1-2.27,1.66-3.32Z"/>
  <path class="cls-1" d="M41.42,27.76c-.27,1.64-1.5.54-2.35.83.49.86,1.23.85,2.01.67.28-.06.58-.66.79.02.14.44-.08.78-.53.93-.73.24-1.49.11-2.05-.31-.59-.46-1.18-.57-1.87-.54-.68.03-1.24-.23-1.64-.79-.14-.2-.19-.47-.03-.67.23-.27.4,0,.59.11,1.34.82,1.36.83,2.2-.49.31-.49.56-.27.87-.06.57.4,1.16.43,1.79.17.07.04.14.09.2.13Z"/>
  <path class="cls-9" d="M67.52,86.05c.51.36,1.17.63,1.48,1.12.41.65-.37,1.1-.66,1.6-1.08,1.85-1.1,1.83-2.74.39.33-1.23.94-2.28,1.92-3.11Z"/>
  <path class="cls-9" d="M63.21,93.71c.3.25.63.48.89.77.29.33,1.15-.02,1,.72-.18.88-.24,1.97-.99,2.48-.8.53-1.42-.32-2-.83.18-1.11.35-2.22,1.11-3.13Z"/>
  <path class="cls-14" d="M34.06,15.73c-.7-.09-1.34-.33-1.93-.73-.13-1.22-.31-2.46.69-3.46.39.23.79.46,1.18.69.24.28.47.57.71.85-.57.8-.79,1.68-.66,2.65Z"/>
  <path class="cls-15" d="M62.01,97.81c.31.17.6.43.93.5.95.2,1.16.69,1.03,1.65-.22,1.54-.32,1.65-1.76.93-.14-.07-.27-.16-.41-.23-.01-.95-.25-1.92.21-2.84Z"/>
  <path class="cls-14" d="M37.27,16.16c-.75.09-1.49.16-2.2-.19-.28-.87-.1-1.66.4-2.4.35.08.71.16,1.06.24.07.42.5.45.73.71-.14.55-.13,1.09.01,1.64Z"/>
  <path class="cls-9" d="M61.82,101.66c.49.15.97.36,1.47.44.43.07.67.21.62.66-.05.54.29,1.31-.13,1.58-.55.34-1.18-.19-1.73-.49-.27-.71-.28-1.44-.22-2.19Z"/>
  <path class="cls-2" d="M26.38,10.46c-.08-.67-.51-.95-1.14-.94-.51,0-.93-.1-1.2-.57.45-.71,1.06-1.15,1.93-1.15.1.1.21.2.31.29,0,0,0,0,0,0,.01.2.1.36.29.46.16.24.31.48.47.72.04.31.17.56.45.72,0,.09-.02.17-.02.26-.36.08-.73.16-1.09.23Z"/>
  <path class="cls-11" d="M32.82,11.54c-1,1-.82,2.23-.69,3.46-.33-.13-.66-.27-.99-.4-.11-1.31-.04-2.58.92-3.63.33.08.57.29.76.57Z"/>
  <path class="cls-7" d="M62.26,104.97c.34.09.68.19,1.03.27.6.13,1.29,1.13,1.03,1.61-.33.61-.82.02-1.24.04-.11,0-.22-.07-.34-.11-.33-.56-.49-1.16-.48-1.81Z"/>
  <path class="cls-14" d="M38.11,14.8c.67-.02,1.34-.04,2.01-.05.22,0,.51-.1.59.22.07.28-.18.41-.38.53-.65.4-1.32.71-2.11.59-.14-.42-.18-.85-.11-1.29Z"/>
  <path class="cls-2" d="M36.56,12c.57-.34,1.14-.69,1.72-1,.15-.08.4-.07.54,0,.22.12.09.35.02.52-.25.64-.63,1.17-1.28,1.46-.34-.33-.67-.66-1.01-.99Z"/>
  <path class="cls-11" d="M35.47,13.57c-.5.74-.68,1.53-.4,2.4-.37.05-.72,0-1.02-.24-.14-.97.09-1.85.66-2.65.36,0,.6.18.76.49Z"/>
  <path class="cls-7" d="M62.88,107.67c.39.08.77.2,1.16.23.7.06.89.61.82,1.09-.1.73-.76.18-1.14.33-.41-.49-.72-1.02-.84-1.65Z"/>
  <path class="cls-11" d="M9.87,55.56c.04-1.02.15-2.02.98-3,.23,1.1-.26,1.98-.17,2.88-.37-.6-.53.2-.82.12Z"/>
  <path class="cls-2" d="M35.47,13.57c-.15-.31-.4-.49-.76-.49-.24-.28-.47-.57-.71-.85.56-.02,1.11-.03,1.67-.05.2.61.7.97,1.13,1.39-.09.08-.18.16-.28.24-.35-.08-.71-.16-1.06-.24Z"/>
  <path class="cls-11" d="M13.18,55.43c0-.97-.19-1.99.88-3-.09.99-.15,1.66-.21,2.34-.23.22-.45.44-.68.66Z"/>
  <path class="cls-11" d="M55.15,56.21v-1.86c.53.69.96,1.26,1.4,1.83-.46.22-.93.19-1.4.03Z"/>
  <path class="cls-1" d="M22.05,55.73c-.41-.73-.29-1.42.16-2.07.09-.13.36-.1.4.04.19.67.3,1.35-.1,2-.15.01-.31.02-.46.03Z"/>
  <path class="cls-11" d="M38.11,14.8c-.07.44-.04.87.11,1.29-.32.02-.63.05-.95.07-.15-.55-.16-1.09-.01-1.64.32,0,.61.07.85.28Z"/>
  <path class="cls-1" d="M67.71,112.87c.62.32.99.88,1.44,1.53-.77-.02-1.28-.33-1.69-.82-.07-.07-.14-.13-.2-.2,0,0,.02.02.02.02,0-.08-.01-.15-.03-.23.21-.03.42-.05.47-.31Z"/>
  <path class="cls-4" d="M36.81,13.57c-.44-.42-.93-.78-1.13-1.39.29-.06.59-.12.88-.18.34.33.67.66,1.01.99-.25.2-.51.39-.76.58Z"/>
  <path class="cls-7" d="M64.22,110.15c.41.08.91-.11,1.21.25.31.37.54.83-.17,1.08-.46-.36-.82-.8-1.04-1.33Z"/>
  <path class="cls-2" d="M102.78,36.77c.21.17.42.35.63.52.11.31.21.62.39,1.15-.71-.63-1.39-.99-1.83-1.64.27,0,.53-.02.8-.03Z"/>
  <path class="cls-1" d="M18.71,55c.06-.63-.39-1.68.37-1.74.63-.05.17,1.05.33,1.61-.23.04-.46.08-.69.12Z"/>
  <path class="cls-11" d="M27.49,9.97c-.28-.16-.42-.41-.45-.72.49-.02.5-.36.48-.71.32.33.64.65.96.98-.02.15-.04.3-.06.46-.31,0-.62,0-.93,0Z"/>
  <path class="cls-13" d="M27.52,8.54c.02.36,0,.7-.48.71-.16-.24-.31-.48-.47-.72,0-.21-.05-.4-.29-.46,0,0,0,0,0,0,.02-.1.03-.19.05-.29.54.02.89.34,1.19.74Z"/>
  <path class="cls-5" d="M65.64,112.04c.6-.37.84.61,1.4.39,0,0,0,0,0,0-.32.25.05.49,0,.74-.64-.15-.91-.76-1.4-1.11Z"/>
  <path class="cls-2" d="M101.04,35.82c.48.03.7.31.73.77-.29-.13-.6-.25-.78-.55.02-.07.03-.15.05-.22Z"/>
  <path class="cls-14" d="M67.04,113.16c.05-.25-.33-.49,0-.74.23.15.45.3.68.45-.05.26-.26.28-.47.31-.07-.02-.15-.03-.22-.03h.02Z"/>
  <path class="cls-1" d="M39.39,56.37c.11-.16.22-.31.33-.47,0,.16,0,.31,0,.47-.11,0-.22,0-.33,0Z"/>
  <path class="cls-11" d="M29.48,14.49c.06,0,.12.02.17.06,0,.07.01.14.01.21-.06-.09-.12-.18-.19-.27Z"/>
  <path class="cls-11" d="M46.17,56.17c.09.06.17.13.26.19-.12,0-.24,0-.35,0,0-.08.04-.14.09-.19Z"/>
  <path class="cls-11" d="M49.34,56.34c.08-.06.15-.12.23-.17.04.05.06.1.06.16-.1,0-.19,0-.29.01Z"/>
  <path class="cls-11" d="M26.33,7.8c-.02.1-.03.19-.05.29-.11-.1-.21-.2-.31-.29.12,0,.24,0,.36,0Z"/>
  <path class="cls-10" d="M101.04,35.82c-.01.07-.03.15-.05.22-.12-.02-.3.01-.2-.22.08,0,.17,0,.25,0Z"/>
  <path class="cls-5" d="M67.03,113.14c.07,0,.15.02.22.03.02.07.03.15.03.23-.16-.01-.26-.09-.25-.26Z"/>
  <path class="cls-5" d="M67.26,113.38c.07.07.14.13.2.2-.13,0-.21-.06-.2-.2Z"/>
  <path class="cls-10" d="M76.14,32.71c-.86.46-1.37-.23-1.91-.64-2.11-1.63-4.22-3.26-6.71-4.3-.4-.17-.82-.29-1.25-.4-2.37-.59-3.59.08-4.5,2.46-.96,3.29-.51,6.55.16,9.81.11.52.7,1.23-.03,1.6-.65.32-1.02-.43-1.43-.83-2.02-2-3.63-4.33-5.41-6.54-.28-.35-.48-.75-.37-1.21.74-3.25,0-6.42-.53-9.59-.98-5.78-3.33-11.02-6.57-15.88-.09-.13-.15-.28-.27-.5.63-.12,1,.29,1.4.51,6.66,3.65,12.15,8.72,17.3,14.21,2.89,3.08,5.62,6.31,8.33,9.55.53.63,1.18,1.17,1.77,1.75Z"/>
  <path class="cls-3" d="M61.23,42.28c-3.59-.12-6.77-.49-9.9-1.34-1.49-.41-2.98-.93-4.56-.85-1.07.05-1.41.54-.96,1.53.31.67-.04.74-.48.64-.54-.12-1.06-.34-1.55-.6-2.22-1.19-4.24-2.68-6.11-4.37-.7-.63-.86-2.82-.24-3.92.63-1.12,1.64-1.06,2.72-.76,2.34.65,4.56,1.69,6.95,2.15,1.47.29,2.96.67,4.48.17.61-.2,1.08.21,1.5.57,1.92,1.62,3.98,3.06,5.78,4.82.64.63,1.39,1.16,2.38,1.97Z"/>
  <path class="cls-3" d="M23.71,43.69c-.44-1.34-1.1-2.61-1.22-4.05,1.67-.05,3.32-.19,4.82-1.05.35-.2.74-.23.99.25.53,1.02,1.04,2.04,1.19,3.22.09.77-.06,1.15-.91,1.3-1.62.28-3.24.4-4.87.33Z"/>
  <path class="cls-15" d="M26.11,48.56c-1.02-1.19-1.56-2.6-1.91-4.11,1.59.03,3.18.03,4.72-.35.6-.15.7.08.66.58-.04.47-.07.95-.07,1.42q.04,2.32-2.35,2.4c-.35.01-.71.04-1.06.06Z"/>
  <path class="cls-1" d="M62.36,47.75c-.22.33-.09.69-.09,1.03,0,.56-.09,1.01-.68,1.26-.54.24-.98.03-1.3-.31-.59-.61-1.16-1.02-2.11-1.06-1.03-.04-2.06-1.7-1.92-2.71.03-.24.05-.5.37-.51.25,0,.31.2.35.4.13.64.37,1.25.86,1.67.48.41.96.47,1.05-.38.03-.31-.05-.74.12-.92.34-.36.14-1.11.64-1.17.49-.06.5.63.75.96.28.36.59.73,1.09.51.47-.21.25-.69.23-1.07-.02-.3-.31-.58-.03-.95.68.16.87.72,1,1.3.05.23-.03.5.06.71.27.64.75,1.38,1.36,1.35.56-.02.18-.87.28-1.34.03-.15.04-.3.07-.57.9.66,1.12,1.45.7,2.32-.38.79-1.18.62-2.81-.52ZM59.94,46.87c-.2,1.06.21,1.66.82,2.15.43.34.7.2.78-.37.17-1.2-.95-1.16-1.59-1.78Z"/>
  <path class="cls-4" d="M17.4,16.74c-.83-.26-1.55-.06-2.25.24-.22.1-.47.22-.65-.02-.18-.26.04-.42.23-.58.89-.78,2.68-.85,3.84-.14,1.31.79,2.15,2.42,1.9,3.61-.12.58-.51.79-1.03.8-1.81.03-3.32-.71-4.6-1.94-.18-.17-.38-.39-.14-.6.27-.24.44.06.55.24.4.64,1.02.8,1.76.87,0-.86-.11-1.71.39-2.48ZM19.05,17.94c-.08.54-.12.97-.21,1.39-.05.22-.22.45.17.49.35.04.66-.03.6-.47-.06-.45-.14-.91-.56-1.4Z"/>
  <path class="cls-1" d="M33.52,44.92c-.63-1.13-.54-2.5-1.35-3.61-.37-.5-.06-1.32.21-1.95.1-.23.26-.43.55-.32.26.1.32.32.24.59-.05.15-.13.31-.11.46.05.48-.29,1.11.3,1.41.55.28.97-.12,1.34-.51.16-.17.34-.39.61-.28.36.14.33.49.37.81.07.59-.34,1.77,1.03.9.16-.1.31-.02.37.15.08.24.06.6-.13.66-1.25.36-1.92,1.87-3.42,1.69h0ZM34.42,42.37c-.41.11-.67.3-.65.75.02.32.02.71.41.75.4.04.7-.27.68-.65-.02-.3-.02-.73-.44-.85Z"/>
  <path class="cls-1" d="M53.53,50.08c-.46-.25-.9.14-1.36.03.09-1.9-.2-3.82.28-5.7.15-.58.15-1.61.8-1.52.76.1.41,1.09.32,1.63-.32,1.86-.18,3.71-.04,5.56Z"/>
  <path class="cls-15" d="M27.5,51.16c-.14-.7-1-1.07-.87-1.89.16,0,.32.01.47.03.85.09,2.13-.56,2.45,0,.54.95.48,2.25.69,3.55-1.1-.49-2.01-.94-2.74-1.68Z"/>
  <path class="cls-1" d="M25.87,15.92c.39.09.5-.14.52-.47.55.1,1.06-.08,1.57-.24.25.45.53.88.58,1.41-1.11-.16-2.11.04-3.19.42-1.91.66-4.58-2.22-4.02-4.16.11-.37.36-.61.69-.78,0,0,.02.02.02.02-.24,1.82.44,3.2,2.05,4.05.58.3,1.32.7,1.78-.26Z"/>
  <path class="cls-1" d="M72.89,41.41c.17.28.27.45.37.62.37.64.3,1.26-.23,1.72-.54.46-1.13.17-1.64-.16-.2-.12-.38-.3-.51-.49-.2-.27-.59-.61-.3-.92.35-.36.61.1.87.32.26.22.5.64.89.41.4-.23.08-.63.08-.96.01-.67.01-1.3-.46-1.84-.12-.14-.19-.39-.01-.54.26-.22.42.04.59.19.15.13.28.28.42.42.51.52.8.48.8-.32,0-.27-.04-.63.36-.62.37.01.33.37.36.64.13,1.26-.22,1.64-1.58,1.53Z"/>
  <path class="cls-1" d="M31.89,25.75c.48.34.84.79,1.16,1.28-1.43,2.17-1.45,4.5-.77,6.94-.84-.62-.86-1.54-1-2.38-.27-1.53-.27-3.07-.02-4.6.07-.45.18-.95.63-1.23Z"/>
  <path class="cls-1" d="M22.49,20.54c.32.67.49,1.32-.01,1.65-.82.55-1.67.2-2.42-.38-.09.9-.06,1,.59,1.06.43.04.87-.02,1.3-.07.19-.02.39-.15.49.12.08.21-.02.39-.18.53-.6.5-1.27.54-1.85.04-.46-.41-.87-.58-1.48-.38-.27.09-.65,0-.91-.13-.31-.15-.68-.45-.45-.84.22-.37.46.05.68.15.42.19.76.15.99-.3.37-.73.92-.96,1.66-.51.96.59,1.08-.39,1.59-.94Z"/>
  <path class="cls-2" d="M45.97,30.1c1.63-.5,3.33-.44,5-.55-.39,1.53-.86,1.95-2.31,1.68-.95-.17-2.12.01-2.69-1.13Z"/>
  <path class="cls-1" d="M80.97,65.92c.6.72.87,1.89,2.06.65.01.59.31,1.17-.47,1.34-.43.09-.43.4-.42.73.01.35.17.61.54.68.3.06.77.06.55.52-.2.4-.66.6-1.11.28-.25-.18-.62-.48-.6-.69.1-1.21-.3-2.32-.54-3.5Z"/>
  <path class="cls-4" d="M3.49,14.44c.98-.61,2.93-.47,3.58.12.22.19.4.42.27.72-.16.35-.48.37-.81.26-.96-.34-1.84-.91-3.05-1.1Z"/>
  <path class="cls-1" d="M74.48,44.1c-.01-.36.03-.67.34-.75.33-.08.31.26.42.45.56,1.04.57,1.04,1.26.21.24-.29.45-.28.63.05.21.37.3.76.01,1.11-.26.32-.48.73-1.05.56-.9-.25-1.39-.84-1.61-1.64Z"/>
  <path class="cls-1" d="M33.52,44.91c-.14.8-.49,1.47-1.41,1.14-.82-.29-.79-1.11-.69-1.84.03-.24.22-.43.49-.44.24-.01.41.15.38.36-.18,1.21.6.88,1.24.8,0,0,0,0,0,0Z"/>
  <path class="cls-2" d="M40.23,48.97c-.39-.04-.74-.4-1.17-.16.33-1.24.68-2.47.79-3.75.13,0,.25,0,.38.01v3.9Z"/>
  <path class="cls-1" d="M79.72,74c.05-.25-.12-.69.31-.75.49-.07.37.39.42.67.04.21.12.36.34.43.26.09.72-.15.74.34.01.28-.27.48-.53.57-.42.15-.76,0-1.05-.33-.23-.26-.22-.57-.22-.92Z"/>
  <path class="cls-1" d="M44.53,29.61c.08.06.17.12.25.18.07.67-.31.83-.87.77-.89-.1-1.46-.6-1.87-1.51,1.01-.04,1.52,1.27,2.49.56Z"/>
  <path class="cls-1" d="M22.49,11.22c.26,0,.56-.11.74.19-.13.68-.68.67-1.19.73,0,0-.02-.02-.02-.02.13-.31.53-.48.47-.89Z"/>
  <path class="cls-16" d="M73.45,34.13c.73.49,1.68.65,2.2,1.46-.86.15-1.44-.58-2.22-.74-.31-.06,0-.48.02-.73Z"/>
  <path class="cls-14" d="M27.96,15.22c-.51.16-1.02.34-1.57.24-.64-.8-1.02-1.74-1.46-2.66-.47-.97-.37-1.71.81-2.04.22-.06.43-.2.64-.3.36-.08.73-.16,1.09-.23.03,1.52.35,2.96,1.15,4.27-.06.16-.11.32-.17.47-.16.08-.33.16-.49.24Z"/>
  <path class="cls-11" d="M28.45,14.97c.06-.16.11-.32.17-.47.16.05.32.14.22.31-.06.1-.26.11-.39.16Z"/>
  <path class="cls-11" d="M28.33,10.43c0,.17,0,.34-.01.5-.36-.18-.34-.35.01-.5Z"/>
  <path class="cls-14" d="M22.04,12.13c.51-.06,1.06-.04,1.19-.73.47.01.61.25.74.71.39,1.38.91,2.72,1.9,3.81-.46.96-1.21.56-1.78.26-1.61-.85-2.29-2.23-2.05-4.05Z"/>
  <path class="cls-11" d="M26.29,8.08c.24.06.28.25.29.46-.19-.09-.27-.25-.29-.46Z"/>
  <path class="cls-14" d="M59.94,46.87c.65.62,1.76.58,1.59,1.78-.08.57-.34.71-.78.37-.61-.48-1.02-1.09-.82-2.15Z"/>
  <path class="cls-1" d="M19.05,17.94c.42.49.5.95.56,1.4.06.44-.25.51-.6.47-.4-.04-.22-.27-.17-.49.09-.42.13-.84.21-1.39Z"/>
  <path class="cls-14" d="M34.42,42.37c.41.12.42.55.44.85.02.38-.27.69-.68.65-.39-.04-.39-.43-.41-.75-.02-.44.24-.64.65-.75Z"/>
</svg>